<svg width="44" height="44" viewBox="0 0 44 44" fill="none" xmlns="http://www.w3.org/2000/svg">
<path d="M33.3289 35.9982V32.251C33.3289 30.4934 31.7216 29.4776 29.5716 29.0793C23.0635 29.0793 20.9897 31.0685 20.9897 33.2128V35.9982C20.9897 38.2068 21.997 39.9977 27.4339 39.9977H29.3295C31.5381 39.9976 33.3289 38.2068 33.3289 35.9982Z" fill="#5D6A83"/>
<path d="M23.4348 35.9983V33.2129C23.4348 31.0687 26.3446 29.5904 29.572 29.0795C25.227 28.2747 18.6646 29.9927 18.6646 33.2129V35.9983C18.6646 38.2069 20.4554 39.9978 22.6641 39.9978H27.4343C25.2257 39.9978 23.4348 38.2069 23.4348 35.9983Z" fill="#4D5A70"/>
<path d="M39.698 28.9004C44.0239 23.411 44.0244 17.9219 39.698 12.4332C36.2081 9.58032 31.2126 8.06266 26.0061 7.75879C10.5318 9.55712 8.57658 31.2269 23.4355 33.6251C29.5311 33.7331 35.6305 32.2251 39.698 28.9004Z" fill="#FBE660"/>
<path d="M5.33252 6.81699C5.33252 5.26256 6.59279 4.0022 8.14732 4.0022H10.7798C11.921 4.0022 12.9485 4.69013 13.3822 5.7451L13.8759 6.94367C15.3313 12.2542 5.86576 15.9563 5.33252 11.3334V6.81699Z" fill="#FDCD59"/>
<path d="M14.7225 8.99999C16.9755 15.4232 5.33252 18.4006 5.33252 14.3922V11.3336C7.73138 9.32973 10.7161 7.892 13.8759 6.94385L14.7225 8.99904V8.99999Z" fill="#FDB451"/>
<path d="M5.33252 34.5167C5.33252 36.0712 6.59279 37.3315 8.14732 37.3315H10.7798C11.921 37.3315 12.9485 36.6436 13.3822 35.5886L13.8759 34.3901C15.3313 29.0796 5.86576 25.3774 5.33252 30.0003V34.5167Z" fill="#FDCD59"/>
<path d="M14.7225 32.3338C16.9755 25.9106 5.33252 22.9332 5.33252 26.9416V30.0002C7.73138 32.0041 10.7161 33.4418 13.8759 34.39L14.7225 32.3348V32.3338Z" fill="#FDB451"/>
<path d="M26.0064 7.75876C15.7089 7.15789 5.43013 11.3061 3.11979 18.0005C2.33767 20.0446 2.33767 21.8222 3.11979 23.3331C3.56237 24.6157 4.31699 25.8288 5.33285 26.9416C9.19746 31.1667 16.314 33.4989 23.4358 33.625C18.1723 26.5316 19.5175 14.6621 26.0064 7.75876Z" fill="#FDCD59"/>
<path d="M2.6663 18.0005C1.19359 18.0005 0 19.1942 0 20.6669C0 22.1386 1.19445 23.3332 2.6663 23.3332H5.33259C6.8053 23.3332 7.99889 22.1396 7.99889 20.6669C7.99889 19.1951 6.80445 18.0006 5.33259 18.0006C4.33752 18.0005 3.63988 18.0005 2.6663 18.0005Z" fill="#F7475E"/>
<path d="M39.6983 12.4331C37.1244 13.8303 35.3291 16.9908 35.3291 20.6668C35.3291 24.3428 37.1244 27.5033 39.6983 28.9004C45.4308 24.2136 45.4375 17.1254 39.6983 12.4331Z" fill="#FD6E80"/>
<path d="M11.9219 21.4028C11.9219 22.5974 13.1369 23.5661 14.6362 23.567C16.1365 23.5679 17.3524 22.6 17.3532 21.4055C17.3541 20.2118 16.1382 19.2431 14.6389 19.2422C13.1386 19.2413 11.9227 20.2083 11.9219 21.4028Z" fill="#FFA1AC"/>
<path d="M21.9965 23.4087C23.4666 23.4096 24.6593 22.0765 24.6593 20.4322C24.6602 18.7871 23.4692 18.6316 21.9992 18.6306C20.5283 18.6298 19.3373 18.7844 19.3364 20.4286C19.3355 22.0738 20.5265 23.4079 21.9965 23.4087Z" fill="#31424C"/>
<path d="M26.6411 21.4108C26.6403 22.6044 27.8561 23.5731 29.3554 23.5741C30.8557 23.5749 32.0716 22.6071 32.0724 21.4134C32.0724 20.2189 30.8575 19.2501 29.3581 19.2493C27.8578 19.2484 26.642 20.2162 26.6411 21.4108Z" fill="#FFA1AC"/>
<path d="M29.0676 19.7247C29.0673 19.7247 29.067 19.7247 29.0667 19.7247C28.6986 19.7242 28.4005 19.4254 28.401 19.0572C28.4014 18.7101 28.1196 18.432 27.7754 18.4315C27.4307 18.4315 27.1496 18.7122 27.1496 19.0572C27.1496 19.4254 26.8512 19.7239 26.483 19.7239C26.1149 19.7239 25.8164 19.4254 25.8164 19.0572C25.8164 17.9771 26.6955 17.0984 27.7761 17.0984C28.8606 17.0998 29.7354 17.977 29.7341 19.059C29.7337 19.4269 29.4353 19.7247 29.0676 19.7247Z" fill="#31424C"/>
<path d="M17.5143 19.7194C17.1462 19.7194 16.8477 19.4209 16.8477 19.0527C16.8477 18.7073 16.5671 18.4262 16.222 18.4262C16.2218 18.4262 16.2214 18.4262 16.2212 18.4262C15.8741 18.4262 15.5959 18.7068 15.5954 19.0518C15.595 19.4196 15.2966 19.7175 14.9288 19.7175C14.9286 19.7175 14.9283 19.7175 14.928 19.7175C14.5598 19.7171 14.2618 19.4183 14.2622 19.0502C14.2636 17.9712 15.1349 17.093 16.2228 17.093C17.3021 17.093 18.1808 17.9722 18.1808 19.0527C18.181 19.4209 17.8825 19.7194 17.5143 19.7194Z" fill="#31424C"/>
</svg>
