<svg width="44" height="44" viewBox="0 0 44 44" fill="none" xmlns="http://www.w3.org/2000/svg">
<g clip-path="url(#clip0_371_4076)">
<path d="M13.7286 9.20678L7.59745 8.84601C6.73257 8.79531 5.88454 9.118 5.27215 9.73134L3.57085 11.4318C2.55842 12.4451 2.55842 14.0869 3.57085 15.1002L7.72498 19.2536L12.8742 16.0738L13.7286 9.20678Z" fill="#FF889E"/>
<path d="M14.9781 17.0516L16.3585 9.36156L13.7288 9.20679C12.8756 10.4562 12.6993 10.8711 7.7251 19.2537L9.34786 20.8762L14.9781 17.0516Z" fill="#F9496E"/>
<path d="M24.7461 36.2759L28.8995 40.4292C29.9127 41.4416 31.5546 41.4416 32.5679 40.4292L34.2683 38.7279C34.8816 38.1154 35.2043 37.2675 35.1536 36.4026L34.7929 30.2715L32.2144 30.7326C29.636 31.1938 27.3402 32.645 25.8176 34.7763L24.7461 36.2759Z" fill="#FFB2C1"/>
<path d="M34.6381 27.6406L26.1778 28.5348L23.1235 34.653L24.7461 36.2755C34.1375 30.7234 33.8204 30.9352 34.7928 30.2711C34.7587 29.6897 34.877 31.7007 34.6381 27.6406Z" fill="#FF889E"/>
<path d="M32.2269 29.2718C36.9941 26.4527 40.7237 22.0203 42.6376 16.6389C39.5829 11.2658 35.1854 8.12692 30.2279 8.20529C16.6197 13.5237 14.6716 24.2665 14.1147 29.6435C14.2959 33.3063 16.3372 35.565 20.6101 36.1394C20.6509 36.1152 32.1859 29.296 32.2269 29.2718Z" fill="#71DDFC"/>
<path d="M30.228 8.20524C30.8859 4.705 29.9982 2.3211 27.3622 1.36255C22.0752 3.24192 17.5998 6.91738 14.7285 11.7732C14.7169 11.7928 8.65364 22.0505 7.86182 23.39C8.41689 26.7731 10.3861 28.9553 14.1148 29.6435C17.8711 21.7578 23.4744 13.6614 30.228 8.20524Z" fill="#3AC8FB"/>
<path d="M5.00735 28.535L3.63759 29.9047C1.53676 32.0074 0.330543 34.6918 0.0340583 37.4371C-0.157926 39.2193 0.46873 40.9944 1.73717 42.2629C2.99555 43.5213 4.7675 44.1594 6.5629 43.966C9.41182 43.6594 12.0695 42.3883 14.0953 40.3625L15.4651 38.9927C15.9976 35.6498 8.172 27.9501 5.00735 28.535Z" fill="#F5E277"/>
<path d="M11.2668 32.8665L6.16499 29.6931L5.66569 30.1924C3.41404 32.4429 3.41464 36.0856 5.66466 38.3342C7.88838 40.5594 11.5254 40.6163 13.8199 38.3218L13.8212 38.3204C13.8218 38.3199 13.8219 38.3197 13.8214 38.3202C13.8585 38.2832 13.9767 38.165 14.3067 37.835C14.1067 37.6351 11.2767 32.8765 11.2668 32.8665Z" fill="#F5C922"/>
<path d="M20.6097 36.1393L18.3066 33.8357C15.6359 34.2838 14.6434 36.1641 14.3067 37.8349C14.5425 38.0705 13.4534 36.9816 16.6106 40.1384C17.7136 41.2414 19.5035 41.2446 20.6097 40.1384C21.7146 39.0345 21.7137 37.2434 20.6097 36.1393Z" fill="#7292DF"/>
<path d="M12.7354 36.2638C13.3709 36.8993 13.3639 36.8923 14.307 37.835C14.8549 37.2871 15.9878 36.1544 18.3069 33.8358L16.7353 32.2639C14.0939 32.292 12.8064 33.671 12.7354 36.2638Z" fill="#4677D4"/>
<path d="M10.1648 25.6932L7.86148 23.3899H7.86062C6.7577 22.287 4.9678 22.2838 3.86152 23.3899C2.75662 24.4939 2.75757 26.285 3.86152 27.389C5.29874 28.8263 4.02214 27.5496 6.16516 29.6929C8.43228 29.1572 9.72117 27.7862 10.1648 25.6932Z" fill="#7292DF"/>
<path d="M7.73632 31.2644C10.3448 31.2251 11.5937 29.8063 11.736 27.2647L10.1647 25.6934L6.16504 29.6929C6.7281 30.2561 7.25034 30.7784 7.73632 31.2644Z" fill="#4677D4"/>
<path d="M27.7342 23.2646C28.9769 24.5073 28.9769 26.5223 27.7342 27.7641C26.4916 29.0068 24.4774 29.0068 23.2347 27.7641C21.9921 26.5223 21.9921 24.5073 23.2347 23.2646C24.4774 22.0228 26.4916 22.0228 27.7342 23.2646Z" fill="#EFEDFF"/>
<path d="M20.7352 16.2657C21.977 17.5084 21.977 19.5226 20.7352 20.7652C19.4926 22.0079 17.4775 22.0079 16.2357 20.7652C14.993 19.5226 14.993 17.5084 16.2357 16.2657C17.4775 15.0231 19.4926 15.0231 20.7352 16.2657Z" fill="#D8D6FF"/>
<path d="M12.2356 36.7633C12.172 36.8269 13.0831 35.9159 17.2357 31.7642C18.2622 30.7377 18.5247 29.237 18.0246 27.9672C16.0224 26.2442 14.7005 27.1758 13.6738 28.2032C12.6716 29.2054 9.67865 32.1984 8.67473 33.2023C7.64752 34.2289 6.59899 35.3331 8.43857 37.5526C9.7083 38.0532 11.209 37.7906 12.2356 36.7633Z" fill="#FFB2C1"/>
<path d="M9.22796 33.7553C10.2378 32.7455 13.2244 29.7589 14.227 28.7563C15.2537 27.7289 16.7547 27.4664 18.0246 27.9671C17.8521 27.5294 17.5897 27.1189 17.2357 26.765H17.2348C15.8544 25.3837 13.6162 25.3837 12.2358 26.765C11.2331 27.7677 8.24673 30.7541 7.2367 31.7641C5.85534 33.1445 5.85534 35.3827 7.2367 36.7632C7.59059 37.1172 8.00095 37.3799 8.43871 37.5525C7.93804 36.2827 8.20075 34.782 9.22796 33.7553Z" fill="#FF889E"/>
<path d="M42.6374 16.639C43.3885 14.527 43.8498 12.295 43.984 10.0017C44.1379 7.35209 43.1729 4.69697 41.2177 2.75229C36.5271 1.59651 32.2658 2.90904 30.2271 8.20588C33.0074 12.3922 37.3881 15.535 42.6374 16.639Z" fill="#F5E277"/>
<path d="M37.9102 0.616833C36.6764 0.148388 35.3449 -0.062245 33.9983 0.0159581C31.7049 0.151052 29.473 0.611505 27.3618 1.3626C27.8665 3.76429 28.8221 6.09036 30.227 8.2058C34.0123 5.14754 37.8051 3.23449 41.2176 2.75221C40.267 1.80578 39.1375 1.08365 37.9102 0.616833Z" fill="#F5C922"/>
<path d="M25.1617 12.4711C24.9013 12.2108 24.9013 11.7887 25.1617 11.5283C25.4082 11.2817 25.4082 10.883 25.1617 10.6364C24.9156 10.3904 24.5151 10.3904 24.269 10.6364C24.0087 10.8967 23.5865 10.8967 23.3262 10.6364C23.0658 10.3761 23.0658 9.954 23.3262 9.69361C24.0921 8.92765 25.3385 8.92765 26.1045 9.69361C26.8703 10.4594 26.8703 11.7053 26.1045 12.4711C25.8441 12.7315 25.422 12.7315 25.1617 12.4711Z" fill="#495560"/>
<path d="M33.3631 20.6733C33.1029 20.4127 33.1034 19.9906 33.3639 19.7305C33.6107 19.4842 33.6108 19.085 33.3638 18.8385C33.1176 18.5923 32.7174 18.5922 32.4715 18.8382C32.2112 19.0985 31.7891 19.0984 31.5287 18.8381C31.2684 18.5777 31.2684 18.1557 31.5287 17.8953C32.2945 17.1297 33.5403 17.1296 34.3061 17.8953C35.0746 18.6625 35.0748 19.9063 34.3057 20.6741C34.0462 20.9334 33.6241 20.9347 33.3631 20.6733Z" fill="#495560"/>
<path d="M26.1055 15.2372C26.1305 14.8698 26.4486 14.5912 26.816 14.6174C27.1833 14.6424 27.4609 14.9605 27.4358 15.3279C27.388 16.03 27.9657 16.6113 28.672 16.5641C29.0393 16.538 29.3574 16.8165 29.3824 17.1839C29.4075 17.5512 29.13 17.8693 28.7626 17.8943C27.2566 17.9974 26.0025 16.7501 26.1055 15.2372Z" fill="#495560"/>
</g>
<defs>
<clipPath id="clip0_371_4076">
<rect width="44" height="44" fill="white"/>
</clipPath>
</defs>
</svg>
