<svg width="44" height="44" viewBox="0 0 44 44" fill="none" xmlns="http://www.w3.org/2000/svg">
<path d="M20.6253 8.93757C20.2733 8.93757 19.922 8.80351 19.6532 8.5347C19.1163 7.99776 19.1163 7.12739 19.6532 6.59045L21.7157 4.52795C22.2526 3.99101 23.123 3.99101 23.6599 4.52795C24.1969 5.06488 24.1969 5.93526 23.6599 6.4722L21.5974 8.5347C21.3286 8.80351 20.9773 8.93757 20.6253 8.93757Z" fill="#6936BA"/>
<path d="M12.3753 8.25007C12.0233 8.25007 11.672 8.11601 11.4032 7.8472C10.8663 7.31026 10.8663 6.43989 11.4032 5.90295L13.4657 3.84045C14.0026 3.30351 14.873 3.30351 15.4099 3.84045C15.9469 4.37738 15.9469 5.24776 15.4099 5.7847L13.3474 7.8472C13.0786 8.11601 12.7273 8.25007 12.3753 8.25007Z" fill="#6936BA"/>
<path d="M36.4378 24.7501C36.0858 24.7501 35.7345 24.616 35.4657 24.3472C34.9288 23.8103 34.9288 22.9399 35.4657 22.4029L37.5282 20.3404C38.0651 19.8035 38.9355 19.8035 39.4724 20.3404C40.0094 20.8774 40.0094 21.7478 39.4724 22.2847L37.4099 24.3472C37.1411 24.616 36.7898 24.7501 36.4378 24.7501Z" fill="#6936BA"/>
<path d="M37.1253 33.0001C36.7733 33.0001 36.422 32.866 36.1532 32.5972C35.6163 32.0603 35.6163 31.1899 36.1532 30.6529L38.2157 28.5904C38.7526 28.0535 39.623 28.0535 40.1599 28.5904C40.6969 29.1274 40.6969 29.9978 40.1599 30.5347L38.0974 32.5972C37.8286 32.866 37.4773 33.0001 37.1253 33.0001Z" fill="#6936BA"/>
<path d="M30.6283 9.11624L21.6908 20.1162C21.4226 20.4462 21.0308 20.625 20.6251 20.625C20.4326 20.625 20.2333 20.5837 20.0476 20.5012L2.17265 12.2512C1.76702 12.0587 1.47827 11.6875 1.39577 11.2406C1.32015 10.8006 1.45765 10.3469 1.78077 10.0306L5.90577 5.90561C6.18077 5.62374 6.5589 5.47936 6.95765 5.49999L29.6451 6.87499C30.1608 6.90936 30.6145 7.22561 30.8208 7.69999C31.027 8.16749 30.9583 8.71749 30.6283 9.11624Z" fill="#FFC242"/>
<path d="M22.9489 6.46936C19.0233 9.46686 15.5651 13.0556 12.712 17.1187L2.17265 12.2512C1.76702 12.0587 1.47827 11.6875 1.39577 11.2406C1.32015 10.8006 1.45765 10.3469 1.78077 10.0306L5.90577 5.90561C6.18077 5.62374 6.5589 5.47936 6.95765 5.49999L22.9489 6.46936Z" fill="#FEF156"/>
<path d="M15.1267 8.74971C15.0985 8.74971 15.0703 8.74902 15.0421 8.74765L6.79213 8.24784C6.03382 8.20177 5.457 7.55002 5.50307 6.79171C5.54913 6.03409 6.20982 5.46071 6.9585 5.50265L15.2085 6.00246C15.9668 6.04852 16.5436 6.70027 16.4976 7.45859C16.4536 8.18734 15.8479 8.74971 15.1267 8.74971Z" fill="#FFFBB3"/>
<path d="M38.5002 37.0424C38.5208 37.4343 38.3764 37.8193 38.0946 38.0943L33.9696 42.2193C33.7152 42.4805 33.3646 42.6249 33.0002 42.6249C32.9177 42.6249 32.8421 42.618 32.7596 42.6043C32.3127 42.5218 31.9414 42.233 31.7489 41.8274L23.4989 23.9524C23.2377 23.3818 23.3958 22.7011 23.8839 22.3093L34.8839 13.3718C35.2827 13.0418 35.8327 12.973 36.3002 13.1793C36.7746 13.3855 37.0908 13.8393 37.1252 14.3549L38.5002 37.0424Z" fill="#FFC242"/>
<path d="M38.5001 37.0425C38.5207 37.4344 38.3763 37.8194 38.0945 38.0944L33.9695 42.2194C33.7151 42.4806 33.3645 42.625 33.0001 42.625C32.9176 42.625 32.842 42.6181 32.7595 42.6044C32.3126 42.5219 31.9413 42.2331 31.7488 41.8275L26.8813 31.2881C30.9445 28.435 34.5332 24.9769 37.5307 21.0581L38.5001 37.0425Z" fill="#FEF156"/>
<path d="M42.3506 8.26372C38.3631 18.6312 30.7731 27.2456 20.99 32.5118L18.5631 33.8181V39.1875C18.5631 39.5518 18.4187 39.9025 18.1575 40.1568L16.095 42.2193C15.8406 42.4806 15.49 42.625 15.1256 42.625C15.05 42.625 14.9812 42.6181 14.9056 42.6043C14.4656 42.5356 14.0943 42.2606 13.895 41.8618L9.97621 34.0243L2.13871 30.1056C1.73996 29.9062 1.46496 29.535 1.39621 29.095C1.32059 28.6618 1.46496 28.215 1.78121 27.9056L3.84371 25.8431C4.09809 25.5818 4.44871 25.4375 4.81309 25.4375H10.1825L11.4887 23.0106C16.755 13.2275 25.3693 5.64435 35.7368 1.64997C37.6206 0.928098 39.7656 1.38185 41.1887 2.81185C42.6187 4.23497 43.0725 6.37997 42.3506 8.26372Z" fill="#02C0FC"/>
<path d="M23.3756 11.9012C22.9844 11.9012 22.5946 11.7348 22.323 11.4117C21.8342 10.8307 21.9085 9.96381 22.4894 9.47431C25.7124 6.76281 29.2874 4.50162 33.1161 2.75331C33.8063 2.43844 34.6224 2.74162 34.938 3.43325C35.2535 4.12419 34.949 4.93956 34.2587 5.25512C30.6555 6.90031 27.2916 9.02744 24.2604 11.5787C24.0026 11.7946 23.6884 11.9012 23.3756 11.9012Z" fill="#A4EEFF"/>
<path d="M18.5617 16.6066C18.2393 16.6066 17.9155 16.4938 17.6542 16.2642C17.0843 15.763 17.0286 14.8933 17.5298 14.3234C17.9815 13.8091 18.4559 13.2956 18.9371 12.7951C19.4651 12.2485 20.3348 12.2327 20.8814 12.7593C21.4286 13.2866 21.4437 14.157 20.9178 14.7036C20.4647 15.1738 20.0192 15.6564 19.595 16.1391C19.3228 16.4491 18.9433 16.6066 18.5617 16.6066Z" fill="#A4EEFF"/>
<path d="M41.1885 2.81189C40.9548 2.57677 40.6963 2.37877 40.4281 2.19727C41.3508 3.56264 41.579 5.31439 40.9754 6.88877C36.9879 17.2563 29.3979 25.8706 19.6148 31.1369L17.1879 32.4431V37.8125C17.1879 38.1769 17.0435 38.5275 16.7823 38.7819L14.7198 40.8444C14.4654 41.1056 14.1148 41.25 13.7504 41.25C13.6919 41.25 13.6369 41.2425 13.5806 41.2342L13.8948 41.8619C14.0941 42.2606 14.4654 42.5356 14.9054 42.6044C14.981 42.6181 15.0498 42.625 15.1254 42.625C15.4898 42.625 15.8404 42.4806 16.0948 42.2194L18.1573 40.1569C18.4185 39.9025 18.5629 39.5519 18.5629 39.1875V33.8181L20.9898 32.5119C30.7729 27.2456 38.3629 18.6313 42.3504 8.26377C43.0723 6.38002 42.6185 4.23502 41.1885 2.81189Z" fill="#27A6FF"/>
<path d="M33.6875 14.4375C32.9285 14.4375 32.3125 13.8215 32.3125 13.0625C32.3125 12.3042 31.6958 11.6875 30.9375 11.6875C30.1785 11.6875 29.5625 11.0715 29.5625 10.3125C29.5625 9.5535 30.1785 8.9375 30.9375 8.9375C33.2124 8.9375 35.0625 10.7876 35.0625 13.0625C35.0625 13.8215 34.4465 14.4375 33.6875 14.4375Z" fill="#E8F8FC"/>
<path d="M5.84407 39.5313C5.49207 39.5313 5.14075 39.3973 4.87194 39.1284C4.335 38.5915 4.335 37.7211 4.87194 37.1842L12.4344 29.6217C12.9714 29.0848 13.8418 29.0848 14.3787 29.6217C14.9156 30.1586 14.9156 31.029 14.3787 31.5659L6.81619 39.1284C6.54738 39.3973 6.19607 39.5313 5.84407 39.5313Z" fill="#FEF156"/>
<path d="M9.62532 35.7501C9.27332 35.7501 8.922 35.616 8.65319 35.3472C8.11625 34.8103 8.11625 33.9399 8.65319 33.4029L12.4344 29.6217C12.9714 29.0848 13.8418 29.0848 14.3787 29.6217C14.9156 30.1586 14.9156 31.029 14.3787 31.5659L10.5974 35.3472C10.3286 35.616 9.97732 35.7501 9.62532 35.7501Z" fill="#FFFBB3"/>
</svg>
