<svg width="44" height="44" viewBox="0 0 44 44" fill="none" xmlns="http://www.w3.org/2000/svg">
<path d="M14.8741 5.22137C15.3264 4.85184 15.9058 4.62573 16.5504 4.62573H17.3429C20.2855 4.62573 22.9885 6.24754 24.3733 8.84398L30.6226 20.5613H25.1336H17.3429L13.9841 7.96601C13.7005 6.90267 14.1017 5.85242 14.8741 5.22137Z" fill="#FF8E9E"/>
<path d="M18.8844 8.84398C17.9957 7.17773 16.5636 5.91386 14.8741 5.22137C15.3264 4.85184 15.9058 4.62573 16.5504 4.62573H17.3429C20.2855 4.62573 22.9885 6.24754 24.3733 8.84398L30.6226 20.5613H25.1336L18.8844 8.84398Z" fill="#EA5B70"/>
<path d="M3.8895 6.24829C4.88211 6.24829 5.82523 6.682 6.47124 7.43567L10.7656 12.4453V14.8338H1.89754V8.24024C1.89754 7.14015 2.78941 6.24829 3.8895 6.24829Z" fill="#FF8E9E"/>
<path d="M1.89776 14.8338C4.82726 13.3054 8.22543 12.4377 11.7845 12.4158L26.2311 12.3269L27.4903 12.3191C28.4285 12.3133 29.341 12.4195 30.2123 12.6232C30.8825 12.7799 31.5283 12.9942 32.143 13.2597C32.488 13.4087 32.8221 13.5751 33.1463 13.7551C34.7566 14.6497 36.0955 15.9117 37.0113 17.4023C40.6206 16.6132 44 19.3656 44 23.0227C44 25.0603 42.941 26.8505 41.3434 27.873C35.2344 31.7828 27.3718 32.6661 20.1187 32.6661C18.5015 32.6661 16.869 32.5719 15.2565 32.3939C11.0954 31.9345 7.06718 30.9159 3.77807 29.5093C1.4906 28.531 3.8147e-06 26.2913 3.8147e-06 23.8034V23.1716V17.9713C3.8147e-06 16.654 0.729855 15.4432 1.89776 14.8338Z" fill="#EFEDFF"/>
<path d="M3.8147e-06 23.8035V23.1716C0.951534 24.6034 2.57847 25.5477 4.42656 25.5477H17.094C24.2748 25.5477 30.1065 19.7789 30.2123 12.6233C30.8824 12.78 31.5284 12.9944 32.143 13.2598C32.488 13.4088 32.8221 13.5753 33.1463 13.7553C34.7566 14.6498 36.0955 15.9118 37.0113 17.4024C40.6206 16.6132 44 19.3656 44 23.0227C44 25.0603 42.941 26.8505 41.3434 27.8731C35.2344 31.7829 27.3718 32.6661 20.1187 32.6661C18.5015 32.6661 16.869 32.5719 15.2565 32.3939C11.0954 31.9345 7.06718 30.916 3.77807 29.5093C1.4906 28.531 3.8147e-06 26.2914 3.8147e-06 23.8035Z" fill="#D4D4FF"/>
<path d="M33.1461 13.7551C34.7565 14.6496 36.0954 15.9117 37.0112 17.4023L34.7481 19.6654C34.2295 20.1839 33.5497 20.4433 32.8701 20.4433C32.1904 20.4433 31.5107 20.184 30.9921 19.6654C29.9549 18.6281 29.9549 16.9465 30.9921 15.9093L33.1461 13.7551Z" fill="#55DAFE"/>
<path d="M24.2484 20.7826C22.7815 20.7826 21.5924 19.5935 21.5924 18.1266C21.5924 16.6598 22.7815 15.4707 24.2484 15.4707C25.7152 15.4707 26.9043 16.6598 26.9043 18.1266C26.9043 19.5935 25.7152 20.7826 24.2484 20.7826Z" fill="#55DAFE"/>
<path d="M16.8118 20.7826C15.345 20.7826 14.1559 19.5935 14.1559 18.1266C14.1559 16.6598 15.345 15.4707 16.8118 15.4707C18.2787 15.4707 19.4678 16.6598 19.4678 18.1266C19.4678 19.5935 18.2787 20.7826 16.8118 20.7826Z" fill="#55DAFE"/>
<path d="M9.37531 20.7826C7.90848 20.7826 6.71938 19.5935 6.71938 18.1266C6.71938 16.6598 7.90848 15.4707 9.37531 15.4707C10.8421 15.4707 12.0312 16.6598 12.0312 18.1266C12.0312 19.5935 10.8421 20.7826 9.37531 20.7826Z" fill="#55DAFE"/>
<path d="M13.9843 36.0341L16.94 24.9503C17.1777 24.059 17.985 23.4387 18.9075 23.4387H21.7401H27.229C28.7662 23.4387 29.7491 25.0768 29.0257 26.4331L24.3735 35.156C22.9888 37.7524 20.2856 39.3742 17.343 39.3742H16.5505C15.906 39.3742 15.3266 39.1481 14.8743 38.7786C14.1019 38.1476 13.7008 37.0974 13.9843 36.0341Z" fill="#FF8E9E"/>
<path d="M18.8845 35.156L23.5368 26.4331C24.2602 25.0768 23.2773 23.4387 21.7401 23.4387H27.229C28.7662 23.4387 29.7491 25.0768 29.0257 26.4331L24.3735 35.156C22.9888 37.7524 20.2856 39.3742 17.343 39.3742H16.5505C15.906 39.3742 15.3266 39.1481 14.8743 38.7786C16.5637 38.0861 17.9958 36.8222 18.8845 35.156Z" fill="#EA5B70"/>
<path d="M33.0585 16.009C34.1034 16.009 34.9536 16.8592 34.9536 17.9041C34.9536 18.2708 34.6563 18.5681 34.2896 18.5681C33.9229 18.5681 33.6256 18.2708 33.6256 17.9041C33.6256 17.5914 33.3712 17.337 33.0585 17.337C32.7458 17.337 32.4914 17.5914 32.4914 17.9041C32.4914 18.2708 32.1941 18.5681 31.8274 18.5681C31.4607 18.5681 31.1634 18.2708 31.1634 17.9041C31.1634 16.8592 32.0136 16.009 33.0585 16.009Z" fill="#313D40"/>
</svg>
