<svg width="44" height="44" viewBox="0 0 44 44" fill="none" xmlns="http://www.w3.org/2000/svg">
<g clip-path="url(#clip0_371_4103)">
<path d="M18.0292 43.5707L20.8947 40.428C21.5839 39.6723 21.9024 38.6498 21.7641 37.6364L21.1528 33.1501L17.1342 33.6141L13.5581 38.9956L15.4387 43.1884C15.9221 44.1988 17.2746 44.3986 18.0292 43.5707Z" fill="#7E7CE8"/>
<path d="M0.515343 26.0569L3.65811 23.1914C4.41375 22.5023 5.43627 22.1837 6.44973 22.322L10.9356 22.9333L10.472 26.9519L5.09051 30.528L0.897698 28.6471C-0.112739 28.1641 -0.312477 26.8116 0.515343 26.0569Z" fill="#7E7CE8"/>
<path d="M41.9539 28.8945L39.8072 24.2377C39.4802 23.5287 38.6212 23.2451 37.9367 23.62L35.2568 25.088L38.8206 32.1134L41.403 30.6256C42.0066 30.2782 42.2453 29.5272 41.9539 28.8945Z" fill="#E5E8EC"/>
<path d="M15.1916 2.13186L19.8484 4.27862C20.5573 4.60559 20.841 5.46463 20.466 6.1491L18.998 8.82894L11.9727 5.26522L13.4601 2.68273C13.8079 2.07916 14.5588 1.84048 15.1916 2.13186Z" fill="#E5E8EC"/>
<path d="M31.7581 42.6968L24.5776 30.4077L26.769 26.8994L34.1946 30.7367L35.7002 42.1856L35.3178 42.7774C34.4719 44.0849 32.5436 44.0416 31.7581 42.6968Z" fill="#7E7CE8"/>
<path d="M1.389 12.3275L13.6781 19.508L17.1864 17.3166L13.3491 9.89108L1.89993 8.3855L1.3081 8.76819C0.000911325 9.6138 0.0442159 11.5417 1.389 12.3275Z" fill="#7E7CE8"/>
<path d="M35.7002 42.1858L26.769 26.8994L29.5858 22.3913L35.2564 21.8552L40.1917 32.6474C40.6255 33.5951 40.5452 34.6985 39.9789 35.574L35.7002 42.1858Z" fill="#6EE6DB"/>
<path d="M13.6783 19.5082L17.1866 17.3168L15.205 13.4822L11.459 18.2114L13.6783 19.5082Z" fill="#7C62E8"/>
<path d="M1.8999 8.38565L17.1864 17.3168L21.6944 14.5003L22.2305 8.82943L11.4383 3.89407C10.491 3.46035 9.38721 3.54058 8.51172 4.1069L1.8999 8.38565Z" fill="#6EE6DB"/>
<path d="M21.1528 33.1504L17.1342 33.614L13.5581 38.9955L14.6652 41.4638C14.8535 41.343 15.0368 41.2137 15.2124 41.0734L21.5486 36.0541L21.1528 33.1504Z" fill="#7C62E8"/>
<path d="M2.62158 29.4204L5.09061 30.5279L10.4721 26.9517L10.9357 22.9331L8.03195 22.5374L3.01266 28.8736C2.87201 29.0498 2.74176 29.2324 2.62158 29.4204Z" fill="#7C62E8"/>
<path d="M26.7695 26.8994L24.5781 30.4081L25.8749 32.627L30.6038 28.881L26.7695 26.8994Z" fill="#7C62E8"/>
<path d="M35.2564 21.8552L29.5858 22.391L26.769 26.8994L28.7738 30.3305L36.3776 24.3071L35.2564 21.8552Z" fill="#26BED3"/>
<path d="M17.1865 17.3168L21.6949 14.5L22.2306 8.82947L19.7787 7.70825L13.7554 15.312L17.1865 17.3168Z" fill="#26BED3"/>
<path d="M43.8902 9.22246L43.0513 3.941C42.8136 2.44515 41.6407 1.27223 40.1449 1.03456L34.8634 0.195666C31.7982 -0.291425 28.7021 0.864367 26.7057 3.24074L5.0904 30.5279C4.16187 31.6874 3.97892 33.2762 4.6201 34.6163L5.15217 35.7292C5.82322 37.132 6.95384 38.263 8.3567 38.9337L9.46952 39.4658C10.8096 40.1069 12.3984 39.924 13.5579 38.9955L40.8448 17.3801C43.2215 15.3838 44.3773 12.2877 43.8902 9.22246Z" fill="#6EE6DB"/>
<path d="M40.5668 9.75052L39.7279 4.46872C39.7262 4.45831 39.7212 4.42609 39.6903 4.39554C39.6597 4.36465 39.6275 4.35962 39.6168 4.35794L34.3353 3.51904C32.4591 3.22095 30.5346 3.93295 29.3043 5.37912C29.1347 5.59094 29.1515 5.89642 29.3435 6.08844L37.9974 14.7423C38.1894 14.9343 38.4949 14.9511 38.7067 14.7816C40.1525 13.5509 40.8652 11.6267 40.5668 9.75052Z" fill="#7E7CE8"/>
</g>
<defs>
<clipPath id="clip0_371_4103">
<rect width="44" height="44" fill="white"/>
</clipPath>
</defs>
</svg>
