<svg width="44" height="44" viewBox="0 0 44 44" fill="none" xmlns="http://www.w3.org/2000/svg">
<path d="M12.4048 12.6237L16.7509 8.27759L19.4706 10.9971L15.5675 14.9001L12.4048 12.6237Z" fill="#FFDAAA"/>
<path d="M29.7607 28.6714L33.4526 24.9795L36.1723 27.699L32.1255 31.7458L29.7607 28.6714Z" fill="#FFDAAA"/>
<path d="M17.168 22.7764L6.15381 11.7622L8.39699 9.51904L24.5092 15.4354L17.168 22.7764Z" fill="#FF725C"/>
<path d="M21.666 27.2748L32.6804 38.289L34.9234 36.046L29.0072 19.9338L21.666 27.2748Z" fill="#FF725C"/>
<path d="M21.4212 27.6075L22.9846 26.0441L35.0837 13.9449C35.8718 13.1176 37.1312 11.5522 37.7345 9.25445C37.9824 8.31 38.069 7.07658 38.0782 6.36523C37.3669 6.37447 36.1294 6.45676 35.1849 6.70469C32.8871 7.30797 31.3218 8.56738 30.4944 9.35543L18.3951 21.4548L16.8317 23.0182C16.6684 23.1755 16.4305 23.4084 16.1519 23.698C15.5389 24.335 14.0591 25.9399 12.0737 29.2719C11.1916 30.7521 9.95988 33.121 8.91553 35.5279C11.3224 34.4836 13.687 33.2476 15.1673 32.3654C18.4993 30.3798 20.1044 28.9002 20.7412 28.2872C21.0308 28.0086 21.2639 27.7708 21.4212 27.6075Z" fill="#FFDAAA"/>
<path d="M10.6995 31.7718C11.1964 30.8074 11.6715 29.9472 12.0739 29.2719C12.6539 28.2982 13.1911 27.4722 13.676 26.7743L8.16457 24.7507L5.92139 26.9939L10.6995 31.7718Z" fill="#FF725C"/>
<path d="M12.6655 33.7436C13.6304 33.2449 14.4908 32.7682 15.1672 32.3653C16.1346 31.7889 16.9564 31.255 17.6512 30.7727L19.6651 36.2568L17.422 38.5L12.6655 33.7436Z" fill="#FF725C"/>
<path d="M23.9429 10.1872C23.0689 9.79402 22.3402 9.05668 21.8626 8.23469C21.6997 7.95432 21.5626 7.65547 21.496 7.33814C21.4294 7.02082 21.4361 6.68308 21.553 6.38058C21.6761 6.06176 21.9223 5.79234 22.2284 5.64066C22.8021 5.35664 23.5259 5.51541 23.9431 5.99623C24.3603 5.51541 25.0841 5.35664 25.6578 5.64066C25.9641 5.79234 26.2101 6.06176 26.3332 6.38058C26.4501 6.68308 26.4568 7.02082 26.3902 7.33814C26.3236 7.65547 26.1865 7.95432 26.0237 8.23469C25.5456 9.05668 24.8167 9.79381 23.9429 10.1872Z" fill="#FF725C"/>
<path d="M8.3498 22.0065C7.7998 21.7568 7.3411 21.2889 7.04075 20.7673C6.93827 20.5894 6.85212 20.3997 6.81001 20.1984C6.7679 19.9971 6.7722 19.7826 6.84589 19.5906C6.92345 19.3882 7.07814 19.2172 7.27085 19.1209C7.63179 18.9407 8.08726 19.0414 8.3498 19.3465C8.61234 19.0414 9.0678 18.9407 9.42874 19.1209C9.62146 19.2172 9.77636 19.3882 9.8537 19.5906C9.92718 19.7824 9.93148 19.9968 9.88958 20.1984C9.84769 20.3999 9.76132 20.5894 9.65884 20.7673C9.35827 21.2889 8.89958 21.7568 8.3498 22.0065Z" fill="#FF725C"/>
<path d="M35.2384 22.5001C34.6884 22.2505 34.2297 21.7826 33.9293 21.2609C33.8269 21.083 33.7407 20.8933 33.6986 20.692C33.6567 20.4907 33.6608 20.2763 33.7345 20.0842C33.812 19.8818 33.9667 19.7108 34.1594 19.6146C34.5204 19.4343 34.9758 19.5351 35.2384 19.8402C35.5009 19.5351 35.9564 19.4343 36.3173 19.6146C36.51 19.7108 36.6649 19.8818 36.7423 20.0842C36.8158 20.2761 36.8201 20.4905 36.7782 20.692C36.7363 20.8935 36.6499 21.083 36.5474 21.2609C36.2471 21.7826 35.7884 22.2505 35.2384 22.5001Z" fill="#FF725C"/>
<path d="M24.1451 37.7599C23.5951 37.5103 23.1364 37.0423 22.8361 36.5207C22.7336 36.3428 22.6474 36.1531 22.6053 35.9518C22.5634 35.7505 22.5675 35.5361 22.6412 35.344C22.7188 35.1416 22.8735 34.9706 23.0662 34.8743C23.4271 34.6941 23.8826 34.7948 24.1451 35.0999C24.4077 34.7948 24.8631 34.6941 25.2241 34.8743C25.4168 34.9706 25.5717 35.1416 25.649 35.344C25.7225 35.5358 25.7268 35.7503 25.6849 35.9518C25.643 36.1533 25.5566 36.3428 25.4542 36.5207C25.1538 37.0423 24.6951 37.5103 24.1451 37.7599Z" fill="#FF725C"/>
</svg>
