<svg width="44" height="44" viewBox="0 0 44 44" fill="none" xmlns="http://www.w3.org/2000/svg">
<g clip-path="url(#clip0_371_3850)">
<path d="M29.4859 3.55387L22.0001 1.80109L14.5144 3.55395C13.3848 3.81847 12.3037 2.96124 12.3037 1.80109C12.3037 0.641015 13.3849 -0.216212 14.5144 0.0482181L22.0001 1.80109L29.4859 0.0482181C30.6154 -0.216298 31.6965 0.640929 31.6965 1.80109C31.6965 2.96116 30.6154 3.81838 29.4859 3.55387Z" fill="#5C576E"/>
<path d="M22.6477 6.00746L22.9713 3.72565L23.7422 2.3522L23.1561 0.798617C22.7542 -0.266836 21.2468 -0.265976 20.846 0.79982L20.2627 2.35073L20.8732 4.15508L21.2658 6.00755L22.6477 6.00746Z" fill="#F1657C"/>
<path d="M17.8801 34.168C19.1659 34.0398 20.5428 33.9631 21.9998 33.9631C25.8855 33.9631 29.1998 34.5083 31.7431 35.1219C32.1403 35.2177 32.4192 35.5738 32.4192 35.9823V39.6154C32.4192 40.1044 32.0229 40.5007 31.5339 40.5007H17.602L16.777 40.3725C16.288 40.3725 11.9846 39.9933 11.9846 39.5044L11.9331 36.0889C11.9331 35.6803 12.0165 35.4982 12.4137 35.4023L17.8801 34.168Z" fill="#F1657C"/>
<path d="M16.8924 39.6154V37.8631C16.8924 36.3169 17.9928 34.9923 19.5116 34.7024C21.036 34.4113 22.7608 34.1706 24.6559 34.0491C23.8038 33.9944 22.9185 33.9631 22 33.9631C18.1144 33.9631 14.8 34.5083 12.2567 35.1219C11.8595 35.2177 11.5806 35.5738 11.5806 35.9824V39.6155C11.5806 40.1045 11.9769 40.5008 12.4659 40.5008H17.7778C17.2889 40.5007 16.8924 40.1044 16.8924 39.6154Z" fill="#E9385A"/>
<path d="M21.9999 2.07959C21.3928 2.07959 20.8093 2.17515 20.2626 2.35064L18.9756 5.77284H25.0326L23.7421 2.3521C23.1939 2.17558 22.6089 2.07959 21.9999 2.07959Z" fill="#E9385A"/>
<path d="M19.4863 40.4203L19.5115 34.7025L18.8738 29.244L17.2865 24.8359L17.7321 12.772L16.8737 10.8748C16.6519 7.59672 18.7186 5.11304 22.004 5.11304L24.6565 5.39414C26.5659 6.40751 27.8196 8.47697 27.6629 10.7949L25.6474 40.591C25.5879 41.4699 25.2212 42.2589 24.6563 42.8559L21.9998 43.7752C20.4371 43.7752 19.4028 42.8451 18.8836 41.4469L19.4863 40.4203Z" fill="#EEECFF"/>
<path d="M23.6643 40.5908L21.6488 10.7947C21.4921 8.4768 22.7466 6.40888 24.6559 5.39551C23.865 4.97571 22.9624 4.7356 22 4.7356C18.7145 4.7356 16.1152 7.51662 16.3369 10.7947L18.3524 40.5908C18.4823 42.5098 20.0767 44 22 44C23.0425 44 23.9876 43.5616 24.6559 42.8552C24.0911 42.2581 23.7238 41.4698 23.6643 40.5908Z" fill="#D4D2FF"/>
<path d="M20.7542 10.4387L21.6994 9.46004C21.7983 9.44998 21.8985 9.44482 22 9.44482C23.6234 9.44482 24.9394 10.7609 24.9394 12.3842C24.9394 14.0076 23.6234 15.3237 22 15.3237C20.3765 15.3237 19.0605 14.0077 19.0605 12.3843L20.7542 10.4387Z" fill="#94DEFF"/>
<path d="M21.9551 15.3228L21.6488 10.7949C21.6179 10.3377 21.6426 9.89048 21.7158 9.45898C20.2258 9.60198 19.0605 10.857 19.0605 12.3845C19.0606 13.9928 20.3525 15.2986 21.9551 15.3228Z" fill="#61CEFF"/>
<path d="M44 21.6026C44 22.0128 43.7192 22.3694 43.3201 22.4641C37.7688 23.7798 30.5146 24.9562 22 24.9562C21.0009 24.9562 19.9654 24.9191 18.8916 24.8472C18.008 24.7881 17.0985 24.7052 16.1618 24.6001C11.8043 24.1109 6.86057 23.1368 1.21731 21.7994C0.817613 21.7047 0.409668 22.0809 0.409668 21.6702L0.861957 14.4659C0.861957 13.9769 0.889887 13.6905 1.37887 13.6905L6.19722 12.3843H43.1148C43.6037 12.3843 44.0001 12.7806 44.0001 13.2696L44 21.6026Z" fill="#F1657C"/>
<path d="M0 13.2696V21.6026C0 22.0134 0.282906 22.37 0.682602 22.4647C8.71845 24.3691 15.833 24.9176 21.3943 24.954C19.4133 24.9058 13.9842 24.3854 9.93833 19.9766C7.30684 17.109 6.4851 13.9305 6.19721 12.3843H0.885328C0.396344 12.3844 0 12.7807 0 13.2696Z" fill="#E9385A"/>
<path d="M17.5265 19.2536C17.5288 18.1038 16.3603 17.1694 14.9165 17.1665C13.4727 17.1636 12.3004 18.0933 12.2981 19.2431C12.2958 20.3929 13.4644 21.3273 14.9082 21.3302C16.352 21.3331 17.5242 20.4033 17.5265 19.2536Z" fill="white"/>
<path d="M31.694 19.2846C31.6963 18.1348 30.5278 17.2004 29.084 17.1975C27.6402 17.1946 26.4679 18.1244 26.4656 19.2741C26.4633 20.4239 27.6319 21.3583 29.0756 21.3612C30.5194 21.3641 31.6917 20.4343 31.694 19.2846Z" fill="white"/>
<path d="M16.4638 18.3656C16.097 18.3656 15.7998 18.0683 15.7998 17.7017V16.6393C15.7998 16.2725 16.0971 15.9753 16.4638 15.9753C16.8305 15.9753 17.1277 16.2726 17.1277 16.6393V17.7017C17.1278 18.0684 16.8305 18.3656 16.4638 18.3656Z" fill="#5C576E"/>
<path d="M27.5214 18.3656C27.1546 18.3656 26.8574 18.0683 26.8574 17.7017V16.6393C26.8574 16.2725 27.1547 15.9753 27.5214 15.9753C27.8881 15.9753 28.1853 16.2726 28.1853 16.6393V17.7017C28.1854 18.0684 27.8882 18.3656 27.5214 18.3656Z" fill="#5C576E"/>
<path d="M25.2322 18.3346C25.2322 19.4071 24.3599 20.2785 23.2883 20.2785C22.7993 20.2785 22.3507 20.0972 22.0087 19.7955C21.6666 20.0972 21.218 20.2785 20.7291 20.2785C19.6574 20.2785 18.7852 19.4071 18.7852 18.3346C18.7852 17.9685 19.0825 17.6711 19.4486 17.6711C19.8155 17.6711 20.1129 17.9685 20.1129 18.3346C20.1129 18.6749 20.3896 18.9508 20.7291 18.9508C21.0685 18.9508 21.3444 18.6749 21.3444 18.3346C21.3444 17.9685 21.6417 17.6711 22.0087 17.6711C22.3756 17.6711 22.6721 17.9685 22.6721 18.3346C22.6721 18.6749 22.9488 18.9508 23.2883 18.9508C23.6277 18.9508 23.9045 18.6749 23.9045 18.3346C23.9045 17.9685 24.2009 17.6711 24.5679 17.6711C24.9348 17.6711 25.2322 17.9685 25.2322 18.3346Z" fill="#5C576E"/>
</g>
<defs>
<clipPath id="clip0_371_3850">
<rect width="44" height="44" fill="white"/>
</clipPath>
</defs>
</svg>
