<svg width="44" height="44" viewBox="0 0 44 44" fill="none" xmlns="http://www.w3.org/2000/svg">
<path d="M5.33027 5.35303H2.5147C1.48182 5.35303 0.644531 6.19032 0.644531 7.2232V20.3318H12.7012L8.91421 8.00145C8.43081 6.42742 6.97692 5.35303 5.33027 5.35303Z" fill="#FBF1CF"/>
<path d="M0.644531 9.86423C2.60202 11.6367 5.8196 13.2963 10.5442 13.3085L8.9143 8.00154C8.43081 6.4275 6.97692 5.35303 5.33036 5.35303H2.5147C1.48182 5.35311 0.644531 6.1904 0.644531 7.22329V9.86423Z" fill="#6A95D6"/>
<path d="M31.4676 12.0314C27.0946 12.0314 0.644531 10.2921 0.644531 20.332C0.644531 30.3718 25.7642 28.6325 31.4676 28.6325C36.0519 28.6325 43.3555 26.8364 43.3555 21.0998C43.3555 15.3631 37.4116 12.0314 31.4676 12.0314Z" fill="#FBF1CF"/>
<path d="M0.644531 20.3319C0.644531 25.7759 8.03052 27.7564 15.7017 28.4289C11.5676 26.291 10.9044 17.0595 12.2064 12.7156C5.9528 13.7008 0.644531 15.8342 0.644531 20.3319Z" fill="#F5E2A2"/>
<path d="M27.7193 22.2568C28.9043 22.2568 29.8649 21.4918 29.8649 20.5482C29.8649 19.6046 28.9043 18.8396 27.7193 18.8396C26.5343 18.8396 25.5737 19.6046 25.5737 20.5482C25.5737 21.4918 26.5343 22.2568 27.7193 22.2568Z" fill="#E7889D"/>
<path d="M39.3492 22.2568C40.5342 22.2568 41.4948 21.4918 41.4948 20.5482C41.4948 19.6046 40.5342 18.8396 39.3492 18.8396C38.1642 18.8396 37.2036 19.6046 37.2036 20.5482C37.2036 21.4918 38.1642 22.2568 39.3492 22.2568Z" fill="#E7889D"/>
<path d="M18.9585 38.6467H17.1052C16.0391 38.6467 15.1748 37.7824 15.1748 36.7163V24.7659C15.1748 23.7028 16.0366 22.8411 17.0996 22.8411H25.6481C26.9701 22.8411 27.8986 24.1432 27.4678 25.3931L24.1843 34.9202C23.4159 37.1501 21.3171 38.6467 18.9585 38.6467Z" fill="#F5E2A2"/>
<path d="M4.89782 30.4449H4.08193C3.188 30.4449 2.46338 29.7203 2.46338 28.8263V22.2174C2.46338 21.2955 3.21078 20.5481 4.13271 20.5481H8.6031C9.6145 20.5481 10.3426 21.5194 10.0588 22.4902L8.52928 27.723C8.05765 29.3361 6.5785 30.4449 4.89782 30.4449Z" fill="#B39BDB"/>
<path d="M24.5405 33.8868C19.8649 34.2483 16.7251 33.106 15.1748 31.1665V36.7163C15.1748 37.7824 16.0391 38.6467 17.1052 38.6467H18.9585C21.3171 38.6467 23.4159 37.1501 24.1844 34.9202L24.5405 33.8868Z" fill="#81DCD9"/>
<path d="M34.2519 18.4539C34.0707 18.6618 33.8092 18.7811 33.5344 18.7811C33.2596 18.7811 32.998 18.6618 32.8168 18.4539C32.5829 18.1855 32.1758 18.1576 31.9074 18.3915C31.6391 18.6254 31.6112 19.0326 31.845 19.3009C32.2712 19.7897 32.8869 20.0701 33.5343 20.0701C34.1818 20.0701 34.7975 19.7897 35.2236 19.3008C35.4575 19.0324 35.4295 18.6253 35.1612 18.3914C34.8929 18.1576 34.4857 18.1856 34.2519 18.4539ZM37.4543 18.0264V18.9035C37.4543 19.2594 37.7429 19.548 38.0988 19.548C38.4548 19.548 38.7434 19.2594 38.7434 18.9035V18.0264C38.7434 17.6704 38.4548 17.3819 38.0988 17.3819C37.7429 17.3819 37.4543 17.6704 37.4543 18.0264ZM17.7465 17.0817V18.8569C17.7465 19.2129 18.0351 19.5014 18.3911 19.5014C18.747 19.5014 19.0356 19.2129 19.0356 18.8569V17.0817C19.0356 16.7257 18.747 16.4372 18.3911 16.4372C18.0351 16.4372 17.7465 16.7257 17.7465 17.0817ZM13.2902 17.0817V18.8569C13.2902 19.2129 13.5788 19.5014 13.9348 19.5014C14.2907 19.5014 14.5793 19.2129 14.5793 18.8569V17.0817C14.5793 16.7257 14.2907 16.4372 13.9348 16.4372C13.5788 16.4372 13.2902 16.7257 13.2902 17.0817ZM40.8593 14.5393C40.5881 14.3087 40.1814 14.3414 39.9508 14.6127C39.7201 14.8838 39.753 15.2906 40.0242 15.5212C41.7819 17.0164 42.7109 18.9453 42.7109 21.0996C42.7109 23.3959 41.4116 25.1919 38.8489 26.4375C36.852 27.4083 34.0926 27.9878 31.4677 27.9878C30.5211 27.9878 29.0412 28.0353 27.2273 28.0695L28.0773 25.6032C28.6519 23.9359 27.418 22.1966 25.6481 22.1966H17.0997C15.6829 22.1966 14.5303 23.3492 14.5303 24.766V27.6667C12.6489 27.4638 10.9482 27.1874 9.45819 26.8421L10.6774 22.6712C11.082 21.287 10.0458 19.9037 8.60312 19.9037H4.13265C2.85682 19.9037 1.81887 20.9417 1.81887 22.2175V22.5167C1.46446 21.8525 1.28906 21.1287 1.28906 20.3318C1.28906 12.1507 21.5169 12.4315 29.6344 12.6398C30.4205 12.6599 31.0414 12.6758 31.4676 12.6758C33.5987 12.6758 35.6834 13.1126 37.4963 13.9389C37.8201 14.0864 38.2024 13.9436 38.35 13.6197C38.4977 13.2958 38.3548 12.9136 38.0309 12.7659C36.0514 11.8637 33.7819 11.3869 31.4676 11.3869C31.058 11.3869 30.4443 11.3711 29.6675 11.3512C23.6984 11.1982 16.7984 11.1862 10.9046 12.2869L9.5303 7.8123C8.96019 5.95579 7.27229 4.7085 5.33027 4.7085H2.5147C1.1281 4.7085 0 5.8366 0 7.2232V20.3318C0 21.9798 0.612305 23.4278 1.81887 24.641V26.9934C1.81887 27.3493 2.10745 27.6379 2.4634 27.6379C2.81935 27.6379 3.10793 27.3493 3.10793 26.9934V22.2175C3.10793 21.6525 3.56761 21.1928 4.13265 21.1928H8.60312C9.185 21.1928 9.60343 21.7507 9.44015 22.3095L7.91063 27.5423C7.52194 28.872 6.28315 29.8005 4.89784 29.8005H4.08195C3.82534 29.8005 3.58308 29.7016 3.39995 29.5219C3.14583 29.2727 2.73763 29.2767 2.48849 29.5308C2.23927 29.7849 2.24323 30.193 2.49734 30.4422C2.92299 30.8596 3.4858 31.0896 4.08195 31.0896H4.89784C6.79009 31.0896 8.48882 29.8611 9.09219 28.0802C10.6874 28.4541 12.5112 28.7503 14.5303 28.9632V36.7164C14.5303 38.1363 15.6854 39.2914 17.1053 39.2914H18.9585C21.591 39.2914 23.936 37.6192 24.7937 35.1304C25.4064 33.3528 26.1693 31.1394 26.7801 29.3668C28.7801 29.3333 30.4607 29.2769 31.4676 29.2769C34.2782 29.2769 37.2482 28.6489 39.4123 27.5969C42.4136 26.138 44 23.8913 44 21.0996C44 18.5556 42.914 16.2871 40.8593 14.5393ZM1.28906 7.2232C1.28906 6.54739 1.83889 5.99756 2.5147 5.99756H5.33027C6.70252 5.99756 7.89525 6.87893 8.29812 8.19077L9.63591 12.5466C9.52789 12.5707 9.41987 12.5946 9.31365 12.6194C5.33955 12.3472 2.78223 10.8553 1.28906 9.57264V7.2232ZM1.28906 11.2114C2.50628 12.0879 4.16874 12.9593 6.35422 13.477C4.48817 14.1464 2.53292 15.1371 1.28906 16.689V11.2114ZM23.5751 34.7102C22.8964 36.6793 21.0413 38.0022 18.9585 38.0022H17.1053C16.3963 38.0022 15.8194 37.4254 15.8194 36.7164V32.6774C17.9389 34.2779 20.9408 34.6763 23.6187 34.5834L23.5751 34.7102ZM26.8586 25.1831L24.0706 33.2726C20.2529 33.4964 17.3445 32.6719 15.8195 30.9322V28.377C15.8195 28.3765 15.8195 28.3759 15.8195 28.3755V24.766C15.8195 24.06 16.3938 23.4857 17.0998 23.4857H25.6482C26.5302 23.4857 27.1449 24.3525 26.8586 25.1831ZM22.2028 17.0817V18.8569C22.2028 19.2129 22.4914 19.5014 22.8473 19.5014C23.2033 19.5014 23.4919 19.2129 23.4919 18.8569V17.0817C23.4919 16.7257 23.2033 16.4372 22.8473 16.4372C22.4914 16.4372 22.2028 16.7257 22.2028 17.0817ZM28.3253 18.0264V18.9035C28.3253 19.2594 28.6138 19.548 28.9698 19.548C29.3257 19.548 29.6143 19.2594 29.6143 18.9035V18.0264C29.6143 17.6704 29.3257 17.3819 28.9698 17.3819C28.6138 17.3819 28.3253 17.6704 28.3253 18.0264Z" fill="black"/>
</svg>
