<svg width="44" height="44" viewBox="0 0 44 44" fill="none" xmlns="http://www.w3.org/2000/svg">
<path d="M41.5511 28.4921C41.0362 27.9771 40.2016 27.9771 39.6866 28.4921L38.6959 29.4828L37.6063 26.8448L39.6873 24.7638C40.2023 24.2488 40.2023 23.4142 39.6873 22.9C39.1724 22.385 38.3377 22.385 37.8235 22.9L36.5166 24.2069L34.3042 18.8547C36.8693 16.2195 38.3927 12.7002 38.5131 8.96227C38.577 6.98777 36.9593 5.37009 34.9841 5.43334C31.2462 5.55365 27.7269 7.07715 25.0917 9.64221L20.6188 7.79352L21.6679 6.7444C22.1829 6.22946 22.1829 5.39484 21.6679 4.88059C21.153 4.36565 20.3184 4.36565 19.8041 4.88059L17.9802 6.70315L15.3422 5.61277L16.0751 4.8799C16.5901 4.36496 16.5901 3.53034 16.0751 3.01609C15.5602 2.50115 14.7256 2.50115 14.2113 3.01609L12.705 4.5224L10.4775 3.60184C9.16437 3.0594 7.65394 3.35984 6.6495 4.36496L5.20025 5.81146L19.0376 17.7066L10.1392 30.1648L5.83138 28.3181C5.24425 28.0665 4.56294 28.1978 4.11125 28.6495L2.0625 30.6983L7.27581 34.1736L6.28306 35.5637C6.00325 35.9556 5.94481 36.3722 6.02869 36.7476C5.5935 37.3326 5.30475 38.0167 5.20094 38.7455C5.92969 38.6416 6.61375 38.3529 7.19881 37.9177C7.57419 38.0016 7.99012 37.9431 8.38269 37.6633L9.77281 36.6706L13.2481 41.8839L15.2962 39.8358C15.7479 39.3842 15.8792 38.7028 15.6276 38.1157L13.7809 33.8078L26.2384 24.9081L38.1336 38.7455L39.5807 37.2983C40.5852 36.2938 40.8863 34.7827 40.3439 33.4703L39.7863 32.1221L41.5511 30.3573C42.0661 29.8416 42.0661 29.007 41.5511 28.4921Z" fill="#F2F2F2"/>
<path d="M40.0744 23.8288C40.0744 24.1725 39.9438 24.5025 39.6894 24.7638L37.6063 26.8469L36.52 24.2069L37.8263 22.9006C38.335 22.385 39.1738 22.385 39.6894 22.9006C39.9438 23.155 40.0744 23.4988 40.0744 23.8288Z" fill="#FF6B4E" stroke="black" stroke-miterlimit="10" stroke-linecap="round" stroke-linejoin="round"/>
<path d="M41.9373 29.425C41.9373 29.7619 41.8136 30.0987 41.5523 30.3531L39.7855 32.12L38.6992 29.48L39.6892 28.49C40.2048 27.9744 41.0367 27.9744 41.5523 28.49C41.8136 28.7512 41.9373 29.0881 41.9373 29.425Z" fill="#FF6B4E" stroke="black" stroke-miterlimit="10" stroke-linecap="round" stroke-linejoin="round"/>
<path d="M21.6699 6.74422L20.618 7.79609L17.9849 6.70297L19.7999 4.88109C20.0611 4.61984 20.398 4.49609 20.7349 4.49609C21.0717 4.49609 21.4086 4.61984 21.6699 4.88109C22.1786 5.39672 22.1786 6.22859 21.6699 6.74422Z" fill="#FF6B4E" stroke="black" stroke-miterlimit="10" stroke-linecap="round" stroke-linejoin="round"/>
<path d="M16.0738 4.88118L15.3451 5.60993L12.7051 4.52368L14.2107 3.01806C14.4651 2.76368 14.8088 2.63306 15.1388 2.63306C15.4826 2.63306 15.8126 2.76368 16.0738 3.01806C16.5895 3.53368 16.5895 4.36556 16.0738 4.88118Z" fill="#FF6B4E" stroke="black" stroke-miterlimit="10" stroke-linecap="round" stroke-linejoin="round"/>
<path d="M25.0937 9.63856C24.4612 10.2504 23.8837 10.9242 23.3612 11.6529L19.7518 16.7129L6.02246 4.99106L6.64809 4.36544C7.65184 3.36169 9.16434 3.05919 10.4775 3.60231L12.705 4.52356L15.345 5.60981L17.985 6.70294L20.6181 7.79606L25.0937 9.63856Z" fill="#4EFEFF" stroke="black" stroke-miterlimit="10" stroke-linecap="round" stroke-linejoin="round"/>
<path d="M19.7516 16.7131L19.0366 17.71L5.19727 5.80934L6.02227 4.99121L19.7516 16.7131Z" fill="#FF6B4E" stroke="black" stroke-miterlimit="10" stroke-linecap="round" stroke-linejoin="round"/>
<path d="M39.5794 37.2969L38.9538 37.9225L27.2319 24.1932L32.2919 20.5838C33.0207 20.0682 33.6876 19.4907 34.3063 18.8582L36.5201 24.2069L37.6063 26.8469L38.6994 29.48L39.7857 32.12L40.3426 33.4675C40.8857 34.7807 40.5832 36.2932 39.5794 37.2969Z" fill="#4EFEFF" stroke="black" stroke-miterlimit="10" stroke-linecap="round" stroke-linejoin="round"/>
<path d="M38.9536 37.9225L38.1355 38.7475L26.2349 24.9081L27.2317 24.1931L38.9536 37.9225Z" fill="#FF6B4E" stroke="black" stroke-miterlimit="10" stroke-linecap="round" stroke-linejoin="round"/>
<path d="M38.5138 8.96491C38.39 12.7049 36.8706 16.2249 34.3063 18.858C33.6875 19.4905 33.0206 20.068 32.2919 20.5837L27.2319 24.193L26.235 24.908L13.7775 33.8043L15.6269 38.1149C15.8813 38.6993 15.7506 39.3799 15.2969 39.8337L13.2481 41.8824L9.76938 36.6712L8.38063 37.6612C7.98875 37.943 7.56938 38.0049 7.19813 37.9224C7.37 37.7918 7.535 37.6543 7.68625 37.503L10.7938 34.3955C11.1375 34.0518 11.1375 33.4949 10.7938 33.1512C10.45 32.8074 9.89313 32.8074 9.54938 33.1512L6.44188 36.2587C6.29063 36.4099 6.15313 36.5749 6.0225 36.7468C5.94 36.3755 6.00188 35.9562 6.28375 35.5643L7.27375 34.1755L2.0625 30.6968L4.11125 28.648C4.565 28.2012 5.24563 28.0637 5.83 28.318L10.1406 30.1674L19.0369 17.7099L19.7519 16.713L23.3613 11.653C23.8838 10.9243 24.4613 10.2505 25.0938 9.63866C27.7269 7.07429 31.2469 5.55491 34.9869 5.43116C36.96 5.36929 38.5756 6.98491 38.5138 8.96491Z" fill="#FFBE4E" stroke="black" stroke-miterlimit="10" stroke-linecap="round" stroke-linejoin="round"/>
<path d="M35.3373 13.5788C34.7007 12.6672 33.9383 11.7548 33.0645 10.881C32.1906 10.0072 31.2776 9.24478 30.3667 8.60815" stroke="black" stroke-miterlimit="10" stroke-linecap="round" stroke-linejoin="round"/>
<path d="M33.5686 14.1053C33.051 13.4343 32.4666 12.7688 31.8217 12.1239C31.1768 11.479 30.5106 10.8946 29.8403 10.377" stroke="black" stroke-miterlimit="10" stroke-linecap="round" stroke-linejoin="round"/>
<path d="M10.7935 34.3955L7.68602 37.503C7.53477 37.6542 7.36977 37.7917 7.19789 37.9224C6.61352 38.3555 5.92602 38.6442 5.19727 38.7474C5.30039 38.0186 5.58914 37.3311 6.02227 36.7467C6.15289 36.5749 6.29039 36.4099 6.44164 36.2586L9.54914 33.1511C9.89289 32.8074 10.4498 32.8074 10.7935 33.1511C11.1373 33.4949 11.1373 34.0517 10.7935 34.3955Z" fill="#FF6B4E" stroke="black" stroke-miterlimit="10" stroke-linecap="round" stroke-linejoin="round"/>
<path d="M33.7313 36.3123L32.4883 37.5553" stroke="black" stroke-miterlimit="10" stroke-linecap="round" stroke-linejoin="round"/>
<path d="M26.837 28.2927L25.5947 29.5357" stroke="black" stroke-miterlimit="10" stroke-linecap="round" stroke-linejoin="round"/>
<path d="M29.1353 30.9663L25.7061 34.3956" stroke="black" stroke-miterlimit="10" stroke-linecap="round" stroke-linejoin="round"/>
<path d="M31.4331 33.6394L29.4346 35.638" stroke="black" stroke-miterlimit="10" stroke-linecap="round" stroke-linejoin="round"/>
<path d="M7.63314 10.2141L6.39014 11.4571" stroke="black" stroke-miterlimit="10" stroke-linecap="round" stroke-linejoin="round"/>
<path d="M15.652 17.1077L14.4097 18.3507" stroke="black" stroke-miterlimit="10" stroke-linecap="round" stroke-linejoin="round"/>
<path d="M12.9791 14.8101L9.5498 18.2393" stroke="black" stroke-miterlimit="10" stroke-linecap="round" stroke-linejoin="round"/>
<path d="M10.3064 12.5125L8.30713 14.511" stroke="black" stroke-miterlimit="10" stroke-linecap="round" stroke-linejoin="round"/>
</svg>
