<svg width="44" height="44" viewBox="0 0 44 44" fill="none" xmlns="http://www.w3.org/2000/svg">
<g clip-path="url(#clip0_371_3891)">
<path d="M23.7036 8.59676C25.1116 8.59676 26.2529 7.45534 26.2529 6.04734C26.2529 4.74349 25.2739 3.66902 24.011 3.51708C23.6435 1.51637 21.8918 0 19.7849 0C17.854 0 16.2206 1.27325 15.6781 3.02586C14.2222 3.11893 13.0698 4.32859 13.0698 5.80809C13.0698 7.34817 14.3183 8.59667 15.8584 8.59667H23.7036V8.59676Z" fill="#A3DEFE"/>
<path d="M39.4248 44.0001C40.8328 44.0001 41.9742 42.8587 41.9742 41.4507C41.9742 40.1468 40.9952 39.0723 39.7322 38.9204C39.3647 36.9197 37.613 35.4033 35.5061 35.4033C33.5752 35.4033 31.9417 36.6766 31.3993 38.4293C29.9434 38.5223 28.791 39.732 28.791 41.2115C28.791 42.7516 30.0395 44.0001 31.5796 44.0001H39.4248Z" fill="#A3DEFE"/>
<path d="M25.8595 13.5153C20.4544 13.5153 15.8984 13.9781 12.1893 14.7925L9.24344 7.35268C8.62452 5.78948 7.11365 4.7627 5.43237 4.7627H2.66552C1.19341 4.7627 0 5.95611 0 7.42822V24.0468C0 29.8631 10.3533 33.3363 25.8595 33.3363C35.8782 33.3363 44 29.8631 44 24.0468C44 18.2304 35.8782 13.5153 25.8595 13.5153Z" fill="#FCF2D0"/>
<path d="M21.7552 13.6111C18.108 13.7854 14.9185 14.1934 12.1893 14.7926L9.24344 7.35268C8.62452 5.78948 7.11365 4.7627 5.43237 4.7627H2.66552C1.19341 4.7627 0 5.95611 0 7.42822V24.0468C0 29.8156 10.1856 33.2787 25.4808 33.335C21.8477 28.2986 20.4547 18.6394 21.7552 13.6111Z" fill="#F6E3A3"/>
<path d="M10.7898 11.2581L9.24344 7.35268C8.62452 5.78948 7.11365 4.7627 5.43237 4.7627H2.66552C1.19341 4.7627 0 5.95611 0 7.42822V24.0468C0 27.1366 2.9217 29.5651 7.9854 31.163C3.15081 21.4735 7.06887 14.7327 10.7898 11.2581Z" fill="#7ACEFA"/>
<path d="M10.0686 9.43649L9.24352 7.35268C8.6246 5.78948 7.11373 4.7627 5.43245 4.7627H2.66552C1.19341 4.7627 0 5.95611 0 7.42822V19.3967C1.50253 15.5273 4.84559 9.79382 10.0686 9.43649Z" fill="#6A96D7"/>
<path d="M22.0005 38.0492C19.8971 38.6594 17.6637 38.6594 15.5603 38.0492C14.8813 37.8523 14.4141 37.2303 14.4141 36.5233V33.3373C14.4141 32.6303 14.8812 32.0083 15.5603 31.8114C17.6637 31.2012 19.8971 31.2012 22.0005 31.8114C22.6795 32.0083 23.1468 32.6303 23.1468 33.3373V36.5233C23.1467 37.2303 22.6795 37.8523 22.0005 38.0492Z" fill="#6A96D7"/>
<path d="M14.5742 41.2878H12.9838C11.8291 41.2878 10.8931 40.3517 10.8931 39.1971V28.1823C10.8931 26.4423 12.3036 25.0317 14.0436 25.0317H19.6718C21.2095 25.0317 22.2778 26.5624 21.7474 28.0058L17.6574 39.1359C17.1824 40.4286 15.9513 41.2878 14.5742 41.2878Z" fill="#FCF2D0"/>
<path d="M13.2136 23.2089C12.3832 23.2089 11.71 22.5357 11.71 21.7052V20.5574C11.71 19.7269 12.3831 19.0537 13.2136 19.0537C14.044 19.0537 14.7173 19.7269 14.7173 20.5574V21.7052C14.7172 22.5356 14.044 23.2089 13.2136 23.2089Z" fill="#7ACEFA"/>
<path d="M19.3962 23.2089C18.5658 23.2089 17.8926 22.5357 17.8926 21.7052V20.5574C17.8926 19.7269 18.5657 19.0537 19.3962 19.0537C20.2266 19.0537 20.8998 19.7269 20.8998 20.5574V21.7052C20.8999 22.5356 20.2266 23.2089 19.3962 23.2089Z" fill="#7ACEFA"/>
<path d="M25.5788 23.2089C24.7484 23.2089 24.0752 22.5357 24.0752 21.7052V20.5574C24.0752 19.7269 24.7483 19.0537 25.5788 19.0537C26.4093 19.0537 27.0825 19.7269 27.0825 20.5574V21.7052C27.0824 22.5356 26.4093 23.2089 25.5788 23.2089Z" fill="#A3DEFE"/>
<path d="M31.5987 23.7165C32.5709 23.7165 33.3591 23.0889 33.3591 22.3147C33.3591 21.5405 32.5709 20.9128 31.5987 20.9128C30.6265 20.9128 29.8384 21.5405 29.8384 22.3147C29.8384 23.0889 30.6265 23.7165 31.5987 23.7165Z" fill="#EDA1AB"/>
<path d="M41.1407 23.7165C42.1129 23.7165 42.9011 23.0889 42.9011 22.3147C42.9011 21.5405 42.1129 20.9128 41.1407 20.9128C40.1685 20.9128 39.3804 21.5405 39.3804 22.3147C39.3804 23.0889 40.1685 23.7165 41.1407 23.7165Z" fill="#EDA1AB"/>
<path d="M32.625 21.5606C32.269 21.5606 31.9805 21.2721 31.9805 20.9161V20.2944C31.9805 19.9385 32.269 19.6499 32.625 19.6499C32.981 19.6499 33.2695 19.9385 33.2695 20.2944V20.9161C33.2695 21.2721 32.981 21.5606 32.625 21.5606Z" fill="#4E5660"/>
<path d="M40.1147 21.5606C39.7587 21.5606 39.4702 21.2721 39.4702 20.9161V20.2944C39.4702 19.9385 39.7587 19.6499 40.1147 19.6499C40.4708 19.6499 40.7593 19.9385 40.7593 20.2944V20.9161C40.7593 21.2721 40.4708 21.5606 40.1147 21.5606Z" fill="#4E5660"/>
<path d="M36.3701 22.0379C35.8054 22.0379 35.2685 21.7934 34.8969 21.367C34.663 21.0987 34.6911 20.6916 34.9594 20.4577C35.2277 20.2239 35.6348 20.2517 35.8688 20.5202C35.9954 20.6655 36.1781 20.7489 36.3701 20.7489C36.5621 20.7489 36.7449 20.6655 36.8716 20.5202C37.1053 20.2518 37.5125 20.2239 37.781 20.4577C38.0493 20.6916 38.0773 21.0987 37.8434 21.367C37.4719 21.7934 36.9348 22.0379 36.3701 22.0379Z" fill="#4E5660"/>
<path d="M12.9837 41.2877H14.5741C15.9513 41.2877 17.1823 40.4286 17.6574 39.1359L19.5907 33.8748C17.1271 35.2303 13.7476 35.7077 10.8931 35.8738V39.197C10.893 40.3517 11.829 41.2877 12.9837 41.2877Z" fill="#A3DEFE"/>
</g>
<defs>
<clipPath id="clip0_371_3891">
<rect width="44" height="44" fill="white"/>
</clipPath>
</defs>
</svg>
