<svg width="44" height="44" viewBox="0 0 44 44" fill="none" xmlns="http://www.w3.org/2000/svg">
<g clip-path="url(#clip0_371_4006)">
<path d="M19.3062 20.2813C12.8772 15.8235 6.98178 15.5343 2.25169 17.909C-0.920001 19.5013 -0.531133 24.1381 2.84965 25.2176C6.65195 26.4318 9.89695 28.5384 12.7191 31.3605L19.3062 20.2813Z" fill="#F7EF87"/>
<path d="M23.7985 24.7734C28.2562 31.2024 28.5455 37.0978 26.1708 41.8279C24.5784 44.9996 19.9417 44.6108 18.8621 41.23C17.648 37.4276 15.5413 34.1826 12.7192 31.3605L23.7985 24.7734Z" fill="#F7EF87"/>
<path d="M43.2764 3.7565L32.8063 14.2265C31.9469 15.0859 30.5537 15.0859 29.6943 14.2265C28.835 13.3671 28.835 11.9739 29.6943 11.1146L40.1644 0.644531C41.0237 -0.214844 42.417 -0.214844 43.2763 0.644531C44.1357 1.50391 44.1357 2.89713 43.2764 3.7565Z" fill="#4E5660"/>
<path d="M39.9367 7.09631C39.4958 6.50369 39.0063 5.94071 38.4687 5.41349C37.9444 4.89924 37.3855 4.43156 36.7981 4.01099L29.6943 11.1148C28.835 11.9741 28.835 13.3673 29.6943 14.2267C30.5537 15.0861 31.9469 15.0861 32.8063 14.2267L39.9367 7.09631Z" fill="#404656"/>
<path d="M23.7985 24.7734L12.7192 31.3605C14.0723 32.7136 15.2604 34.1643 16.2651 35.7267C16.5178 35.7436 16.7734 35.7544 17.0342 35.7544H17.0354C20.067 35.7544 23.611 34.6013 27.3093 32.4929C26.7912 30.043 25.6576 27.4547 23.7985 24.7734Z" fill="#F2D98D"/>
<path d="M19.3064 20.2813C16.6244 18.4217 14.0356 17.2881 11.5852 16.77C10.7595 18.2141 10.0774 19.6364 9.55857 21.0113C8.51993 23.7641 8.22637 26.0062 8.34805 27.8114C9.91237 28.8167 11.3647 30.0059 12.7193 31.3605L19.3064 20.2813Z" fill="#F2D98D"/>
<path d="M12.7191 31.3604C16.5693 35.2106 26.2069 31.8156 35.4977 22.5248C39.348 18.6745 39.348 12.432 35.4977 8.58179C31.6475 4.73153 25.405 4.73153 21.5547 8.58179C12.2639 17.8726 8.86881 27.5101 12.7191 31.3604Z" fill="#E7889D"/>
<path d="M35.5633 8.64818C31.706 4.71877 25.3177 4.79672 21.4354 8.70154C19.3819 10.7671 17.6208 12.8482 16.165 14.878L20.372 15.7568C20.9655 15.8807 21.4261 16.3494 21.5398 16.9449L22.22 20.5076C22.3355 21.1124 22.8084 21.5854 23.4133 21.7009L26.976 22.3811C27.5714 22.4948 28.0401 22.9554 28.1641 23.5489L29.0924 27.993C31.1959 26.4944 33.3559 24.6668 35.4976 22.525C39.326 18.6967 39.3479 12.5034 35.5633 8.64818Z" fill="#908CD6"/>
<path d="M34.5334 23.6942L20.3853 9.54617C19.8527 9.01353 19.8527 8.14994 20.3853 7.61722C24.8108 3.19169 32.0168 3.05333 36.485 7.43572C40.997 11.861 41.0236 19.1328 36.5648 23.5916L36.4622 23.6941C35.9296 24.2269 35.066 24.2269 34.5334 23.6942Z" fill="#A3DEFE"/>
<path d="M29.193 4.23955C26.0266 4.07051 22.7941 5.20875 20.3853 7.61749C19.8527 8.15013 19.8527 9.01372 20.3853 9.54645L29.3599 18.521C26.9313 14.6721 26.8029 6.64365 29.193 4.23955Z" fill="#7ACEFA"/>
<path d="M26.9333 10.8586C27.7414 10.0505 27.5739 8.57277 26.5591 7.55801C25.5444 6.54326 24.0667 6.37572 23.2586 7.1838C22.4505 7.99189 22.618 9.46959 23.6328 10.4843C24.6475 11.4991 26.1252 11.6666 26.9333 10.8586Z" fill="white"/>
<path d="M36.8918 20.819C37.6999 20.0109 37.5324 18.5332 36.5176 17.5185C35.5029 16.5037 34.0252 16.3362 33.2171 17.1443C32.409 17.9523 32.5765 19.43 33.5913 20.4448C34.606 21.4596 36.0837 21.6271 36.8918 20.819Z" fill="white"/>
<path d="M27.5792 9.32623C27.4142 9.32623 27.2492 9.26332 27.1233 9.13742C26.8716 8.88571 26.8716 8.4776 27.1234 8.22597L27.8747 7.4747C28.1264 7.22291 28.5345 7.22299 28.7861 7.4747C29.0379 7.72641 29.0379 8.13453 28.7861 8.38616L28.0348 9.13742C27.9091 9.26324 27.7441 9.32623 27.5792 9.32623Z" fill="#4E5660"/>
<path d="M35.398 17.145C35.2331 17.145 35.0681 17.0821 34.9422 16.9562C34.6905 16.7044 34.6905 16.2963 34.9422 16.0447L35.6934 15.2935C35.9452 15.0418 36.3532 15.0418 36.6049 15.2935C36.8566 15.5452 36.8566 15.9533 36.6049 16.205L35.8537 16.9562C35.7279 17.082 35.5629 17.145 35.398 17.145Z" fill="#4E5660"/>
<path d="M32.4082 14.2484C31.7264 14.2484 31.0703 13.9787 30.5855 13.494C30.0589 12.9672 29.786 12.2382 29.8371 11.4938C29.8615 11.1387 30.1691 10.8698 30.5243 10.8949C30.8794 10.9194 31.1475 11.2269 31.1232 11.5821C31.0976 11.9547 31.2339 12.3194 31.4971 12.5825C31.7602 12.8456 32.1245 12.982 32.4974 12.9563C32.8517 12.9331 33.1603 13.2 33.1846 13.5551C33.209 13.9102 32.9409 14.2179 32.5857 14.2424C32.5264 14.2463 32.4673 14.2484 32.4082 14.2484Z" fill="#4E5660"/>
<path d="M17.131 23.7426L9.90305 30.9706C9.15797 31.7157 9.15797 32.9237 9.90305 33.6688L10.4108 34.1765C11.1558 34.9216 12.3639 34.9216 13.1089 34.1765L20.3369 26.9485C21.082 26.2035 21.082 24.9954 20.3369 24.2504L19.8292 23.7426C19.0841 22.9976 17.8761 22.9976 17.131 23.7426Z" fill="#F7EF87"/>
</g>
<defs>
<clipPath id="clip0_371_4006">
<rect width="44" height="44" fill="white"/>
</clipPath>
</defs>
</svg>
