<svg width="44" height="44" viewBox="0 0 44 44" fill="none" xmlns="http://www.w3.org/2000/svg">
<g clip-path="url(#clip0_371_3978)">
<path d="M40.8642 11.3302L12.9244 36.7825L7.21777 31.0759L32.6701 3.13608C34.9749 0.605904 38.8278 -0.0248778 42.4685 1.53179C44.0252 5.17262 43.3944 9.02537 40.8642 11.3302Z" fill="#FCC24C"/>
<path d="M38.8248 10.5452L33.4546 5.17498C34.8002 3.82937 36.982 3.82937 38.3276 5.17498L38.8248 5.67221C40.1704 7.01799 40.1704 9.1996 38.8248 10.5452Z" fill="#F4EFED"/>
<path d="M37.2681 22.2017L32.1948 27.2749L29.6475 24.7276L34.7207 19.6543C35.0564 19.3187 35.6004 19.3187 35.936 19.6543L37.2681 20.9864C37.6037 21.3219 37.6037 21.866 37.2681 22.2017Z" fill="#526FAA"/>
<path d="M40.7026 29.0704L35.6294 34.1436L33.082 31.5962L38.1553 26.523C38.4909 26.1873 39.0349 26.1873 39.3706 26.523L40.7026 27.855C41.0383 28.1907 41.0383 28.7349 40.7026 29.0704Z" fill="#526FAA"/>
<path d="M32.1948 27.6185C32.1068 27.6185 32.0188 27.585 31.9517 27.5178L29.4044 24.9704C29.2702 24.8362 29.2702 24.6186 29.4044 24.4843L34.4778 19.4109C34.705 19.1837 35.0072 19.0586 35.3284 19.0586C35.6496 19.0586 35.952 19.1837 36.1792 19.4109L37.5112 20.743C37.7384 20.9702 37.8636 21.2723 37.8636 21.5938C37.8636 21.9152 37.7384 22.2171 37.5112 22.4444L32.4378 27.5178C32.3708 27.585 32.2828 27.6185 32.1948 27.6185ZM30.1337 24.7274L32.1948 26.7885L37.0252 21.9583C37.1224 21.861 37.1761 21.7316 37.1761 21.5938C37.1761 21.4559 37.1224 21.3265 37.0252 21.229L35.6931 19.897C35.4982 19.7023 35.1588 19.7023 34.964 19.897L30.1337 24.7274Z" fill="#690589"/>
<path d="M35.6293 34.4871C35.5413 34.4871 35.4533 34.4536 35.3863 34.3864L32.839 31.8391C32.7047 31.7048 32.7047 31.4872 32.839 31.353L37.9122 26.2798C38.3812 25.8107 39.1445 25.8107 39.6136 26.2798L40.9456 27.6118C41.4147 28.0808 41.4147 28.8441 40.9456 29.3132L35.8724 34.3864C35.8053 34.4536 35.7173 34.4871 35.6293 34.4871ZM33.5682 31.5962L35.6293 33.6573L40.4596 28.8271C40.6605 28.626 40.6605 28.299 40.4596 28.0979L39.1275 26.7658C38.9264 26.5647 38.5993 26.5647 38.3983 26.7658L33.5682 31.5962Z" fill="#690589"/>
<path d="M32.2411 19.1853L25.042 25.7434L36.4091 40.604L40.2746 36.7386L32.2411 19.1853Z" fill="#FF4397"/>
<path d="M42.7307 2.2063C43.2675 5.15378 42.4291 8.02375 40.3693 9.90303L11.9634 35.8214L12.9242 36.7822L40.864 11.3301C43.2383 9.16724 43.9399 5.64105 42.7307 2.2063Z" fill="#DEA42E"/>
<path d="M41.7937 1.26939C38.8462 0.732623 35.9762 1.57103 34.097 3.63078L8.17855 32.0367L7.21777 31.076L32.6699 3.13612C34.8328 0.761841 38.3589 0.0602476 41.7937 1.26939Z" fill="#FCE06A"/>
<path d="M12.9243 37.126C12.8361 37.126 12.7481 37.0923 12.6811 37.0253L6.97469 31.3189C6.84492 31.1891 6.83994 30.9801 6.96369 30.8443L32.4156 2.90451C34.8231 0.261762 38.8219 -0.40116 42.6032 1.21567C42.6846 1.25039 42.7494 1.31518 42.7842 1.39665C44.401 5.1779 43.7382 9.17675 41.0953 11.5842L13.1557 37.0365C13.09 37.0963 13.007 37.126 12.9243 37.126ZM7.69278 31.0647L12.9353 36.3072L40.6325 11.0761C43.0265 8.89539 43.6375 5.26453 42.2056 1.79437C38.7355 0.36248 35.1048 0.973668 32.9239 3.36754L7.69278 31.0647Z" fill="#690589"/>
<path d="M24.3457 9.27917L19.2725 14.3524L16.7251 11.8052L21.7983 6.73198C22.134 6.39631 22.678 6.39631 23.0137 6.73198L24.3457 8.06401C24.6814 8.39951 24.6814 8.94367 24.3457 9.27917Z" fill="#526FAA"/>
<path d="M17.477 5.84501L12.4038 10.9182L9.85645 8.37089L14.9297 3.29765C15.2654 2.96198 15.8093 2.96198 16.145 3.29765L17.477 4.62968C17.8125 4.96518 17.8125 5.50934 17.477 5.84501Z" fill="#526FAA"/>
<path d="M19.2724 14.6963C19.1844 14.6963 19.0964 14.6628 19.0294 14.5956L16.482 12.0482C16.3478 11.914 16.3478 11.6964 16.482 11.5622L21.5554 6.48875C22.0245 6.0197 22.7879 6.0197 23.2568 6.48875L24.5889 7.82078C24.8161 8.048 24.9412 8.35015 24.9412 8.67156C24.9412 8.99297 24.8161 9.29495 24.5889 9.52217L19.5154 14.5956C19.4484 14.6628 19.3604 14.6963 19.2724 14.6963ZM17.2113 11.8052L19.2724 13.8663L24.1028 9.03611C24.2001 8.93883 24.2537 8.8094 24.2537 8.67156C24.2537 8.53372 24.2001 8.4043 24.1028 8.30684L22.7708 6.97481C22.5695 6.77372 22.2424 6.77389 22.0415 6.97481L17.2113 11.8052Z" fill="#690589"/>
<path d="M12.4036 11.262C12.3156 11.262 12.2276 11.2285 12.1606 11.1613L9.61337 8.61396C9.47914 8.47973 9.47914 8.26214 9.61337 8.1279L14.6866 3.05467C15.1557 2.58562 15.9189 2.58562 16.388 3.05467L17.72 4.3867C18.1891 4.85574 18.1891 5.61904 17.72 6.08809L12.6468 11.1613C12.5796 11.2285 12.4916 11.262 12.4036 11.262ZM10.3425 8.37093L12.4036 10.4321L17.2338 5.60185C17.4347 5.40076 17.4347 5.07368 17.2338 4.87259L15.9018 3.54056C15.7007 3.33946 15.3736 3.33946 15.1725 3.54056L10.3425 8.37093Z" fill="#690589"/>
<path d="M24.8147 11.7588L7.26164 3.72534L3.396 7.59081L18.2567 18.9579L24.8147 11.7588Z" fill="#FF4397"/>
<path d="M8.9094 4.47953L4.75707 8.63186L3.396 7.59081L7.26164 3.72534L8.9094 4.47953Z" fill="#FF61B5"/>
<path d="M39.5205 35.0906L35.3682 39.2429L36.4092 40.604L40.2747 36.7385L39.5205 35.0906Z" fill="#E12579"/>
<path d="M18.2564 19.3017C18.1833 19.3017 18.1098 19.2785 18.0477 19.2309L3.18706 7.86378C3.10834 7.80362 3.05953 7.71236 3.05299 7.61353C3.04646 7.5147 3.0829 7.41776 3.15303 7.34781L7.01849 3.48234C7.12007 3.38076 7.2739 3.35292 7.4047 3.4129L24.9578 11.4465C25.0576 11.4922 25.1297 11.5826 25.1515 11.6902C25.1735 11.7977 25.1427 11.9092 25.0688 11.9905L18.5107 19.1897C18.4432 19.2636 18.35 19.3017 18.2564 19.3017ZM3.91667 7.55629L18.2148 18.4932L24.2435 11.8753L7.3356 4.13736L3.91667 7.55629Z" fill="#690589"/>
<path d="M36.4091 40.9479C36.4015 40.9479 36.3939 40.9477 36.3864 40.9472C36.2875 40.9407 36.1963 40.8917 36.1361 40.8132L24.769 25.9527C24.6605 25.8109 24.6786 25.6098 24.8106 25.4897L32.0097 18.9316C32.0909 18.8575 32.2026 18.8266 32.31 18.8489C32.4176 18.8707 32.5082 18.9428 32.5537 19.0426L40.5873 36.5957C40.6472 36.7263 40.6195 36.8803 40.5179 36.9819L36.6524 40.8474C36.5875 40.9118 36.5 40.9479 36.4091 40.9479ZM25.5065 25.7853L36.4434 40.0834L39.8625 36.6643L32.1244 19.7564L25.5065 25.7853Z" fill="#690589"/>
<path d="M3.45709 26.7336L0.6875 29.5032C6.78803 32.3153 11.6848 37.212 14.4968 43.3125L17.2664 40.5429L13.0548 30.9453L3.45709 26.7336Z" fill="#FF4397"/>
<path d="M16.6802 39.2073L13.8618 42.0257C14.0834 42.4485 14.296 42.877 14.4967 43.3123L17.2663 40.5427L16.6802 39.2073Z" fill="#E12579"/>
<path d="M4.79256 27.3197L1.97416 30.1381C1.55134 29.9164 1.12286 29.704 0.6875 29.5032L3.45709 26.7336L4.79256 27.3197Z" fill="#FF61B5"/>
<path d="M14.4967 43.6562C14.4765 43.6562 14.4564 43.6545 14.4362 43.6509C14.3255 43.6311 14.2315 43.5584 14.1844 43.4565C11.4089 37.4352 6.56445 32.5909 0.543501 29.8155C0.441408 29.7684 0.368705 29.6744 0.349111 29.5637C0.329345 29.453 0.364923 29.3397 0.444501 29.2601L3.21392 26.4906C3.31395 26.3904 3.4652 26.362 3.59514 26.4189L13.1928 30.6305C13.2717 30.6652 13.3348 30.7281 13.3695 30.8072L17.5811 40.4049C17.638 40.5346 17.6097 40.6859 17.5095 40.7861L14.7399 43.5557C14.6747 43.6205 14.5871 43.6562 14.4967 43.6562ZM1.27603 29.4007C7.09142 32.2042 11.7956 36.9084 14.5991 42.7238L16.8572 40.4659L12.7937 31.2061L3.53395 27.1427L1.27603 29.4007Z" fill="#690589"/>
<path d="M38.8248 10.889C38.7337 10.889 38.6462 10.8528 38.5818 10.7883L33.2116 5.41806C33.1471 5.35361 33.1108 5.26613 33.1108 5.17503C33.1108 5.08394 33.1471 4.99646 33.2116 4.932C34.689 3.45439 37.0932 3.45422 38.5706 4.932L39.0679 5.42924C40.5453 6.90667 40.5453 9.31069 39.0679 10.7883C39.0034 10.8529 38.9159 10.889 38.8248 10.889ZM33.9541 5.18844L38.8114 10.0458C39.7856 8.82892 39.7091 7.04263 38.5818 5.9153L38.0846 5.41806C36.9571 4.29091 35.1708 4.21442 33.9541 5.18844Z" fill="#690589"/>
<path d="M28.2754 10.3758C28.1927 10.3758 28.1097 10.3461 28.0437 10.2861C27.9034 10.158 27.8935 9.94061 28.0215 9.80036L29.3859 8.30504C29.5139 8.16497 29.7312 8.155 29.8716 8.28287C30.0118 8.41092 30.0218 8.62834 29.8938 8.76859L28.5294 10.2639C28.4615 10.338 28.3685 10.3758 28.2754 10.3758Z" fill="#690589"/>
</g>
<defs>
<clipPath id="clip0_371_3978">
<rect width="44" height="44" fill="white"/>
</clipPath>
</defs>
</svg>
