<svg width="44" height="44" viewBox="0 0 44 44" fill="none" xmlns="http://www.w3.org/2000/svg">
<g clip-path="url(#clip0_369_2127)">
<path d="M31.3484 27.8118C31.3484 36.2668 24.4941 43.1216 16.0387 43.1216C7.58334 43.1216 0.729004 36.2668 0.729004 27.8118C0.729004 19.3565 7.58334 12.5017 16.0387 12.5017C24.4941 12.5017 31.3484 19.3565 31.3484 27.8118Z" fill="#FFF35F"/>
<path d="M31.3486 27.8119H32.0778C32.0774 18.9531 24.8969 11.7734 16.0389 11.7729C7.18097 11.7734 0.000417159 18.9531 0 27.8119C0.000417159 36.6702 7.18055 43.8499 16.0389 43.8504C24.8969 43.8499 32.077 36.6702 32.0778 27.8119H30.6194C30.619 31.8404 28.9888 35.4809 26.349 38.1215C23.708 40.7613 20.0674 42.392 16.0389 42.3924C12.01 42.392 8.36987 40.7617 5.72884 38.1215C3.08906 35.4809 1.45839 31.8399 1.45797 27.8119C1.45839 23.7829 3.08906 20.1424 5.72884 17.5014C8.36987 14.8616 12.0104 13.2313 16.0389 13.2309C20.0674 13.2313 23.708 14.8616 26.349 17.5014C28.9888 20.1424 30.619 23.7829 30.6194 27.8119H31.3486Z" fill="#54596E"/>
<path d="M11.7546 29.0809C12.7133 30.1229 14.2805 30.7216 16.0389 30.7278C17.7801 30.722 19.3327 30.1342 20.2943 29.1126C20.5684 28.8172 20.5513 28.3563 20.2563 28.0822C19.9614 27.8081 19.5 27.8248 19.226 28.1201C18.6453 28.7576 17.4414 29.2757 16.0384 29.2698C14.6218 29.2761 13.4078 28.7467 12.8343 28.101C12.5635 27.8031 12.1026 27.7806 11.8047 28.0513C11.5064 28.3216 11.4839 28.783 11.7546 29.0809Z" fill="#54596E"/>
<path d="M10.9355 21.2504C10.9355 22.0556 10.283 22.7084 9.4775 22.7084C8.67238 22.7084 8.01953 22.0556 8.01953 21.2504C8.01953 20.4453 8.67238 19.7925 9.4775 19.7925C10.283 19.7925 10.9355 20.4453 10.9355 21.2504Z" fill="#54596E"/>
<path d="M24.0584 21.2504C24.0584 22.0556 23.4056 22.7084 22.6001 22.7084C21.7949 22.7084 21.1421 22.0556 21.1421 21.2504C21.1421 20.4453 21.7949 19.7925 22.6001 19.7925C23.4056 19.7925 24.0584 20.4453 24.0584 21.2504Z" fill="#54596E"/>
<path d="M24.0584 25.6246C24.0584 26.4298 23.4056 27.0826 22.6001 27.0826C21.7949 27.0826 21.1421 26.4298 21.1421 25.6246C21.1421 24.8191 21.7949 24.1663 22.6001 24.1663C23.4056 24.1663 24.0584 24.8191 24.0584 25.6246Z" fill="#FF927D"/>
<path d="M10.9355 25.6246C10.9355 26.4298 10.283 27.0826 9.4775 27.0826C8.67238 27.0826 8.01953 26.4298 8.01953 25.6246C8.01953 24.8191 8.67238 24.1663 9.4775 24.1663C10.283 24.1663 10.9355 24.8191 10.9355 25.6246Z" fill="#FF927D"/>
<path d="M34.2645 13.9601C34.2645 15.1678 33.2855 16.1473 32.0778 16.1473C30.8697 16.1473 29.8906 15.1678 29.8906 13.9601C29.8906 12.752 30.8697 11.7729 32.0778 11.7729C33.2855 11.7729 34.2645 12.752 34.2645 13.9601Z" fill="#9AF43B"/>
<path d="M34.2647 13.9601H34.9939C34.9935 12.349 33.689 11.0441 32.078 11.0437C30.4665 11.0441 29.162 12.349 29.1616 13.9601C29.162 15.5707 30.4665 16.8756 32.078 16.876C33.6886 16.8756 34.9935 15.5707 34.9939 13.9601H33.5359C33.5343 14.7648 32.8831 15.4164 32.078 15.418C31.2724 15.4164 30.6213 14.7648 30.6196 13.9601C30.6213 13.1549 31.2724 12.5033 32.078 12.5017C32.8831 12.5033 33.5343 13.1549 33.5359 13.9601H34.2647Z" fill="#54596E"/>
<path d="M38.1613 11.4981C37.188 9.0936 34.8303 7.39952 32.0778 7.39868C29.3605 7.39952 27.0269 9.05021 26.0324 11.4059C25.8755 11.7768 26.0491 12.2048 26.4199 12.3616C26.7908 12.5181 27.2188 12.3445 27.3752 11.9737C28.1503 10.1419 29.9633 8.85582 32.0778 8.85623C34.2191 8.8554 36.0517 10.1757 36.8097 12.045C36.9611 12.4184 37.3858 12.5986 37.7591 12.4471C38.1325 12.2965 38.3123 11.8715 38.1613 11.4981Z" fill="#54596E"/>
<path d="M40.765 9.43762C39.3037 6.09117 35.9626 3.75425 32.0776 3.75342C28.1931 3.75425 24.852 6.09076 23.3899 9.43637C23.2285 9.80514 23.397 10.2352 23.7658 10.3971C24.1349 10.5581 24.5646 10.39 24.7261 10.0212C25.965 7.18997 28.79 5.21055 32.0776 5.21139C35.3661 5.21055 38.1907 7.18997 39.4292 10.0216C39.5903 10.39 40.0199 10.5585 40.3891 10.3975C40.7579 10.2365 40.926 9.80639 40.765 9.43762Z" fill="#54596E"/>
<path d="M43.8922 6.72495C41.4581 2.75694 37.0754 0.108398 32.0779 0.108398C26.7174 0.108816 22.0652 3.15449 19.7646 7.60974C19.5798 7.96725 19.7199 8.40693 20.0779 8.59215C20.4354 8.77695 20.8755 8.63637 21.0603 8.27887C23.121 4.29125 27.2797 1.56595 32.0779 1.56637C36.5515 1.56637 40.4673 3.93458 42.6495 7.48752C42.8602 7.83084 43.309 7.93805 43.6523 7.7278C43.9952 7.51714 44.1029 7.06827 43.8922 6.72495Z" fill="#54596E"/>
</g>
<defs>
<clipPath id="clip0_369_2127">
<rect width="44" height="44" fill="white"/>
</clipPath>
</defs>
</svg>
