<svg width="44" height="44" viewBox="0 0 44 44" fill="none" xmlns="http://www.w3.org/2000/svg">
<path d="M31.213 43.9999H12.787C9.78537 43.9999 7.35205 41.5666 7.35205 38.5651V32.1676C7.35205 29.166 9.78537 26.7327 12.787 26.7327H31.213C34.2147 26.7327 36.6479 29.166 36.6479 32.1676V38.5651C36.6479 41.5666 34.2147 43.9999 31.213 43.9999Z" fill="#FCF2D0"/>
<path d="M12.787 26.7327C9.78537 26.7327 7.35205 29.166 7.35205 32.1676V38.5651C7.35205 41.5667 9.78537 44 12.787 44H17.9839C13.8909 40.667 13.8416 30.6142 15.04 26.7328H12.787V26.7327Z" fill="#F6E3A3"/>
<path d="M22 31.7612C24.9787 31.7612 27.3935 29.3464 27.3935 26.3676C27.3935 23.3889 24.9787 20.9741 22 20.9741C19.0212 20.9741 16.6064 23.3889 16.6064 26.3676C16.6064 29.3464 19.0212 31.7612 22 31.7612Z" fill="#A3DEFE"/>
<path d="M26.8898 28.6436C20.8377 29.7025 17.8549 24.8907 19.1101 21.8147C17.6056 22.7717 16.6064 24.4525 16.6064 26.3677C16.6064 29.3464 19.0212 31.7612 22 31.7612C24.1652 31.7612 26.0315 30.4847 26.8898 28.6436Z" fill="#7ACEFA"/>
<path d="M38.5468 12.7984C37.7846 12.7984 37.0228 12.5078 36.4412 11.9261C32.591 8.07572 27.4622 5.95521 21.9999 5.95521C16.5374 5.95521 11.4087 8.07572 7.55831 11.9261C6.39541 13.0891 4.50994 13.0891 3.34729 11.9263C2.18447 10.7634 2.1843 8.87803 3.3472 7.71521C8.32238 2.74003 14.9466 0 21.9999 0C29.0529 0 35.6771 2.74003 40.6523 7.71521C41.8151 8.87803 41.8151 10.7635 40.6522 11.9263C40.071 12.5077 39.3088 12.7984 38.5468 12.7984Z" fill="#A3DEFE"/>
<path d="M38.5468 12.7984C37.7846 12.7984 37.0228 12.5078 36.4412 11.9261C32.591 8.07572 27.4622 5.95521 21.9999 5.95521C16.5374 5.95521 11.4087 8.07572 7.55831 11.9261C6.39541 13.0891 4.50994 13.0891 3.34729 11.9263C2.18447 10.7634 2.1843 8.87803 3.3472 7.71521C8.32238 2.74003 14.9466 0 21.9999 0C29.0529 0 35.6771 2.74003 40.6523 7.71521C41.8151 8.87803 41.8151 10.7635 40.6522 11.9263C40.071 12.5077 39.3088 12.7984 38.5468 12.7984Z" fill="#8EAFE2"/>
<path d="M14.2705 1.14209C10.1863 2.38457 6.4469 4.61603 3.34765 7.71528C2.18483 8.8781 2.18491 10.7636 3.34782 11.9264C4.51038 13.0893 6.39594 13.0891 7.55884 11.9262C9.86558 9.61948 12.6315 7.93442 15.6527 6.95336C14.4667 5.5964 13.6349 2.88731 14.2705 1.14209Z" fill="#6A96D7"/>
<path d="M31.5285 19.8168C30.7665 19.8168 30.0044 19.5261 29.4229 18.9447C25.3301 14.8516 18.6697 14.8516 14.5768 18.9447C13.4139 20.1075 11.5285 20.1075 10.3657 18.9447C9.20297 17.7818 9.20297 15.8964 10.3657 14.7336C13.4734 11.6261 17.6052 9.91455 21.9999 9.91455C26.3947 9.91455 30.5265 11.626 33.6341 14.7336C34.7969 15.8964 34.7969 17.7819 33.6341 18.9447C33.0526 19.5261 32.2905 19.8168 31.5285 19.8168Z" fill="#7CDDC5"/>
<path d="M19.0505 10.1775C15.7785 10.7664 12.7664 12.333 10.3657 14.7335C9.20297 15.8964 9.20297 17.7818 10.3657 18.9446C11.5286 20.1075 13.414 20.1075 14.5768 18.9446C16.2891 17.2322 18.4511 16.239 20.6862 15.9594C18.6514 14.8592 18.2621 11.9103 19.0505 10.1775Z" fill="#6FCE91"/>
<path d="M7.46387 39.6667C7.97313 42.1401 10.1627 43.9999 12.7868 43.9999H31.2129C33.837 43.9999 36.0266 42.1401 36.5358 39.6667H7.46387Z" fill="#8EAFE2"/>
<path d="M12.7868 43.9999H17.9837C16.7852 43.0239 15.9334 41.4716 15.3582 39.6667H7.46387C7.97313 42.1401 10.1627 43.9999 12.7868 43.9999Z" fill="#6A96D7"/>
<path d="M15.7404 39.1044C17.016 39.1044 18.0501 38.2809 18.0501 37.2651C18.0501 36.2493 17.016 35.4258 15.7404 35.4258C14.4648 35.4258 13.4307 36.2493 13.4307 37.2651C13.4307 38.2809 14.4648 39.1044 15.7404 39.1044Z" fill="#EDA1AB"/>
<path d="M28.2599 39.1044C29.5356 39.1044 30.5697 38.2809 30.5697 37.2651C30.5697 36.2493 29.5356 35.4258 28.2599 35.4258C26.9843 35.4258 25.9502 36.2493 25.9502 37.2651C25.9502 38.2809 26.9843 39.1044 28.2599 39.1044Z" fill="#EDA1AB"/>
<path d="M18.1856 35.908C17.8297 35.908 17.5411 35.6194 17.5411 35.2635C17.5411 35.0126 17.3371 34.8086 17.0862 34.8086C16.8354 34.8086 16.6313 35.0126 16.6313 35.2635C16.6313 35.6194 16.3428 35.908 15.9868 35.908C15.6309 35.908 15.3423 35.6194 15.3423 35.2635C15.3423 34.3018 16.1246 33.5195 17.0862 33.5195C18.0478 33.5195 18.8301 34.3018 18.8301 35.2635C18.8301 35.6194 18.5416 35.908 18.1856 35.908Z" fill="#4E5660"/>
<path d="M28.0128 35.908C27.6568 35.908 27.3682 35.6194 27.3682 35.2635C27.3682 35.0126 27.1642 34.8086 26.9134 34.8086C26.6626 34.8086 26.4585 35.0126 26.4585 35.2635C26.4585 35.6194 26.1699 35.908 25.814 35.908C25.458 35.908 25.1694 35.6194 25.1694 35.2635C25.1694 34.3018 25.9518 33.5195 26.9134 33.5195C27.875 33.5195 28.6573 34.3018 28.6573 35.2635C28.6573 35.6194 28.3687 35.908 28.0128 35.908Z" fill="#4E5660"/>
<path d="M21.9996 37.7242C21.3664 37.7242 20.7642 37.45 20.3476 36.9718C20.1137 36.7035 20.1417 36.2964 20.4101 36.0625C20.6784 35.8286 21.0855 35.8565 21.3194 36.1249C21.4912 36.3221 21.7392 36.4351 21.9997 36.4351C22.2603 36.4351 22.5082 36.322 22.6799 36.1249C22.9138 35.8565 23.321 35.8286 23.5893 36.0625C23.8577 36.2963 23.8856 36.7035 23.6518 36.9718C23.2351 37.45 22.6329 37.7242 21.9996 37.7242Z" fill="#4E5660"/>
</svg>
