<svg width="44" height="44" viewBox="0 0 44 44" fill="none" xmlns="http://www.w3.org/2000/svg">
<path d="M8.12256 36.2086C8.12256 33.9164 8.30145 32.6323 9.84382 29.9282H36.7325L37.5962 36.2086L36.7325 42.4889H9.84382C8.30145 39.7849 8.12256 38.5008 8.12256 36.2086Z" fill="url(#paint0_linear_369_2309)"/>
<path d="M39.5879 42.4891H36.7329V29.9285H39.5879C42.0247 29.9285 44.0002 31.9039 44.0002 34.3407V38.0768C44.0002 40.5136 42.0247 42.4891 39.5879 42.4891Z" fill="url(#paint1_linear_369_2309)"/>
<path d="M2.2207 36.2086C2.2207 34.8676 2.42712 33.9448 3.00981 32.4149C4.68865 30.8218 6.91547 29.9282 9.2359 29.9282H9.84401C10.3804 31.7711 10.6894 33.9164 10.6894 36.2086C10.6894 38.5007 10.3805 40.6461 9.84401 42.4889H9.2359C6.91547 42.4889 4.68865 41.5953 3.00981 40.0022C2.42703 38.4724 2.2207 37.5496 2.2207 36.2086Z" fill="url(#paint2_linear_369_2309)"/>
<path d="M2.83826 32.5783L0.56008 34.8566C-0.186693 35.6034 -0.186693 36.8141 0.56008 37.5608L2.83826 39.839C2.89427 39.895 2.95256 39.948 3.00988 40.0023C3.24233 38.829 3.37152 37.5497 3.37152 36.2087C3.37152 34.8677 3.24233 33.5884 3.00988 32.415C2.95256 32.4695 2.89427 32.5224 2.83826 32.5783Z" fill="url(#paint3_linear_369_2309)"/>
<path d="M24.1888 30.7758C23.5239 31.0866 22.7824 31.2605 21.9999 31.2605V29.9282H14.7041C16.0901 32.5428 18.8402 34.3282 21.9999 34.3282C23.2379 34.3282 24.4128 34.0538 25.4674 33.5629C26.3603 33.1472 26.6345 32.0087 26.0281 31.2325C25.5929 30.6754 24.8291 30.4765 24.1888 30.7758Z" fill="#FDC515"/>
<path d="M22.0001 31.2607C24.8633 31.2607 27.1843 28.9397 27.1843 26.0765C27.1843 23.2134 24.8633 20.8923 22.0001 20.8923C19.137 20.8923 16.8159 23.2134 16.8159 26.0765C16.8159 28.9397 19.137 31.2607 22.0001 31.2607Z" fill="url(#paint4_linear_369_2309)"/>
<path d="M22.0001 31.2607C24.8633 31.2607 27.1843 28.9397 27.1843 26.0765C27.1843 23.2134 24.8633 20.8923 22.0001 20.8923C19.137 20.8923 16.8159 23.2134 16.8159 26.0765C16.8159 28.9397 19.137 31.2607 22.0001 31.2607Z" fill="url(#paint5_linear_369_2309)"/>
<path d="M36.7549 13.4283C28.619 5.29247 15.3807 5.29247 7.24491 13.4283C6.1088 14.5645 4.26685 14.5645 3.13083 13.4283C1.9948 12.2922 1.9948 10.4503 3.13083 9.31417C13.5353 -1.09008 30.4646 -1.09008 40.8691 9.31417C42.0051 10.4503 42.0051 12.2922 40.8691 13.4283C39.7329 14.5643 37.891 14.5645 36.7549 13.4283Z" fill="url(#paint6_linear_369_2309)"/>
<path d="M29.8981 20.2852C27.7927 18.1796 24.9877 17.0201 22 17.0201C19.0123 17.0201 16.2072 18.1796 14.1018 20.2852C12.9657 21.4213 11.1237 21.4213 9.98769 20.2852C8.85176 19.1491 8.85176 17.3071 9.98769 16.171C16.6114 9.5475 27.3886 9.5475 34.0124 16.171C35.1484 17.3071 35.1484 19.1491 34.0124 20.2852C32.8764 21.4211 31.0343 21.4214 29.8981 20.2852Z" fill="url(#paint7_linear_369_2309)"/>
<path d="M14.8228 40.4564C15.5458 40.4564 16.1319 39.9854 16.1319 39.4043C16.1319 38.8233 15.5458 38.3523 14.8228 38.3523C14.0998 38.3523 13.5137 38.8233 13.5137 39.4043C13.5137 39.9854 14.0998 40.4564 14.8228 40.4564Z" fill="#FDAECE"/>
<path d="M30.2291 40.4564C30.9521 40.4564 31.5382 39.9854 31.5382 39.4043C31.5382 38.8233 30.9521 38.3523 30.2291 38.3523C29.506 38.3523 28.9199 38.8233 28.9199 39.4043C28.9199 39.9854 29.506 40.4564 30.2291 40.4564Z" fill="#FDAECE"/>
<path d="M17.0672 39.4044C18.5009 39.4044 19.6632 38.2421 19.6632 36.8084C19.6632 35.3747 18.5009 34.2124 17.0672 34.2124C15.6335 34.2124 14.4712 35.3747 14.4712 36.8084C14.4712 38.2421 15.6335 39.4044 17.0672 39.4044Z" fill="white"/>
<path d="M27.9847 39.4044C29.4184 39.4044 30.5807 38.2421 30.5807 36.8084C30.5807 35.3747 29.4184 34.2124 27.9847 34.2124C26.5509 34.2124 25.3887 35.3747 25.3887 36.8084C25.3887 38.2421 26.5509 39.4044 27.9847 39.4044Z" fill="white"/>
<path d="M17.0672 38.3556C17.9217 38.3556 18.6144 37.6629 18.6144 36.8084C18.6144 35.9539 17.9217 35.2612 17.0672 35.2612C16.2127 35.2612 15.52 35.9539 15.52 36.8084C15.52 37.6629 16.2127 38.3556 17.0672 38.3556Z" fill="#383842"/>
<path d="M27.9847 38.3556C28.8392 38.3556 29.5319 37.6629 29.5319 36.8084C29.5319 35.9539 28.8392 35.2612 27.9847 35.2612C27.1302 35.2612 26.4375 35.9539 26.4375 36.8084C26.4375 37.6629 27.1302 38.3556 27.9847 38.3556Z" fill="#383842"/>
<path d="M22.5261 39.487C22.0662 39.487 21.6063 39.313 21.2311 38.9651C21.0536 38.8006 21.0431 38.5232 21.2077 38.3458C21.3721 38.1683 21.6496 38.1579 21.827 38.3224C22.2387 38.704 22.8135 38.704 23.2252 38.3224C23.4026 38.158 23.68 38.1683 23.8445 38.3458C24.0091 38.5232 23.9987 38.8006 23.8211 38.9651C23.446 39.313 22.986 39.487 22.5261 39.487Z" fill="#383842"/>
<path d="M35.5742 9.09239C35.4043 9.09239 35.2327 9.04304 35.0816 8.94032C34.8614 8.79026 34.6343 8.64135 34.4068 8.49751C33.9977 8.23895 33.8756 7.69754 34.1342 7.2883C34.3928 6.87933 34.9342 6.75723 35.3435 7.01571C35.5878 7.17015 35.8317 7.3302 36.0684 7.49139C36.4684 7.76389 36.5719 8.30915 36.2995 8.70927C36.1298 8.95829 35.8544 9.09239 35.5742 9.09239Z" fill="#D8FBFF"/>
<path d="M31.7094 6.94938C31.5915 6.94938 31.4718 6.92545 31.357 6.87496C30.1115 6.32724 28.8105 5.88741 27.4902 5.56767C27.0197 5.45373 26.7307 4.98007 26.8447 4.50957C26.9586 4.03906 27.4322 3.74982 27.9028 3.86403C29.3233 4.20796 30.7229 4.6811 32.0627 5.27028C32.5058 5.46521 32.7071 5.98234 32.5122 6.42549C32.3678 6.75383 32.0464 6.94938 31.7094 6.94938Z" fill="#D8FBFF"/>
<defs>
<linearGradient id="paint0_linear_369_2309" x1="22.8595" y1="43.9284" x2="22.8595" y2="28.4745" gradientUnits="userSpaceOnUse">
<stop stop-color="#FDD943"/>
<stop offset="1" stop-color="#FDEDAC"/>
</linearGradient>
<linearGradient id="paint1_linear_369_2309" x1="40.3665" y1="43.1148" x2="40.3665" y2="29.5084" gradientUnits="userSpaceOnUse">
<stop stop-color="#FF7081"/>
<stop offset="1" stop-color="#FFA0AB"/>
</linearGradient>
<linearGradient id="paint2_linear_369_2309" x1="6.45505" y1="42.8903" x2="6.45505" y2="30.9976" gradientUnits="userSpaceOnUse">
<stop stop-color="#BD7E62"/>
<stop offset="1" stop-color="#DA9D81"/>
</linearGradient>
<linearGradient id="paint3_linear_369_2309" x1="1.68576" y1="39.6758" x2="1.68576" y2="34.2926" gradientUnits="userSpaceOnUse">
<stop stop-color="#495560"/>
<stop offset="1" stop-color="#5B778E"/>
</linearGradient>
<linearGradient id="paint4_linear_369_2309" x1="22.0001" y1="29.6318" x2="22.0001" y2="22.0681" gradientUnits="userSpaceOnUse">
<stop stop-color="#00C655"/>
<stop offset="1" stop-color="#9BD981"/>
</linearGradient>
<linearGradient id="paint5_linear_369_2309" x1="22.0001" y1="29.6318" x2="22.0001" y2="22.0681" gradientUnits="userSpaceOnUse">
<stop stop-color="#00C655"/>
<stop offset="1" stop-color="#9BD981"/>
</linearGradient>
<linearGradient id="paint6_linear_369_2309" x1="21.9999" y1="13.6933" x2="21.9999" y2="4.07221" gradientUnits="userSpaceOnUse">
<stop stop-color="#00D2E9"/>
<stop offset="1" stop-color="#A3EAF5"/>
</linearGradient>
<linearGradient id="paint7_linear_369_2309" x1="22" y1="22.5075" x2="22" y2="12.7852" gradientUnits="userSpaceOnUse">
<stop stop-color="#00C655"/>
<stop offset="1" stop-color="#9BD981"/>
</linearGradient>
</defs>
</svg>
