<svg width="52" height="52" viewBox="0 0 52 52" fill="none" xmlns="http://www.w3.org/2000/svg">
<g clip-path="url(#clip0_369_2204)" filter="url(#filter0_d_369_2204)">
<path d="M40.8057 44H11.1943C7.23744 44 4 40.7626 4 36.8057V7.19426C4 3.23744 7.23744 0 11.1943 0H40.8057C44.7626 0 48 3.23744 48 7.19426V36.8057C48 40.7626 44.7626 44 40.8057 44Z" fill="#EFEDFF"/>
<path d="M14.0678 36.8057V7.19434C14.0678 3.23744 17.3053 0 21.2621 0H11.1943C7.23744 0 4 3.23744 4 7.19434V36.8057C4 40.7626 7.23744 44 11.1943 44H21.2621C17.3053 44 14.0678 40.7626 14.0678 36.8057Z" fill="#E2E1FF"/>
<path d="M29.3342 28.8606C28.876 28.8606 28.4125 28.7341 27.9977 28.4695C27.393 28.0835 26.6914 27.8795 25.9686 27.8795C25.2459 27.8795 24.5443 28.0835 23.9396 28.4695C22.7812 29.209 21.2425 28.8691 20.503 27.7107C19.7635 26.5522 20.1033 25.0135 21.2618 24.2741C22.6678 23.3766 24.2953 22.9023 25.9686 22.9023C27.6419 22.9023 29.2695 23.3766 30.6754 24.2741C31.834 25.0135 32.1737 26.5521 31.4343 27.7107C30.9596 28.4543 30.1555 28.8606 29.3342 28.8606Z" fill="#30CD9C"/>
<path d="M33.9169 21.1127C33.4586 21.1127 32.9953 20.9862 32.5804 20.7215C30.6077 19.4625 28.3214 18.797 25.9687 18.797C23.616 18.797 21.3297 19.4625 19.357 20.7215C18.1985 21.461 16.6598 21.1212 15.9204 19.9626C15.181 18.8041 15.5208 17.2655 16.6793 16.5261C19.4533 14.7556 22.6655 13.8198 25.9687 13.8198C29.2718 13.8198 32.484 14.7556 35.258 16.5261C36.4165 17.2655 36.7563 18.804 36.0169 19.9626C35.5423 20.7063 34.7382 21.1127 33.9169 21.1127Z" fill="#30CD9C"/>
<path d="M41.2089 14.1594C40.7506 14.1594 40.2872 14.033 39.8724 13.7683C35.7231 11.1201 30.9154 9.72023 25.9687 9.72023C21.0221 9.72023 16.2143 11.1201 12.0651 13.7683C10.9066 14.5078 9.3679 14.168 8.6285 13.0095C7.889 11.8511 8.2288 10.3123 9.38732 9.57294C14.3378 6.41327 20.0716 4.74316 25.9687 4.74316C31.8658 4.74316 37.5997 6.41327 42.5501 9.57294C43.7086 10.3123 44.0483 11.851 43.3089 13.0095C42.8342 13.7531 42.0302 14.1594 41.2089 14.1594Z" fill="#30CD9C"/>
<path d="M18.9298 39.4939C20.3655 39.4939 21.5295 38.567 21.5295 37.4236C21.5295 36.2802 20.3655 35.3533 18.9298 35.3533C17.494 35.3533 16.3301 36.2802 16.3301 37.4236C16.3301 38.567 17.494 39.4939 18.9298 39.4939Z" fill="#FFA1AC"/>
<path d="M33.0211 39.4939C34.4569 39.4939 35.6208 38.567 35.6208 37.4236C35.6208 36.2802 34.4569 35.3533 33.0211 35.3533C31.5853 35.3533 30.4214 36.2802 30.4214 37.4236C30.4214 38.567 31.5853 39.4939 33.0211 39.4939Z" fill="#FFA1AC"/>
<path d="M28.0714 35.8329C28.0714 34.5375 27.133 34.4158 25.9754 34.4158C24.8178 34.4158 23.8794 34.5375 23.8794 35.8329C23.8794 37.1282 24.8178 38.1783 25.9754 38.1783C27.133 38.1783 28.0714 37.1282 28.0714 35.8329Z" fill="#495560"/>
<path d="M19.3643 35.5966C19.0083 35.5966 18.7197 35.3081 18.7197 34.9521V33.8904C18.7197 33.5343 19.0083 33.2458 19.3643 33.2458C19.7202 33.2458 20.0088 33.5343 20.0088 33.8904V34.9521C20.0088 35.308 19.7202 35.5966 19.3643 35.5966Z" fill="#495560"/>
<path d="M32.5864 35.5966C32.2305 35.5966 31.9419 35.3081 31.9419 34.9521V33.8904C31.9419 33.5343 32.2305 33.2458 32.5864 33.2458C32.9424 33.2458 33.231 33.5343 33.231 33.8904V34.9521C33.231 35.308 32.9424 35.5966 32.5864 35.5966Z" fill="#495560"/>
<path d="M20.458 16.558C20.458 15.7425 20.7817 15.0031 21.307 14.4597C19.6789 14.9148 18.1197 15.6068 16.6793 16.5261C15.5208 17.2655 15.181 18.804 15.9204 19.9626C16.6599 21.1212 18.1985 21.461 19.357 20.7215C20.2845 20.1295 21.2819 19.6706 22.3223 19.3485C21.2279 18.8949 20.458 17.8165 20.458 16.558Z" fill="#0CAF7B"/>
<path d="M16.5125 7.97905C16.5125 7.21816 16.7946 6.52344 17.259 5.99243C14.4928 6.80471 11.8436 8.00526 9.38729 9.57293C8.22876 10.3123 7.88905 11.851 8.62846 13.0095C9.36795 14.168 10.9066 14.5078 12.065 13.7683C14.0745 12.4858 16.2387 11.497 18.498 10.8173C17.3396 10.3949 16.5125 9.28367 16.5125 7.97905Z" fill="#0CAF7B"/>
<path d="M23.5956 25.0396C23.5956 24.3012 23.8404 23.62 24.2531 23.0725C23.1942 23.2833 22.1806 23.6877 21.2618 24.2742C20.1033 25.0136 19.7636 26.5522 20.503 27.7108C21.2425 28.8692 22.7812 29.209 23.9395 28.4696C24.3671 28.1967 24.8435 28.0168 25.3411 27.9337C24.3032 27.385 23.5956 26.2952 23.5956 25.0396Z" fill="#0CAF7B"/>
</g>
<defs>
<filter id="filter0_d_369_2204" x="0" y="0" width="52" height="52" filterUnits="userSpaceOnUse" color-interpolation-filters="sRGB">
<feFlood flood-opacity="0" result="BackgroundImageFix"/>
<feColorMatrix in="SourceAlpha" type="matrix" values="0 0 0 0 0 0 0 0 0 0 0 0 0 0 0 0 0 0 127 0" result="hardAlpha"/>
<feOffset dy="4"/>
<feGaussianBlur stdDeviation="2"/>
<feComposite in2="hardAlpha" operator="out"/>
<feColorMatrix type="matrix" values="0 0 0 0 0 0 0 0 0 0 0 0 0 0 0 0 0 0 0.25 0"/>
<feBlend mode="normal" in2="BackgroundImageFix" result="effect1_dropShadow_369_2204"/>
<feBlend mode="normal" in="SourceGraphic" in2="effect1_dropShadow_369_2204" result="shape"/>
</filter>
<clipPath id="clip0_369_2204">
<rect width="44" height="44" fill="white" transform="translate(4)"/>
</clipPath>
</defs>
</svg>
