<svg width="44" height="44" viewBox="0 0 44 44" fill="none" xmlns="http://www.w3.org/2000/svg">
<g clip-path="url(#clip0_369_2460)">
<path d="M22.0003 40.4243L13.6529 32.0445C11.5742 29.9576 11.5807 26.5808 13.6676 24.5021C15.7543 22.4233 19.1312 22.4298 21.2099 24.5167L22.0003 25.3102L22.7906 24.5167C24.8693 22.4299 28.2463 22.4234 30.333 24.5021C32.4198 26.5808 32.4264 29.9576 30.3476 32.0445L22.0003 40.4243Z" fill="url(#paint0_linear_369_2460)"/>
<path d="M42.6483 10.9957C42.0093 11.6348 40.9816 11.6681 40.3067 11.067C35.4359 6.72903 29.0205 4.08998 22.0003 4.08998C14.9801 4.08998 8.5646 6.72903 3.69394 11.067C3.01905 11.6681 1.99138 11.6347 1.3523 10.9957L1.3362 10.9796C0.639346 10.2828 0.675941 9.14455 1.41206 8.48938C6.8907 3.61235 14.1056 0.645752 22.0003 0.645752C29.895 0.645752 37.1098 3.61235 42.5887 8.48929C43.3248 9.14455 43.3613 10.2827 42.6645 10.9796L42.6483 10.9957ZM37.175 15.6081C37.8768 14.9063 37.8402 13.7514 37.0858 13.1065C33.0225 9.63372 27.752 7.53421 22.0003 7.53421C16.2486 7.53421 10.9781 9.63372 6.91481 13.1065C6.16044 13.7513 6.12385 14.9063 6.82561 15.6081L6.8449 15.6274C7.47743 16.2599 8.4865 16.2907 9.16717 15.7103C12.6261 12.7608 17.109 10.9784 22.0003 10.9784C26.8916 10.9784 31.3744 12.7608 34.8334 15.7103C35.514 16.2906 36.5232 16.2598 37.1556 15.6274L37.175 15.6081ZM31.6705 20.2515C32.3974 19.5245 32.3231 18.3248 31.5123 17.6926C28.8847 15.6442 25.5824 14.4227 22.0003 14.4227C18.4181 14.4227 15.1159 15.6442 12.4883 17.6926C11.6774 18.3247 11.603 19.5244 12.3301 20.2515L12.3424 20.2638C12.9557 20.8771 13.9265 20.9282 14.6115 20.3962C16.6522 18.8108 19.216 17.8669 22.0003 17.8669C24.7845 17.8669 27.3484 18.8108 29.3892 20.3962C30.0741 20.9282 31.0449 20.8771 31.6582 20.2638L31.6705 20.2515Z" fill="url(#paint1_linear_369_2460)"/>
<path d="M30.6716 38.9513C28.703 38.9513 27.1093 35.9492 24.6251 35.9492C23.5517 35.9492 22.5989 36.3831 22.0002 37.0406C21.4016 36.3831 20.4488 35.9492 19.3754 35.9492C16.8912 35.9492 15.2975 38.9513 13.3289 38.9513C11.7821 38.9513 10.376 37.4503 10.376 37.4503C10.376 40.711 13.3139 43.3544 16.9381 43.3544C18.9759 43.3544 20.7967 42.8555 22.0002 41.5443C23.2038 42.8556 25.0246 43.3544 27.0624 43.3544C30.6865 43.3544 33.6245 40.711 33.6245 37.4503C33.6245 37.4503 32.2184 38.9513 30.6716 38.9513Z" fill="white"/>
<path d="M43.8094 9.70351C43.7906 9.05634 43.5021 8.43801 43.0179 8.00697C37.2174 2.84355 29.753 0 22.0002 0C14.2472 0 6.78297 2.84355 0.982457 8.00697C0.498199 8.43801 0.209745 9.05634 0.190974 9.70342C0.171945 10.358 0.416485 10.9733 0.879389 11.4363L0.895491 11.4524C1.35418 11.9112 1.95803 12.1427 2.56284 12.1427C3.12003 12.1426 3.67808 11.946 4.12342 11.5494C9.05659 7.15564 15.4054 4.73581 22.0002 4.73581C28.595 4.73581 34.9437 7.15564 39.877 11.5494C40.8057 12.3764 42.2235 12.3338 43.1048 11.4525L43.121 11.4363C43.5839 10.9733 43.8284 10.358 43.8094 9.70351ZM42.2077 10.523L42.1915 10.5392C41.7936 10.9373 41.1541 10.9573 40.7361 10.5849C35.566 5.98013 28.9122 3.44423 22.0002 3.44423C15.0883 3.44423 8.43439 5.98013 3.26426 10.5849C2.84613 10.9572 2.20671 10.9372 1.80873 10.5392L1.79254 10.523C1.58365 10.3141 1.47326 10.0364 1.48187 9.74096C1.49057 9.44347 1.61809 9.17025 1.8411 8.97169C7.40499 4.01915 14.5642 1.29159 22.0002 1.29159C29.4361 1.29159 36.5953 4.01915 42.1591 8.97178C42.3821 9.17025 42.5097 9.44347 42.5184 9.74105C42.527 10.0364 42.4167 10.3141 42.2077 10.523ZM37.5053 12.6157C33.1841 8.92244 27.6776 6.88845 22.0002 6.88845C16.3227 6.88845 10.8162 8.92244 6.49511 12.6157C6.0019 13.0373 5.70441 13.6521 5.67901 14.3027C5.65335 14.9585 5.90477 15.6007 6.36828 16.0643L6.38808 16.0841C7.24897 16.945 8.6537 16.9967 9.58605 16.2017C13.0478 13.2499 17.4566 11.6243 22.0002 11.6243C26.5439 11.6243 30.9526 13.2499 34.4143 16.2017C34.8566 16.579 35.4052 16.7655 35.9517 16.7655C36.5569 16.7655 37.1597 16.5365 37.6122 16.0841L37.6315 16.0647C38.0956 15.6006 38.347 14.9584 38.3213 14.3025C38.2958 13.6521 37.9984 13.0371 37.5053 12.6157ZM36.7182 15.1514L36.6988 15.1708C36.3045 15.5652 35.6825 15.5858 35.2523 15.219C31.557 12.068 26.8507 10.3327 22.0002 10.3327C17.1497 10.3327 12.4433 12.068 8.74807 15.2189C8.3178 15.5859 7.69586 15.5652 7.30193 15.1712L7.28212 15.1514C7.06875 14.9381 6.95785 14.6546 6.96964 14.3531C6.98127 14.057 7.11077 13.7886 7.3343 13.5976C11.4217 10.104 16.6302 8.18004 22.0002 8.18004C27.3701 8.18004 32.5786 10.104 36.666 13.5975C36.8896 13.7885 37.0191 14.0569 37.0307 14.353C37.0426 14.6546 36.9315 14.9381 36.7182 15.1514ZM11.8857 20.7205C12.3399 21.1748 12.9423 21.4061 13.549 21.4061C14.061 21.406 14.5762 21.2411 15.0074 20.9062C17.0232 19.3404 19.4412 18.5127 22.0002 18.5127C24.5591 18.5127 26.9772 19.3404 28.9929 20.9062C29.9351 21.6381 31.277 21.558 32.1147 20.7206L32.1271 20.7082C32.6043 20.2309 32.8542 19.5707 32.8126 18.8969C32.7711 18.2231 32.4418 17.5984 31.9093 17.1834C29.0507 14.9549 25.6242 13.7769 22.0002 13.7769C18.3762 13.7769 14.9497 14.9548 12.0911 17.1834C11.5586 17.5984 11.2294 18.2231 11.1878 18.897C11.1462 19.5707 11.3961 20.2309 11.8726 20.7073L11.8857 20.7205ZM12.477 18.9766C12.496 18.6675 12.641 18.3924 12.8853 18.2021C15.5148 16.152 18.6667 15.0685 22.0002 15.0685C25.3337 15.0685 28.4856 16.152 31.1151 18.2021C31.3593 18.3924 31.5044 18.6675 31.5235 18.9766C31.5425 19.2854 31.4324 19.5761 31.2136 19.7948L31.2012 19.8072C30.8231 20.1856 30.214 20.2194 29.7851 19.8863C27.5408 18.1427 24.8487 17.2211 22.0002 17.2211C19.1515 17.2211 16.4595 18.1427 14.2152 19.8862C13.7862 20.2193 13.1772 20.1855 12.7998 19.808L12.7867 19.7948C12.5678 19.5761 12.4578 19.2854 12.477 18.9766ZM33.154 37.0077C33.1417 37.0206 31.9139 38.3054 30.6715 38.3054C29.9685 38.3054 29.2101 37.7072 28.4074 37.0737C28.0159 36.7649 27.6049 36.4407 27.1639 36.1553L30.8051 32.5C33.1317 30.1642 33.1245 26.371 30.7887 24.0443C29.66 22.9201 28.1621 22.3014 26.5694 22.3014H26.5575C24.9603 22.3045 23.46 22.9293 22.333 24.0609L22.0002 24.3949L21.6674 24.0609C20.5402 22.9293 19.0399 22.3046 17.4428 22.3014H17.4309C15.8382 22.3014 14.3402 22.9202 13.2117 24.0444C12.0802 25.1715 11.4553 26.6717 11.4522 28.2689C11.4491 29.866 12.0681 31.3686 13.1953 32.5002L16.8364 36.1555C16.3955 36.4409 15.9844 36.765 15.593 37.0739C14.7902 37.7072 14.0319 38.3056 13.3289 38.3056C12.0865 38.3056 10.8586 37.0208 10.8472 37.0087L9.7301 35.8162V37.4502C9.7301 41.0617 12.9635 44 16.938 44C19.0861 44 20.7852 43.4755 22.0002 42.4394C23.2153 43.4754 24.9143 44 27.0623 44C31.0368 44 34.2702 41.0617 34.2702 37.4502L34.2693 35.827L33.154 37.0077ZM14.1103 31.5886C13.2267 30.7015 12.7414 29.5235 12.7438 28.2713C12.7462 27.0193 13.2362 25.8432 14.1233 24.9595C15.0081 24.078 16.1823 23.593 17.4311 23.593H17.4404C18.6925 23.5954 19.8687 24.0853 20.7523 24.9724L22.0002 26.2252L23.248 24.9724C24.1316 24.0853 25.3078 23.5955 26.5599 23.593H26.5693C27.8179 23.593 28.9923 24.0781 29.8771 24.9595C30.7642 25.8432 31.254 27.0193 31.2565 28.2713C31.2589 29.5235 30.7736 30.7016 29.89 31.5886L25.9535 35.5404C25.5394 35.3927 25.0987 35.3033 24.625 35.3033C23.6426 35.3033 22.717 35.6122 22.0002 36.166C21.2834 35.6122 20.3578 35.3033 19.3753 35.3033C18.9017 35.3033 18.4609 35.3927 18.0468 35.5404L14.1103 31.5886ZM27.0623 42.7084C24.9941 42.7084 23.4511 42.1697 22.4759 41.1074L22.0002 40.589L21.5244 41.1074C20.5493 42.1697 19.0062 42.7084 16.938 42.7084C14.268 42.7084 12.0052 41.128 11.2717 38.9645C11.8507 39.3062 12.5673 39.5971 13.3289 39.5971C14.4801 39.5971 15.4526 38.8299 16.393 38.0879C17.3232 37.3538 18.2852 36.5949 19.3753 36.5949C20.218 36.5949 21.0207 36.924 21.5226 37.4753L22.0002 37.9998L22.4777 37.4753C22.9796 36.9241 23.7823 36.5949 24.625 36.5949C25.7152 36.5949 26.6772 37.3538 27.6075 38.0878C28.5479 38.8298 29.5204 39.597 30.6716 39.597C31.4331 39.597 32.1497 39.3061 32.7288 38.9645C31.9953 41.1282 29.7326 42.7084 27.0623 42.7084ZM27.2957 27.0372H26.0041V25.7456H27.2957V27.0372ZM27.2957 31.3425H26.0041V30.0509H27.2957V31.3425ZM29.4483 29.1898H28.1567V27.8982H29.4483V29.1898ZM25.143 29.1898H23.8514V27.8982H25.143V29.1898Z" fill="url(#paint2_linear_369_2460)"/>
</g>
<defs>
<linearGradient id="paint0_linear_369_2460" x1="22.0003" y1="22.9473" x2="22.0003" y2="40.4243" gradientUnits="userSpaceOnUse">
<stop offset="3.6422e-07" stop-color="#A8ABFF"/>
<stop offset="1" stop-color="#FAC8FF"/>
</linearGradient>
<linearGradient id="paint1_linear_369_2460" x1="22.0003" y1="0.645752" x2="22.0003" y2="20.7623" gradientUnits="userSpaceOnUse">
<stop offset="8.3866e-07" stop-color="#96D1F3"/>
<stop offset="1" stop-color="#CCFFF4"/>
</linearGradient>
<linearGradient id="paint2_linear_369_2460" x1="22.0002" y1="0" x2="22.0002" y2="44" gradientUnits="userSpaceOnUse">
<stop stop-color="#174FA3"/>
<stop offset="1" stop-color="#B044AF"/>
</linearGradient>
<clipPath id="clip0_369_2460">
<rect width="44" height="44" fill="white"/>
</clipPath>
</defs>
</svg>
