<svg width="54" height="54" viewBox="0 0 54 54" fill="none" xmlns="http://www.w3.org/2000/svg">
<path d="M9.09579 20.9081C8.65309 20.9062 8.22886 20.7304 7.91454 20.4187C7.60024 20.1025 7.42383 19.6748 7.42383 19.229C7.42383 18.7832 7.60024 18.3555 7.91454 18.0393C12.9775 12.9797 19.8424 10.1375 27.0002 10.1375C34.1579 10.1375 41.0228 12.9797 46.0858 18.0393C46.3622 18.3621 46.5067 18.7774 46.4903 19.2021C46.4739 19.6268 46.2978 20.0297 45.9973 20.3302C45.6968 20.6307 45.2939 20.8068 44.8692 20.8232C44.4445 20.8396 44.0292 20.6951 43.7064 20.4187C41.5126 18.2246 38.9081 16.4842 36.0416 15.2968C33.1751 14.1094 30.1028 13.4982 27.0002 13.4982C23.8975 13.4982 20.8252 14.1094 17.9587 15.2968C15.0922 16.4842 12.4877 18.2246 10.2939 20.4187C10.1362 20.5751 9.94923 20.6988 9.74363 20.7828C9.53803 20.8668 9.31788 20.9093 9.09579 20.9081Z" fill="#5233FF"/>
<path d="M40.1292 25.6836C39.9071 25.6849 39.6869 25.6424 39.4813 25.5584C39.2757 25.4744 39.0887 25.3507 38.931 25.1943C35.7665 22.0307 31.475 20.2535 27.0004 20.2535C22.5258 20.2535 18.2343 22.0307 15.0698 25.1943C14.752 25.512 14.321 25.6905 13.8717 25.6905C13.4223 25.6905 12.9913 25.512 12.6735 25.1943C12.3558 24.8765 12.1772 24.4455 12.1772 23.9961C12.1772 23.5468 12.3558 23.1158 12.6735 22.798C14.5548 20.9102 16.7903 19.4123 19.2517 18.3902C21.7131 17.3682 24.3521 16.842 27.0173 16.842C29.6825 16.842 32.3214 17.3682 34.7829 18.3902C37.2443 19.4123 39.4797 20.9102 41.361 22.798C41.5192 22.9549 41.6447 23.1415 41.7304 23.3472C41.8161 23.5528 41.8602 23.7734 41.8602 23.9961C41.8602 24.2189 41.8161 24.4395 41.7304 24.6451C41.6447 24.8507 41.5192 25.0374 41.361 25.1943C41.1994 25.3548 41.0069 25.4809 40.7951 25.565C40.5834 25.6491 40.3569 25.6894 40.1292 25.6836Z" fill="#5233FF"/>
<path d="M35.4378 30.4593C35.2157 30.4605 34.9955 30.418 34.7899 30.334C34.5843 30.25 34.3973 30.1263 34.2396 29.9699C32.3412 28.0738 29.7678 27.0088 27.0846 27.0088C24.4015 27.0088 21.8281 28.0738 19.9296 29.9699C19.6119 30.2876 19.1809 30.4662 18.7315 30.4662C18.2821 30.4662 17.8512 30.2876 17.5334 29.9699C17.2156 29.6521 17.0371 29.2211 17.0371 28.7718C17.0371 28.3224 17.2156 27.8914 17.5334 27.5736C18.7872 26.3184 20.2761 25.3227 21.9149 24.6433C23.5538 23.9639 25.3105 23.6143 27.0846 23.6143C28.8587 23.6143 30.6155 23.9639 32.2543 24.6433C33.8932 25.3227 35.3821 26.3184 36.6359 27.5736C36.7941 27.7305 36.9196 27.9171 37.0053 28.1228C37.0909 28.3284 37.135 28.549 37.135 28.7718C37.135 28.9945 37.0909 29.2151 37.0053 29.4207C36.9196 29.6264 36.7941 29.813 36.6359 29.9699C36.4782 30.1263 36.2912 30.25 36.0856 30.334C35.88 30.418 35.6598 30.4605 35.4378 30.4593Z" fill="#5233FF"/>
<path d="M31.7756 32.3493C30.4887 31.1217 28.7785 30.4368 27 30.4368C25.2215 30.4368 23.5113 31.1217 22.2244 32.3493C21.2811 33.2936 20.639 34.4963 20.3792 35.8055C20.1193 37.1147 20.2534 38.4715 20.7645 39.7044C21.2756 40.9374 22.1408 41.9912 23.2507 42.7325C24.3606 43.4739 25.6653 43.8696 27 43.8696C28.3347 43.8696 29.6395 43.4739 30.7493 42.7325C31.8592 41.9912 32.7244 40.9374 33.2355 39.7044C33.7466 38.4715 33.8807 37.1147 33.6209 35.8055C33.361 34.4963 32.7189 33.2936 31.7756 32.3493Z" fill="#FF64C8"/>
</svg>
