<svg width="44" height="44" viewBox="0 0 44 44" fill="none" xmlns="http://www.w3.org/2000/svg">
<g clip-path="url(#clip0_369_2192)">
<path d="M21.9998 40.4021C26.0824 40.4021 29.3921 37.0925 29.3921 33.0098C29.3921 28.9271 26.0824 25.6174 21.9998 25.6174C17.9171 25.6174 14.6074 28.9271 14.6074 33.0098C14.6074 37.0925 17.9171 40.4021 21.9998 40.4021Z" fill="#42C3E2"/>
<path d="M42.0341 16.2263C41.5092 16.2263 40.9856 16.0174 40.5985 15.604C38.2438 13.0887 35.4574 11.1067 32.3171 9.71286C29.0538 8.26446 25.5824 7.53013 21.9995 7.53013C18.417 7.53013 14.9458 8.26438 11.6826 9.71268C8.54215 11.1063 5.75597 13.0882 3.4012 15.6034C2.65913 16.396 1.41501 16.437 0.622324 15.6948C-0.170278 14.9527 -0.21127 13.7085 0.530886 12.9159C3.24771 10.0141 6.46307 7.7271 10.0877 6.11869C13.8564 4.44618 17.8641 3.59814 21.9997 3.59814C26.1356 3.59814 30.1437 4.44626 33.9124 6.11895C37.537 7.72761 40.7525 10.0148 43.4692 12.9168C44.2113 13.7094 44.1703 14.9536 43.3777 15.6957C42.9982 16.0506 42.5157 16.2263 42.0341 16.2263Z" fill="#00A6C8"/>
<path d="M37.1546 20.7946C36.6297 20.7946 36.1061 20.5857 35.719 20.1722C33.9798 18.3144 31.9229 16.851 29.6056 15.8225C27.2015 14.7554 24.6426 14.2145 21.9998 14.2145C19.3572 14.2145 16.7984 14.7554 14.3943 15.8223C12.077 16.8507 10.0203 18.3139 8.28109 20.1717C7.53902 20.9644 6.29482 21.0053 5.50222 20.2633C4.70962 19.5211 4.66863 18.277 5.4107 17.4844C7.51195 15.2399 9.99795 13.4716 12.7993 12.2284C15.7088 10.9371 18.8043 10.2825 21.9999 10.2825C25.1956 10.2825 28.2913 10.9372 31.2009 12.2285C34.0024 13.4719 36.4884 15.2404 38.5896 17.4849C39.3317 18.2776 39.2907 19.5217 38.4981 20.2638C38.1187 20.6188 37.6361 20.7946 37.1546 20.7946Z" fill="#42C3E2"/>
<path d="M32.2749 25.363C31.75 25.363 31.2264 25.154 30.8393 24.7406C28.5201 22.2633 25.3809 20.8989 22 20.8989C18.6191 20.8989 15.4801 22.2631 13.161 24.7403C12.4189 25.5329 11.1748 25.5739 10.3821 24.8318C9.5895 24.0897 9.54851 22.8455 10.2906 22.0529C11.7764 20.4659 13.5327 19.2161 15.511 18.3383C17.5613 17.4284 19.7446 16.967 22 16.967C24.2557 16.967 26.4389 17.4284 28.4892 18.3384C30.4675 19.2164 32.224 20.4663 33.7098 22.0533C34.4519 22.846 34.4108 24.0901 33.6182 24.8323C33.239 25.1871 32.7564 25.363 32.2749 25.363Z" fill="#00A6C8"/>
<path d="M17.1708 33.8777C16.804 33.8777 16.5068 33.5804 16.5068 33.2137V32.3397C16.5068 31.973 16.804 31.6758 17.1708 31.6758C17.5376 31.6758 17.8347 31.973 17.8347 32.3397V33.2137C17.8348 33.5804 17.5376 33.8777 17.1708 33.8777Z" fill="#3A484A"/>
<path d="M26.829 33.8777C26.4622 33.8777 26.165 33.5804 26.165 33.2137V32.3397C26.165 31.973 26.4622 31.6758 26.829 31.6758C27.1958 31.6758 27.4929 31.973 27.4929 32.3397V33.2137C27.4929 33.5804 27.1958 33.8777 26.829 33.8777Z" fill="#3A484A"/>
<path d="M21.9999 34.3441C21.3437 34.3441 20.727 34.0691 20.3081 33.5897C20.0668 33.3136 20.095 32.8941 20.3711 32.6528C20.6471 32.4116 21.0666 32.4397 21.308 32.7158C21.4748 32.9067 21.7269 33.0161 21.9999 33.0161C22.2728 33.0161 22.525 32.9066 22.6918 32.7157C22.9331 32.4396 23.3525 32.4115 23.6287 32.6529C23.9047 32.8942 23.933 33.3137 23.6915 33.5898C23.2726 34.0693 22.656 34.3441 21.9999 34.3441Z" fill="#3A484A"/>
</g>
<defs>
<clipPath id="clip0_369_2192">
<rect width="44" height="44" fill="white"/>
</clipPath>
</defs>
</svg>
