<svg width="44" height="44" viewBox="0 0 44 44" fill="none" xmlns="http://www.w3.org/2000/svg">
<path fill-rule="evenodd" clip-rule="evenodd" d="M21.9997 38.676C19.5137 38.676 17.4897 36.652 17.4897 34.166C17.4897 31.68 19.5137 29.634 21.9997 29.634C24.4857 29.634 26.5097 31.68 26.5097 34.166C26.5097 36.652 24.4857 38.676 21.9997 38.676Z" fill="#FF8300"/>
<path fill-rule="evenodd" clip-rule="evenodd" d="M29.3918 29.766C28.7098 29.766 28.0498 29.524 27.5218 28.996C24.4858 25.96 19.5138 25.96 16.4778 28.996C15.4438 30.03 13.7718 30.03 12.7378 28.996C12.2538 28.512 11.9678 27.852 11.9678 27.148C11.9678 26.444 12.2538 25.762 12.7378 25.278C17.8418 20.174 26.1578 20.174 31.2618 25.278C32.2738 26.312 32.2738 27.984 31.2618 28.996C30.7338 29.524 30.0738 29.766 29.3918 29.766Z" fill="#FFD946"/>
<path fill-rule="evenodd" clip-rule="evenodd" d="M10.1857 23.0339C9.48166 23.0339 8.75566 22.7479 8.22766 22.1539C7.25966 21.0759 7.34766 19.4039 8.42566 18.4359C15.9057 11.7479 28.0937 11.7479 35.5737 18.4359C36.6517 19.4039 36.7397 21.0759 35.7717 22.1539C35.3097 22.6819 34.6497 22.9899 33.9457 23.0339C33.2417 23.0779 32.5817 22.8359 32.0537 22.3739C26.5097 17.4019 17.4897 17.4239 11.9457 22.3739C11.4397 22.8139 10.8237 23.0339 10.1857 23.0339Z" fill="#00CCFF"/>
<path fill-rule="evenodd" clip-rule="evenodd" d="M36.4319 15.664C28.4238 8.86597 15.5978 8.82197 7.56785 15.642C4.94985 17.886 1.49585 13.904 4.15785 11.638C8.95385 7.56797 15.2898 5.32397 21.9998 5.32397C28.7098 5.32397 35.0458 7.56797 39.8419 11.638C42.5258 13.904 39.0278 17.864 36.4319 15.664Z" fill="#7FDE4D"/>
<path fill-rule="evenodd" clip-rule="evenodd" d="M39.8418 11.6379C36.2338 8.57994 31.7678 6.55594 26.9058 5.74194C27.6758 7.50194 28.1598 9.41594 28.3358 11.4179C31.2838 12.2319 34.0778 13.6399 36.4318 15.6639C39.0278 17.8639 42.5258 13.9039 39.8418 11.6379Z" fill="#72C845"/>
<path fill-rule="evenodd" clip-rule="evenodd" d="M35.5738 18.4359C33.4618 16.5659 30.9978 15.2239 28.3798 14.3879C28.2478 16.1919 27.8738 17.9299 27.2798 19.5579C29.0178 20.1739 30.6458 21.0979 32.0538 22.3739C32.5818 22.8359 33.2418 23.0779 33.9458 23.0339C34.6498 22.9899 35.3098 22.6819 35.7718 22.1539C36.7398 21.0759 36.6518 19.4039 35.5738 18.4359Z" fill="#00B8E6"/>
<path fill-rule="evenodd" clip-rule="evenodd" d="M31.2619 25.2779C29.7659 23.7819 27.9839 22.7259 26.1139 22.1099C25.1459 23.8259 23.9359 25.3879 22.5059 26.7299C24.3319 26.8399 26.1359 27.6099 27.5219 28.9959C28.0499 29.5239 28.7099 29.7659 29.3919 29.7659C30.0739 29.7659 30.7339 29.5239 31.2619 28.9959C32.2739 27.9839 32.2739 26.3119 31.2619 25.2779Z" fill="#FFCE3F"/>
</svg>
