<svg width="44" height="44" viewBox="0 0 44 44" fill="none" xmlns="http://www.w3.org/2000/svg">
<g clip-path="url(#clip0_369_2390)">
<path d="M26.0783 35.4449C25.5972 36.5126 23.8929 38.1846 22.0002 38.8666C20.1082 38.1846 18.4032 36.5126 17.9221 35.4449C17.54 34.5964 17.4565 33.5976 17.8994 32.7741C18.3423 31.9505 19.3859 31.3749 20.3671 31.5729C20.9838 31.6975 21.5088 32.106 21.8051 32.6149C21.8858 32.7543 21.9511 32.8995 22.0002 33.0498C22.0501 32.8995 22.1146 32.7535 22.1953 32.6149C22.4915 32.106 23.0166 31.6968 23.6333 31.5729C24.6145 31.3749 25.6573 31.9505 26.101 32.7741C26.5439 33.5976 26.4611 34.5964 26.0783 35.4449Z" fill="#E5283F"/>
<path d="M42.6566 15.6852C41.8558 16.5278 40.5505 16.5865 39.6536 15.848C34.8547 11.899 28.7064 9.5333 22.0001 9.5333C15.2938 9.5333 9.14623 11.8983 4.34657 15.8473C3.4497 16.5858 2.14363 16.5271 1.34356 15.6845C0.475298 14.7708 0.536898 13.299 1.50783 12.496C7.0753 7.8921 14.2114 5.1333 22.0001 5.1333C29.7888 5.1333 36.9249 7.8921 42.4924 12.496C43.4633 13.299 43.5249 14.7722 42.6566 15.6852Z" fill="#FFC215"/>
<path d="M36.5655 22.0843C35.794 22.8954 34.5297 23.0083 33.6453 22.3212C30.4275 19.8205 26.3875 18.3333 21.9993 18.3333C17.611 18.3333 13.5674 19.822 10.3488 22.3249C9.46734 23.0098 8.20601 22.8976 7.43674 22.0887L7.42794 22.0799C6.52227 21.1273 6.65501 19.6064 7.69561 18.8034C11.6519 15.752 16.6115 13.9333 21.9985 13.9333C27.3856 13.9333 32.34 15.7505 36.2956 18.799C37.3399 19.6035 37.4726 21.1295 36.564 22.0851L36.5655 22.0843Z" fill="#FFC215"/>
<path d="M30.4507 28.5172L30.4492 28.5187C29.702 29.3048 28.511 29.4016 27.6046 28.8061C25.9935 27.7479 24.0678 27.1334 21.999 27.1334C19.9303 27.1334 18.0046 27.7479 16.3934 28.8061C15.487 29.4016 14.2961 29.3048 13.5488 28.5187L13.5474 28.5172C12.5999 27.5206 12.7928 25.9124 13.9397 25.1541C16.2534 23.6244 19.0246 22.7341 21.999 22.7341C24.9734 22.7341 27.7447 23.6244 30.0584 25.1541C31.2053 25.9124 31.3982 27.5206 30.4507 28.5172Z" fill="#FFC215"/>
<path d="M23.4873 30.8534C22.9278 30.9663 22.4042 31.2596 22.0001 31.6717C21.5953 31.2596 21.0717 30.9663 20.5129 30.8534C19.2714 30.6026 17.8714 31.2787 17.254 32.4263C16.737 33.3885 16.737 34.5985 17.254 35.7454C17.8194 37.0031 19.7004 38.8166 21.7522 39.5558C21.8322 39.5851 21.9172 39.5998 22.0008 39.5998C22.0844 39.5998 22.1688 39.5851 22.2494 39.5558C24.3013 38.8166 26.1816 37.0031 26.7477 35.7454C27.2647 34.5985 27.2647 33.3877 26.7477 32.4263C26.1295 31.2794 24.731 30.604 23.4888 30.8534H23.4873ZM25.4086 35.1434C25.05 35.9412 23.6545 37.3954 22.0001 38.0804C20.345 37.3954 18.9502 35.9412 18.5916 35.1434C18.263 34.4152 18.2462 33.6782 18.5461 33.1208C18.8182 32.6156 19.4232 32.2679 19.979 32.2679C20.0612 32.2679 20.144 32.2753 20.2225 32.2914C20.6046 32.3684 20.9683 32.6339 21.1714 32.983C21.2257 33.0761 21.2704 33.1758 21.3049 33.2785C21.4039 33.5792 21.6848 33.7823 22.0008 33.7823C22.3169 33.7823 22.5978 33.5799 22.6968 33.2785C22.7312 33.1751 22.7752 33.0761 22.8302 32.9822C23.0334 32.6332 23.3964 32.3684 23.7792 32.2914C24.3952 32.1646 25.1432 32.5408 25.4556 33.1208C25.7548 33.6782 25.7386 34.4152 25.4101 35.1434H25.4086Z" fill="#161616"/>
<path d="M22.0002 4.3999C16.1922 4.3999 10.4861 5.93037 5.4987 8.82484C5.14817 9.02797 5.02864 9.4775 5.2325 9.8273C5.43564 10.1771 5.88444 10.2988 6.23497 10.0935C10.9987 7.3281 16.451 5.86584 22.0002 5.86584C29.3034 5.86584 36.4153 8.42077 42.0253 13.0606C42.3274 13.3106 42.5071 13.6678 42.5306 14.0667C42.5548 14.4766 42.4074 14.8822 42.125 15.1792C41.5919 15.7409 40.7302 15.7842 40.1194 15.2811C35.0396 11.1018 28.6053 8.7999 22.0002 8.7999C15.395 8.7999 8.96077 11.1018 3.88097 15.2811C3.27084 15.7842 2.40917 15.7409 1.8753 15.1799C1.59297 14.8829 1.44557 14.4766 1.46977 14.0667C1.49324 13.6678 1.6729 13.3106 1.9743 13.0606C2.6519 12.501 3.36177 11.9628 4.08557 11.4597C4.41777 11.2287 4.4999 10.7718 4.2689 10.4382C4.03717 10.1052 3.58104 10.0238 3.24737 10.2548C2.4913 10.7814 1.74844 11.3446 1.0393 11.9298C0.421104 12.4416 0.0529702 13.1684 0.00530357 13.978C-0.0438298 14.792 0.250237 15.5979 0.81197 16.1897C1.3781 16.7852 2.14884 17.0888 2.92617 17.0888C3.59204 17.0888 4.26304 16.8658 4.81304 16.4134C9.6303 12.449 15.7346 10.2658 22.0002 10.2658C28.2658 10.2658 34.3693 12.449 39.1873 16.4134C40.3782 17.3938 42.1368 17.2948 43.1884 16.189C43.7501 15.5979 44.0442 14.7927 43.995 13.978C43.9474 13.1684 43.5792 12.4416 42.961 11.9298C37.0885 7.07364 29.6452 4.39844 22.0009 4.39844L22.0002 4.3999Z" fill="#161616"/>
<path d="M36.7443 18.2182C32.4851 14.935 27.3863 13.2 21.9999 13.2C16.6136 13.2 11.5096 14.9365 7.24893 18.2226C6.58379 18.7359 6.16506 19.5096 6.10126 20.3448C6.03819 21.1698 6.32859 21.986 6.90719 22.594C7.48433 23.2019 8.25653 23.5128 9.03093 23.5128C9.65279 23.5128 10.2754 23.3134 10.8005 22.9042C14.0279 20.394 17.9013 19.0674 21.9999 19.0674C26.0985 19.0674 29.9683 20.3932 33.1965 22.9019C34.3771 23.8194 36.0565 23.6859 37.0971 22.591C37.6683 21.9897 37.9595 21.1706 37.8957 20.3441C37.8311 19.5074 37.4117 18.7337 36.7451 18.2196L36.7443 18.2182ZM36.0337 21.5798C35.5138 22.1261 34.6807 22.1987 34.0948 21.7426C30.6078 19.0329 26.4256 17.6007 21.9992 17.6007C17.5728 17.6007 13.3869 19.0344 9.89846 21.747C9.31766 22.2002 8.48679 22.1298 7.95953 21.5746C7.67059 21.2718 7.52979 20.875 7.56206 20.457C7.59433 20.0361 7.80626 19.6452 8.14359 19.3849C12.1454 16.299 16.9363 14.6674 21.9992 14.6674C27.0621 14.6674 31.8486 16.2976 35.8489 19.3805C36.1877 19.6408 36.4004 20.0339 36.4327 20.4563C36.4657 20.8758 36.3241 21.2747 36.0337 21.5798Z" fill="#161616"/>
<path d="M30.4635 24.5417C27.9474 22.8785 25.0214 22 22.0001 22C18.9787 22 16.0527 22.8785 13.5359 24.5417C12.8048 25.025 12.3289 25.8016 12.2299 26.6713C12.1316 27.5352 12.4191 28.3925 13.0189 29.0231C13.9935 30.0498 15.5841 30.2148 16.7971 29.4191C18.3422 28.4035 20.1418 27.8667 22.0001 27.8667C23.8583 27.8667 25.6565 28.4035 27.2031 29.4191C27.7186 29.7579 28.3016 29.9229 28.8758 29.9229C29.6539 29.9229 30.4151 29.6201 30.9687 29.0371L30.9702 29.0356C30.9746 29.0312 30.979 29.0268 30.9834 29.0217C31.5818 28.3925 31.8693 27.5352 31.771 26.6706C31.6713 25.8009 31.1946 25.025 30.4635 24.5417ZM29.9201 28.0119L29.9186 28.0133C29.4324 28.5252 28.6279 28.6007 28.0083 28.193C26.2219 27.0197 24.1443 26.4 22.0008 26.4C19.8573 26.4 17.7783 27.0204 15.9933 28.193C15.3722 28.6007 14.5685 28.5245 14.0815 28.0119C13.7831 27.6965 13.6393 27.2683 13.6885 26.8363C13.7383 26.3985 13.9781 26.0077 14.3463 25.7642C16.6218 24.2609 19.2684 23.4659 22.0008 23.4659C24.7332 23.4659 27.3805 24.2609 29.6553 25.7642C30.0242 26.0084 30.264 26.3985 30.3139 26.8363C30.3623 27.2683 30.2185 27.6965 29.9201 28.0119Z" fill="#161616"/>
</g>
<defs>
<clipPath id="clip0_369_2390">
<rect width="44" height="44" fill="white"/>
</clipPath>
</defs>
</svg>
