<svg width="44" height="44" viewBox="0 0 44 44" fill="none" xmlns="http://www.w3.org/2000/svg">
<g clip-path="url(#clip0_369_2438)">
<path d="M11.4687 43.9115L17.6153 41.2523L19.8143 33.5411L5.23428 30.6965C2.16949 34.2898 0.240711 38.8794 0 43.9115H11.4687Z" fill="#71DAF9"/>
<path d="M44.0002 43.9115C43.762 38.936 41.8727 34.3924 38.8682 30.8179L19.8145 33.5411L25.5933 43.9114H44.0002V43.9115Z" fill="#71DAF9"/>
<path d="M32.3607 2.19935C29.177 0.840332 25.6748 0.0883789 22.0001 0.0883789C18.3254 0.0883789 14.8232 0.840418 11.6394 2.19943C10.5639 2.6586 10.1151 3.94302 10.6684 4.97332C11.1577 5.88469 12.2609 6.26411 13.2127 5.85891C15.9142 4.70889 18.8843 4.07227 22.0002 4.07227C25.116 4.07227 28.0862 4.70881 30.7876 5.85891C31.7394 6.26411 32.8426 5.88469 33.332 4.97332C33.8851 3.94293 33.4364 2.65851 32.3607 2.19935Z" fill="#71DAF9"/>
<path d="M29.145 8.94382C26.9272 8.08488 24.5176 7.61377 22 7.61377C19.4823 7.61377 17.0727 8.08496 14.8549 8.94391C13.7412 9.37523 13.2613 10.6892 13.8264 11.7413L13.827 11.7423C14.3035 12.6294 15.3656 13.0173 16.3051 12.6547C18.0734 11.972 19.9939 11.5977 22 11.5977C24.006 11.5977 25.9265 11.972 27.6949 12.6547C28.6343 13.0173 29.6965 12.6294 30.173 11.7423L30.1735 11.7413C30.7386 10.6891 30.2587 9.37523 29.145 8.94382Z" fill="#71DAF9"/>
<path d="M25.8104 15.699C24.6035 15.3346 23.3241 15.1387 22.0002 15.1387C20.6762 15.1387 19.3969 15.3346 18.19 15.699C16.9835 16.0632 16.4107 17.439 17.0068 18.5494L17.0073 18.5503C17.4589 19.3916 18.441 19.7837 19.3555 19.5092C20.1935 19.2577 21.0813 19.1226 22.0002 19.1226C22.919 19.1226 23.8068 19.2577 24.6448 19.5092C25.5594 19.7838 26.5414 19.3916 26.9931 18.5503L26.9936 18.5494C27.5896 17.439 27.0169 16.0633 25.8104 15.699Z" fill="#71DAF9"/>
<path d="M8.65992 37.6343C8.65992 35.5146 8.97669 33.4691 9.56364 31.5414L5.23437 30.6968C2.16949 34.2899 0.240711 38.8796 0 43.9116H9.62019C8.99671 41.9302 8.65992 39.8216 8.65992 37.6343Z" fill="#30C3EF"/>
<path d="M7.36855 34.4523L10.657 36.4481C11.5842 37.0114 12.3252 36.9595 13.4821 37.201C14.4375 37.3643 15.1999 38.0895 15.4101 39.0362C15.5299 39.5664 15.2818 40.1378 14.771 40.3995L12.5049 41.5661C12.1934 41.7266 11.9641 42.0122 11.8762 42.3514L11.4687 43.9114H25.5931L25.8823 43.5255C27.1143 41.8886 26.3949 40.1543 27.8915 38.5202C28.6501 37.6938 29.7173 37.2285 30.8303 37.2285C31.0742 37.2285 31.1707 37.2449 31.6826 37.2791C32.5281 37.3392 33.3297 36.8978 33.73 36.1517L34.5497 34.624C34.8946 33.981 35.5433 33.5569 36.2713 33.4986C36.9998 33.4402 37.6326 33.0174 37.9729 32.4094L38.8681 30.8177C34.8287 26.0102 28.7715 22.9548 22.0006 22.9548C15.2861 22.9548 9.27473 25.9586 5.23438 30.6954V30.6963L5.69105 32.2641C5.95642 33.1779 6.55549 33.9584 7.36855 34.4523Z" fill="#8ED275"/>
<path d="M15.9042 30.1153C15.5375 30.1153 15.2402 29.818 15.2402 29.4513V28.2799C15.2402 27.9132 15.5375 27.616 15.9042 27.616C16.2709 27.616 16.5681 27.9132 16.5681 28.2799V29.4513C16.5681 29.818 16.2709 30.1153 15.9042 30.1153Z" fill="#303646"/>
<path d="M28.0961 30.1153C27.7294 30.1153 27.4321 29.818 27.4321 29.4513V28.2799C27.4321 27.9132 27.7294 27.616 28.0961 27.616C28.4628 27.616 28.76 27.9132 28.76 28.2799V29.4513C28.7601 29.818 28.4628 30.1153 28.0961 30.1153Z" fill="#303646"/>
<path d="M22.0002 30.8127C21.1923 30.8127 20.424 30.4628 19.8924 29.8527C19.6515 29.5762 19.6803 29.1567 19.9568 28.9159C20.2332 28.675 20.6527 28.7037 20.8936 28.9802C21.1729 29.3008 21.5763 29.4847 22.0002 29.4847C22.4241 29.4847 22.8274 29.3009 23.1068 28.9802C23.3477 28.7037 23.7671 28.675 24.0436 28.9159C24.3201 29.1567 24.3489 29.5762 24.108 29.8527C23.5763 30.4628 22.8081 30.8127 22.0002 30.8127Z" fill="#303646"/>
<path d="M13.0158 24.8665C10.0036 26.214 7.3487 28.2169 5.23438 30.6958V30.6967L5.69105 32.2645C5.95668 33.1778 6.55566 33.9584 7.36872 34.4524L8.78884 35.3142C9.22076 31.4051 10.7309 27.8213 13.0158 24.8665Z" fill="#80CC62"/>
<path d="M20.3619 15.2419C19.6173 15.3345 18.8911 15.4874 18.19 15.699C16.9835 16.0632 16.4107 17.439 17.0068 18.5494L17.0073 18.5504C17.4589 19.3917 18.441 19.7838 19.3555 19.5093C20.1935 19.2577 21.0813 19.1226 22.0002 19.1226C22.3137 19.1226 22.6231 19.1396 22.9286 19.1702C21.9137 17.9827 21.0479 16.664 20.3619 15.2419Z" fill="#30C3EF"/>
<path d="M18.5701 7.91162C17.2854 8.13635 16.0425 8.48388 14.8549 8.94382C13.7412 9.37522 13.2613 10.6891 13.8264 11.7413L13.827 11.7422C14.3035 12.6293 15.3656 13.0173 16.3051 12.6546C17.209 12.3056 18.1529 12.0378 19.1274 11.8588C18.8033 10.5911 18.6128 9.27004 18.5701 7.91162Z" fill="#30C3EF"/>
<path d="M20.0226 0.162109C17.0681 0.381164 14.2469 1.08628 11.6394 2.19926C10.5639 2.65842 10.1151 3.94284 10.6684 4.97315C11.1577 5.88452 12.2609 6.26393 13.2127 5.85873C14.9759 5.10816 16.854 4.57801 18.8119 4.29905C19.0532 2.85565 19.4634 1.46956 20.0226 0.162109Z" fill="#30C3EF"/>
</g>
<defs>
<clipPath id="clip0_369_2438">
<rect width="44" height="44" fill="white"/>
</clipPath>
</defs>
</svg>
