<svg width="44" height="44" viewBox="0 0 44 44" fill="none" xmlns="http://www.w3.org/2000/svg">
<path d="M36.1937 35.4837V38.6773C36.1937 41.6171 33.811 43.9998 30.8711 43.9998H13.1292C10.1893 43.9998 7.80664 41.6171 7.80664 38.6773V35.4837C7.80664 34.7492 8.40279 34.1531 9.1373 34.1531H34.863C35.5975 34.1531 36.1937 34.7492 36.1937 35.4837Z" fill="#FCE3A0"/>
<path d="M21.9114 44H13.1292C10.1893 44 7.80664 41.6173 7.80664 38.6775V35.484C7.80664 34.7495 8.40279 34.1533 9.1373 34.1533H16.5889V38.6775C16.5889 41.6173 18.9716 44 21.9114 44Z" fill="#FAD989"/>
<path d="M36.1938 25.1936V35.484H7.80664V25.1936C7.80664 22.2538 10.1893 19.8711 13.1292 19.8711H30.8711C33.811 19.8711 36.1938 22.2538 36.1938 25.1936Z" fill="#FFEAB7"/>
<path d="M21.9115 19.8711C18.9716 19.8711 16.5889 22.2538 16.5889 25.1936V35.484H7.80664V25.1936C7.80664 22.2538 10.1893 19.8711 13.1292 19.8711H21.9115Z" fill="#FCE3A0"/>
<path d="M14.8315 32.5928C16.2923 32.5928 17.4765 31.6497 17.4765 30.4865C17.4765 29.3232 16.2923 28.3801 14.8315 28.3801C13.3707 28.3801 12.1865 29.3232 12.1865 30.4865C12.1865 31.6497 13.3707 32.5928 14.8315 32.5928Z" fill="#FFA1AC"/>
<path d="M29.1684 32.5928C30.6292 32.5928 31.8134 31.6497 31.8134 30.4865C31.8134 29.3232 30.6292 28.3801 29.1684 28.3801C27.7076 28.3801 26.5234 29.3232 26.5234 30.4865C26.5234 31.6497 27.7076 32.5928 29.1684 32.5928Z" fill="#FFA1AC"/>
<path d="M24.5646 27.9507C24.1971 27.9507 23.8993 28.2485 23.8993 28.616C23.8993 28.9563 23.6225 29.233 23.2823 29.233C22.942 29.233 22.6653 28.9562 22.6653 28.616C22.6653 28.2485 22.3674 27.9507 22 27.9507C21.6325 27.9507 21.3347 28.2485 21.3347 28.616C21.3347 28.9563 21.0578 29.233 20.7176 29.233C20.3774 29.233 20.1007 28.9562 20.1007 28.616C20.1007 28.2485 19.8028 27.9507 19.4353 27.9507C19.0679 27.9507 18.77 28.2485 18.77 28.616C18.77 29.69 19.6437 30.5637 20.7176 30.5637C21.2084 30.5637 21.6571 30.3808 22 30.0801C22.3429 30.3808 22.7915 30.5637 23.2823 30.5637C24.3563 30.5637 25.23 29.69 25.23 28.616C25.2299 28.2485 24.9321 27.9507 24.5646 27.9507Z" fill="#495560"/>
<path d="M16.5422 25.6814C15.502 25.6814 14.6558 26.5276 14.6558 27.5678C14.6558 27.9353 14.9536 28.2331 15.3211 28.2331C15.6886 28.2331 15.9864 27.9353 15.9864 27.5678C15.9864 27.2614 16.2357 27.0121 16.5422 27.0121C16.8486 27.0121 17.0979 27.2614 17.0979 27.5678C17.0979 27.9353 17.3958 28.2331 17.7633 28.2331C18.1307 28.2331 18.4286 27.9353 18.4286 27.5678C18.4286 26.5275 17.5824 25.6814 16.5422 25.6814Z" fill="#495560"/>
<path d="M27.4572 25.6814C26.417 25.6814 25.5708 26.5276 25.5708 27.5678C25.5708 27.9353 25.8687 28.2331 26.2361 28.2331C26.6036 28.2331 26.9015 27.9353 26.9015 27.5678C26.9015 27.2614 27.1508 27.0121 27.4572 27.0121C27.7637 27.0121 28.013 27.2614 28.013 27.5678C28.013 27.9353 28.3108 28.2331 28.6783 28.2331C29.0458 28.2331 29.3436 27.9353 29.3436 27.5678C29.3436 26.5275 28.4974 25.6814 27.4572 25.6814Z" fill="#495560"/>
<path d="M24.8385 19.8709C24.8385 20.7172 24.4677 21.4774 23.8805 21.9973C23.3801 22.4408 22.722 22.7096 21.9998 22.7096C20.4323 22.7096 19.1611 21.4384 19.1611 19.8709C19.1611 18.6166 19.9755 17.5521 21.103 17.1768C21.3851 17.0828 21.6867 17.0322 21.9998 17.0322C23.5672 17.0322 24.8385 18.3034 24.8385 19.8709Z" fill="#ACE094"/>
<path d="M21.103 17.1768C21.739 18.9536 22.6873 20.5824 23.8805 21.9972C23.3801 22.4408 22.722 22.7096 21.9998 22.7096C20.4323 22.7096 19.1611 21.4384 19.1611 19.8709C19.1611 18.6166 19.9755 17.552 21.103 17.1768Z" fill="#89D47F"/>
<path d="M30.0754 14.6343C29.2788 15.431 28.0031 15.4647 27.1577 14.7205C25.7818 13.5087 23.9775 12.7741 22.0001 12.7741C21.3898 12.7741 20.7954 12.8443 20.2259 12.9773C18.9494 13.2736 17.7936 13.883 16.8426 14.7205C15.9972 15.4648 14.7216 15.4311 13.9249 14.6343C13.5079 14.2175 13.3013 13.6727 13.3013 13.1298C13.3013 12.54 13.5443 11.9518 14.0243 11.5287C15.8046 9.95849 18.0526 8.9055 20.532 8.6048C21.0128 8.54628 21.5033 8.51611 22.0001 8.51611C25.058 8.51611 27.8505 9.65427 29.976 11.5287C30.8986 12.3421 30.9456 13.7641 30.0754 14.6343Z" fill="#ACE094"/>
<path d="M20.2259 12.9772C18.9494 13.2735 17.7936 13.8829 16.8426 14.7204C15.9972 15.4647 14.7216 15.431 13.9249 14.6343C13.5079 14.2174 13.3013 13.6726 13.3013 13.1298C13.3013 12.5399 13.5443 11.9517 14.0243 11.5286C15.8046 9.95842 18.0526 8.90543 20.532 8.60474C20.3066 9.66306 20.1878 10.7604 20.1878 11.8861C20.1878 12.2534 20.2002 12.6171 20.2259 12.9772Z" fill="#89D47F"/>
<path d="M36.1075 8.60217C35.2985 9.41119 33.9882 9.44582 33.1535 8.66345C30.2731 5.96578 26.4133 4.30066 22.165 4.25898C22.11 4.25812 22.055 4.25812 22 4.25812C17.6869 4.25812 13.7641 5.93115 10.8465 8.66345C10.0117 9.44582 8.70148 9.41127 7.89247 8.60217C7.47731 8.18701 7.27148 7.64586 7.27148 7.1048C7.27148 6.53263 7.50128 5.9614 7.95366 5.53824C11.6316 2.10332 16.5701 0 22 0C23.1355 0 24.2496 0.0922969 25.3355 0.268813C29.441 0.938609 33.1375 2.82193 36.0463 5.53824C36.9281 6.36221 36.9609 7.74881 36.1075 8.60217Z" fill="#ACE094"/>
<path d="M25.3355 0.268813C24.074 1.41324 22.9998 2.7598 22.165 4.25898C22.11 4.25812 22.055 4.25812 22 4.25812C17.6869 4.25812 13.7641 5.93115 10.8465 8.66345C10.0117 9.44582 8.70148 9.41127 7.89247 8.60217C7.47731 8.18701 7.27148 7.64586 7.27148 7.1048C7.27148 6.53263 7.50128 5.9614 7.95366 5.53824C11.6316 2.10332 16.5701 0 22 0C23.1355 0 24.2496 0.0922969 25.3355 0.268813Z" fill="#89D47F"/>
<path d="M23.4195 41.8266H20.5808C19.4313 41.8266 18.4961 40.8914 18.4961 39.7419C18.4961 38.5924 19.4313 37.6572 20.5808 37.6572H23.4195C24.569 37.6572 25.5041 38.5924 25.5041 39.7419C25.5041 40.8914 24.569 41.8266 23.4195 41.8266Z" fill="#FAD989"/>
<path d="M30.5163 41.8266C29.3668 41.8266 28.4316 40.8914 28.4316 39.7419C28.4316 38.5924 29.3668 37.6572 30.5163 37.6572C31.6658 37.6572 32.601 38.5924 32.601 39.7419C32.601 40.8914 31.6658 41.8266 30.5163 41.8266Z" fill="#ACE094"/>
<path d="M13.4841 41.8266C12.3346 41.8266 11.3994 40.8914 11.3994 39.7419C11.3994 38.5924 12.3346 37.6572 13.4841 37.6572C14.6336 37.6572 15.5688 38.5924 15.5688 39.7419C15.5688 40.8914 14.6336 41.8266 13.4841 41.8266Z" fill="#FFA1AC"/>
</svg>
