<svg width="44" height="44" viewBox="0 0 44 44" fill="none" xmlns="http://www.w3.org/2000/svg">
<g clip-path="url(#clip0_369_2287)">
<path d="M10.285 34.6788L4.61699 29.0108C3.87767 28.2715 3.87767 27.0729 4.61699 26.3335C5.35631 25.5942 6.55497 25.5942 7.29429 26.3335L12.9623 32.0015C13.7016 32.7409 13.7016 33.9395 12.9623 34.6788C12.223 35.4182 11.0243 35.4182 10.285 34.6788Z" fill="#8EA3E2"/>
<path d="M12.9622 32.0017L8.59868 27.6382L5.92139 30.3155L10.2849 34.679C11.0243 35.4184 12.2229 35.4184 12.9622 34.679C13.7016 33.9397 13.7016 32.7411 12.9622 32.0017Z" fill="#4E5660"/>
<path d="M33.7147 34.6788L39.3827 29.0108C40.122 28.2715 40.122 27.0729 39.3827 26.3335C38.6434 25.5942 37.4447 25.5942 36.7054 26.3335L31.0374 32.0015C30.2981 32.7409 30.2981 33.9395 31.0374 34.6788C31.7767 35.4182 32.9754 35.4182 33.7147 34.6788Z" fill="#8EA3E2"/>
<path d="M31.0374 32.0017L35.401 27.6382L38.0783 30.3155L33.7147 34.679C32.9754 35.4184 31.7767 35.4184 31.0374 34.679C30.2981 33.9397 30.2981 32.7411 31.0374 32.0017Z" fill="#4E5660"/>
<path d="M34.4713 44H9.52885C7.70594 44 6.3593 42.3007 6.77575 40.526L8.41965 33.5205C8.71957 32.2423 9.85988 31.3386 11.1727 31.3386H32.8274C34.1404 31.3386 35.2806 32.2423 35.5805 33.5205L37.2244 40.526C37.641 42.3007 36.2943 44 34.4713 44Z" fill="#FBF1CF"/>
<path d="M9.52879 44H34.4713C36.1614 44 37.4411 42.5391 37.2868 40.9119H6.71331C6.55896 42.5391 7.83866 44 9.52879 44Z" fill="#89D47F"/>
<path d="M29.4564 31.3386H14.543C15.4869 34.5651 18.4722 36.9287 21.9997 36.9287C25.5272 36.9287 28.5125 34.5651 29.4564 31.3386Z" fill="#FAE0BD"/>
<path d="M21.9997 34.2728C24.823 34.2728 27.1117 31.9841 27.1117 29.1608C27.1117 26.3375 24.823 24.0488 21.9997 24.0488C19.1764 24.0488 16.8877 26.3375 16.8877 29.1608C16.8877 31.9841 19.1764 34.2728 21.9997 34.2728Z" fill="#E8899E"/>
<path d="M39.5839 11.5768C34.8871 6.87981 28.6423 4.29318 21.9999 4.29318C15.3575 4.29318 9.11271 6.87981 4.41588 11.5767C3.57765 12.415 2.21837 12.415 1.38014 11.5767C0.541906 10.7384 0.541906 9.3793 1.38014 8.54098C6.88787 3.03325 14.2108 0 21.9999 0C29.789 0 37.1119 3.03334 42.6197 8.54107C43.4579 9.37939 43.4579 10.7386 42.6197 11.5768C41.7815 12.4149 40.4224 12.4153 39.5839 11.5768Z" fill="#6A96D7"/>
<path d="M34.3798 16.7809C31.0729 13.474 26.6763 11.6528 21.9999 11.6528C17.3234 11.6528 12.9268 13.474 9.61998 16.7809C8.78175 17.6191 7.42248 17.6191 6.58424 16.7809C5.74601 15.9425 5.74601 14.5834 6.58424 13.7451C10.7019 9.62742 16.1767 7.35962 21.9999 7.35962C27.8231 7.35962 33.2978 9.62734 37.4156 13.745C38.2538 14.5834 38.2538 15.9425 37.4156 16.7808C36.5774 17.6191 35.2181 17.6191 34.3798 16.7809Z" fill="#8EA3E2"/>
<path d="M29.1758 21.985C27.2591 20.0682 24.7107 19.0126 22 19.0126C19.2892 19.0126 16.7408 20.0682 14.8241 21.985C13.9857 22.8232 12.6266 22.8232 11.7883 21.985C10.9501 21.1467 10.9501 19.7876 11.7883 18.9492C14.516 16.2217 18.1426 14.7195 22 14.7195C25.8573 14.7195 29.4839 16.2217 32.2116 18.9492C33.0498 19.7876 33.0498 21.1467 32.2116 21.985C31.3733 22.8232 30.0142 22.8233 29.1758 21.985Z" fill="#89D47F"/>
<path d="M14.6019 42.7057C16.1095 42.7057 17.3317 41.7324 17.3317 40.5318C17.3317 39.3312 16.1095 38.3579 14.6019 38.3579C13.0942 38.3579 11.8721 39.3312 11.8721 40.5318C11.8721 41.7324 13.0942 42.7057 14.6019 42.7057Z" fill="#E8899E"/>
<path d="M29.3983 42.7057C30.9059 42.7057 32.1281 41.7324 32.1281 40.5318C32.1281 39.3312 30.9059 38.3579 29.3983 38.3579C27.8906 38.3579 26.6685 39.3312 26.6685 40.5318C26.6685 41.7324 27.8906 42.7057 29.3983 42.7057Z" fill="#E8899E"/>
<path d="M16.1929 39.0567C15.8369 39.0567 15.5483 38.7682 15.5483 38.4122V37.3499C15.5483 36.9939 15.8369 36.7053 16.1929 36.7053C16.5488 36.7053 16.8374 36.9939 16.8374 37.3499V38.4122C16.8374 38.7682 16.5488 39.0567 16.1929 39.0567Z" fill="#4E5660"/>
<path d="M22.0003 39.7481C21.2273 39.7481 20.4921 39.4133 19.9833 38.8295C19.7495 38.5612 19.7774 38.154 20.0458 37.9201C20.3143 37.6863 20.7213 37.7142 20.9552 37.9826C21.219 38.2853 21.6 38.459 22.0004 38.459C22.4007 38.459 22.7816 38.2853 23.0455 37.9826C23.2794 37.7142 23.6865 37.6863 23.9549 37.9201C24.2232 38.154 24.2512 38.5612 24.0174 38.8295C23.5085 39.4132 22.7733 39.7481 22.0003 39.7481Z" fill="#4E5660"/>
<path d="M29.2435 39.0273C28.8876 39.0273 28.599 38.7387 28.599 38.3828C28.599 38.0593 28.3359 37.7961 28.0124 37.7961C27.6889 37.7961 27.4258 38.0593 27.4258 38.3828C27.4258 38.7387 27.1372 39.0273 26.7812 39.0273C26.4253 39.0273 26.1367 38.7387 26.1367 38.3828C26.1367 37.3485 26.9781 36.5071 28.0124 36.5071C29.0467 36.5071 29.8881 37.3485 29.8881 38.3828C29.8881 38.7387 29.5995 39.0273 29.2435 39.0273Z" fill="#4E5660"/>
</g>
<defs>
<clipPath id="clip0_369_2287">
<rect width="44" height="44" fill="white"/>
</clipPath>
</defs>
</svg>
