<svg width="44" height="44" viewBox="0 0 44 44" fill="none" xmlns="http://www.w3.org/2000/svg">
<path d="M34.1501 23.6429L30.6934 27.0996C30.3316 27.4614 29.7539 27.4841 29.3628 27.1543C25.2224 23.6628 18.9656 23.8139 14.8246 27.336C14.4336 27.6685 13.8536 27.6469 13.4907 27.284L10.0353 23.8286C9.63575 23.4291 9.65394 22.7755 10.0753 22.399C13.3861 19.44 17.7426 17.675 22.1858 17.675C26.6276 17.675 30.8227 19.2791 34.11 22.213C34.5315 22.5893 34.5497 23.2432 34.1501 23.6429Z" fill="#FF5478"/>
<path d="M43.7122 15.1745L40.2633 18.6235C39.8885 18.9982 39.2855 19.0073 38.8971 18.6468C34.2872 14.3684 28.3238 12.0234 22 12.0234C15.6763 12.0234 9.71289 14.3684 5.10293 18.6468C4.71454 19.0073 4.11154 18.9982 3.73679 18.6235L0.287709 15.1745C-0.106001 14.7808 -0.0935581 14.1402 0.312251 13.7589C3.17034 11.0743 6.44874 8.9721 10.071 7.50324C13.8703 5.96264 17.8837 5.1814 22 5.1814C26.1163 5.1814 30.1298 5.96264 33.929 7.50324C37.5512 8.97218 40.8296 11.0743 43.6877 13.7589C44.0935 14.1401 44.106 14.7808 43.7122 15.1745Z" fill="#FF87B9"/>
<path d="M34.1099 22.213C30.8228 19.2791 26.6275 17.675 22.1858 17.675C22.1238 17.675 22.0619 17.6767 22 17.6774V24.6177C24.6307 24.5542 27.2677 25.3877 29.3629 27.1544C29.7541 27.4842 30.3318 27.4615 30.6935 27.0997L34.1503 23.643C34.5499 23.2433 34.5316 22.5894 34.1099 22.213Z" fill="#F8006C"/>
<path d="M33.9289 7.50315C30.1297 5.96255 26.1163 5.1814 22 5.1814V12.0234C28.3238 12.0234 34.2871 14.3683 38.8971 18.6467C39.2855 19.0072 39.8885 18.9981 40.2632 18.6234L43.7122 15.1744C44.1059 14.7807 44.0936 14.1401 43.6877 13.7588C40.8296 11.0742 37.5512 8.9721 33.9289 7.50315Z" fill="#FF5478"/>
<path d="M26.8605 30.9804C26.4147 30.1256 25.5196 29.5418 24.4881 29.5418C23.5859 29.5418 22.7881 29.9883 22.3041 30.672C22.1527 30.8858 21.8359 30.8858 21.6845 30.672C21.2003 29.9883 20.4026 29.5418 19.5005 29.5418C17.9203 29.5317 16.8265 30.9172 16.8345 32.4142C16.8268 34.3837 18.2468 36.1044 19.6719 37.2894C20.5847 38.0516 21.4543 38.5673 21.8178 38.7701C21.9303 38.833 22.0671 38.8347 22.1809 38.7742C22.5524 38.5765 23.4321 38.0665 24.3504 37.2894C26.1215 35.8638 27.8925 33.1236 26.8605 30.9804Z" fill="#FF87B9"/>
<path d="M24.4879 29.5417C23.5857 29.5417 22.7879 29.9881 22.3039 30.672C22.2281 30.779 22.1109 30.8325 21.9937 30.8323V38.8184C22.0578 38.82 22.1223 38.8053 22.1807 38.7741C22.5522 38.5764 23.4319 38.0664 24.3502 37.2894C26.1213 35.8637 27.8923 33.1235 26.8603 30.9802C26.4146 30.1254 25.5195 29.5417 24.4879 29.5417Z" fill="#FF5478"/>
</svg>
