<svg width="44" height="44" viewBox="0 0 44 44" fill="none" xmlns="http://www.w3.org/2000/svg">
<path d="M6.84952 25.5082L0.154727 7.11438C-0.327726 5.78888 0.355734 4.32321 1.68115 3.84076C3.00699 3.35831 4.47231 4.04177 4.95477 5.36718L11.6496 23.761C12.132 25.0865 11.4485 26.5522 10.1231 27.0346C8.79265 27.5189 7.33016 26.8288 6.84952 25.5082Z" fill="#7292DE"/>
<path d="M33.877 27.0346C32.5515 26.5522 31.868 25.0866 32.3506 23.761L39.0454 5.36723C39.5278 4.04173 40.9934 3.35827 42.319 3.84081C43.6445 4.32326 44.3279 5.78884 43.8454 7.11442L37.1506 25.5082C36.6698 26.8293 35.2064 27.5187 33.877 27.0346Z" fill="#7292DE"/>
<path d="M40.3119 16.8226C39.265 16.3506 38.1043 16.0876 36.8833 16.0876H35.1435L32.3505 23.7613C31.8681 25.0868 32.5515 26.5524 33.8769 27.0349C35.2062 27.5188 36.6697 26.8296 37.1506 25.5085L40.3119 16.8226Z" fill="#4677D4"/>
<path d="M3.68799 16.8224L6.84937 25.5082C7.33002 26.8288 8.7925 27.5189 10.1229 27.0346C11.4484 26.5522 12.1319 25.0866 11.6493 23.761L8.85636 16.0874H7.11664C5.89564 16.0875 4.73496 16.3504 3.68799 16.8224Z" fill="#4677D4"/>
<path d="M36.8832 38.6089H7.11683C4.45002 38.6089 2.28809 36.447 2.28809 33.7801V24.4576C2.28809 21.7908 4.45002 19.6289 7.11683 19.6289H36.8832C39.5501 19.6289 41.7119 21.7908 41.7119 24.4576V33.7801C41.7119 36.447 39.5501 38.6089 36.8832 38.6089Z" fill="#EEECFF"/>
<path d="M8.13201 36.8041L13.3742 35.2753C10.6281 30.8147 10.5817 23.9958 11.2885 19.6289H7.11683C4.45002 19.6289 2.28809 21.7908 2.28809 24.4576V33.7801C2.28809 34.302 2.37196 34.8043 2.52519 35.2752L8.13201 36.8041Z" fill="#D3D3FF"/>
<path d="M21.9998 16.381C23.5455 16.381 24.7985 15.128 24.7985 13.5823C24.7985 12.0367 23.5455 10.7837 21.9998 10.7837C20.4542 10.7837 19.2012 12.0367 19.2012 13.5823C19.2012 15.128 20.4542 16.381 21.9998 16.381Z" fill="#F5C956"/>
<path d="M27.033 9.19383C26.8681 9.19383 26.7031 9.13093 26.5773 9.00503C24.0534 6.48122 19.9469 6.48122 17.423 9.00503C17.1713 9.25674 16.7632 9.25674 16.5115 9.00503C16.2598 8.75332 16.2598 8.3452 16.5115 8.09358C19.538 5.06712 24.4625 5.06712 27.4888 8.09358C27.7406 8.34529 27.7406 8.7534 27.4888 9.00503C27.363 9.13084 27.198 9.19383 27.033 9.19383Z" fill="#00D6BC"/>
<path d="M30.0868 6.13996C29.9218 6.13996 29.7569 6.07706 29.6311 5.95116C25.4233 1.74331 18.5765 1.7434 14.3688 5.95116C14.1171 6.20287 13.709 6.20296 13.4573 5.95116C13.2056 5.69945 13.2056 5.29133 13.4573 5.03971C18.1678 0.329213 25.8323 0.329213 30.5427 5.03971C30.7944 5.29142 30.7944 5.69953 30.5427 5.95116C30.4168 6.07697 30.2518 6.13996 30.0868 6.13996Z" fill="#FF96C0"/>
<path d="M12.5978 29.5993C12.5984 30.7889 11.3879 31.7539 9.89399 31.7547C8.40014 31.7554 7.18859 30.7917 7.18799 29.602C7.18739 28.4124 8.3979 27.4473 9.89184 27.4465C11.3858 27.4458 12.5972 28.4096 12.5978 29.5993Z" fill="#FFA1AC"/>
<path d="M21.8496 29.5947C21.8502 30.7843 23.0618 31.7481 24.5556 31.7473C26.0495 31.7466 27.2601 30.7816 27.2595 29.5919C27.2589 28.4022 26.0473 27.4384 24.5535 27.4392C23.0595 27.44 21.849 28.4051 21.8496 29.5947Z" fill="#FFA1AC"/>
<path d="M19.8747 28.6218C19.8739 26.9832 18.6867 26.8299 17.2223 26.8306C15.758 26.8313 14.571 26.9859 14.5718 28.6245C14.5726 30.2631 15.7604 31.5909 17.2248 31.5901C18.6891 31.5894 19.8756 30.2604 19.8747 28.6218Z" fill="#3B4456"/>
<path d="M23.0401 27.7743C23.0397 27.7743 23.0393 27.7743 23.0388 27.7743C22.6829 27.7736 22.3948 27.4845 22.3955 27.1285L22.3975 26.0662C22.3982 25.7107 22.6867 25.4229 23.0419 25.4229H23.0432C23.3992 25.4235 23.6872 25.7126 23.6865 26.0686L23.6846 27.1309C23.684 27.4865 23.3955 27.7743 23.0401 27.7743Z" fill="#3B4456"/>
<path d="M13.1624 27.677C13.1619 27.677 13.1615 27.677 13.1609 27.677C12.805 27.6762 12.517 27.387 12.5179 27.031C12.5186 26.6999 12.2498 26.43 11.9187 26.4293C11.9183 26.4293 11.9179 26.4293 11.9173 26.4293C11.5868 26.4293 11.3176 26.6978 11.3169 27.0284C11.3161 27.3839 11.0276 27.6715 10.6724 27.6715C10.6718 27.6715 10.6714 27.6715 10.6709 27.6715C10.315 27.6707 10.027 27.3816 10.0278 27.0255C10.0302 25.9852 10.8774 25.1401 11.9173 25.1401H11.9215C12.9634 25.1425 13.8091 25.9919 13.8068 27.0338C13.8061 27.3894 13.5177 27.677 13.1624 27.677Z" fill="#3B4456"/>
<path d="M35.5432 24.666C35.7655 23.7254 35.1833 22.7827 34.2427 22.5603C33.3021 22.338 32.3593 22.9202 32.137 23.8609C31.9146 24.8015 32.4969 25.7442 33.4375 25.9666C34.3781 26.1889 35.3208 25.6066 35.5432 24.666Z" fill="#00D6BC"/>
<path d="M32.2792 42.4931H35.7913C36.6717 42.4931 37.3853 41.7794 37.3853 40.8991V37.5847H30.6851V40.899C30.6851 41.7794 31.3988 42.4931 32.2792 42.4931Z" fill="#4677D4"/>
<path d="M13.3745 35.2751C13.1623 36.6786 14.2809 38.0916 16.7785 38.6088H36.8829C39.0278 38.6088 40.845 37.2099 41.4746 35.2751H13.3745Z" fill="#FFBBD5"/>
<path d="M11.7209 42.4931H8.2088C7.32846 42.4931 6.61475 41.7794 6.61475 40.8991V37.5847H13.315V40.899C13.3149 41.7794 12.6013 42.4931 11.7209 42.4931Z" fill="#4677D4"/>
<path d="M7.11654 38.6088H16.7785C15.3432 37.8226 14.2286 36.6626 13.3744 35.2751H2.5249C3.15448 37.2099 4.97171 38.6088 7.11654 38.6088Z" fill="#FF96C0"/>
<path d="M35.0685 31.8569C35.752 31.1734 35.752 30.0653 35.0685 29.3819C34.385 28.6984 33.2769 28.6984 32.5935 29.3819C31.91 30.0653 31.91 31.1734 32.5935 31.8569C33.2769 32.5404 34.385 32.5404 35.0685 31.8569Z" fill="#00D6BC"/>
</svg>
