<svg width="44" height="44" viewBox="0 0 44 44" fill="none" xmlns="http://www.w3.org/2000/svg">
<g clip-path="url(#clip0_369_2354)">
<path d="M32.6235 39.5735C32.6235 33.7062 27.8671 28.9497 21.9997 28.9497C16.1324 28.9497 11.376 33.7061 11.376 39.5735V41.7867H32.6234V39.5735H32.6235Z" fill="#FF9696"/>
<path d="M25.541 29.5551C24.4332 29.1635 23.2415 28.9497 21.9997 28.9497C16.1324 28.9497 11.376 33.7061 11.376 39.5735V41.7868H18.4584V39.5735C18.4585 34.948 21.4149 31.0136 25.541 29.5551Z" fill="#FF636E"/>
<path d="M34.837 44H9.16303C7.94065 44 6.94971 43.0091 6.94971 41.7868C6.94971 40.5644 7.94065 39.5735 9.16303 39.5735H34.8371C36.0595 39.5735 37.0504 40.5644 37.0504 41.7868C37.0504 43.0091 36.0594 44 34.837 44Z" fill="#E9EDF5"/>
<path d="M16.2455 41.7866C16.2455 40.5642 17.2364 39.5732 18.4588 39.5732H9.16303C7.94065 39.5732 6.94971 40.5642 6.94971 41.7866C6.94971 43.0089 7.94065 43.9999 9.16303 43.9999H18.4588C17.2364 43.9999 16.2455 43.0089 16.2455 41.7866Z" fill="#CDD2E1"/>
<path d="M43.5418 9.61168C37.7955 3.41352 30.1451 0 22.0001 0C19.4547 0 18.5107 0.769484 18.5107 1.71875C18.5107 2.66793 21.0508 3.43741 22 3.4375C29.1774 3.4375 35.9325 6.46018 41.0209 11.9487C41.3595 12.3141 41.82 12.4989 42.2817 12.4989C42.6998 12.4989 43.119 12.3472 43.4499 12.0406C44.146 11.3952 44.1872 10.3078 43.5418 9.61168Z" fill="#FF9696"/>
<path d="M22 0C21.9999 0 21.9999 0 22 0C13.8548 0 6.20444 3.41344 0.458316 9.61151C-0.186988 10.3077 -0.14591 11.3951 0.550269 12.0405C1.24628 12.6858 2.33382 12.6445 2.97921 11.9487C8.06739 6.46009 14.8224 3.4375 21.9999 3.4375C21.0507 3.4375 20.2813 2.66802 20.2813 1.71875C20.2813 0.769484 21.0507 0 22 0Z" fill="#FF636E"/>
<path d="M39.0348 14.473C34.4923 9.57335 28.4426 6.875 22.0001 6.875C21.0508 6.875 18.5107 7.64448 18.5107 8.59375C18.5107 9.54302 21.0509 10.3125 22.0001 10.3125H22.0001C27.475 10.3125 32.6294 12.62 36.514 16.8101C36.8526 17.1754 37.313 17.3603 37.7748 17.3602C38.1928 17.3602 38.6121 17.2086 38.943 16.9019C39.6389 16.2566 39.6801 15.1691 39.0348 14.473Z" fill="#FF9696"/>
<path d="M21.9999 6.875C15.5572 6.875 9.50751 9.57335 4.9652 14.4729C4.3198 15.1691 4.36097 16.2565 5.05706 16.9019C5.75316 17.5472 6.84061 17.5059 7.486 16.8101C11.3705 12.62 16.5249 10.3125 21.9998 10.3125H21.9999C21.0506 10.3125 20.2811 9.54302 20.2811 8.59375C20.2811 7.64448 21.0506 6.875 21.9999 6.875Z" fill="#FF636E"/>
<path d="M34.5279 19.3343C31.1893 15.7333 26.7401 13.75 22.0001 13.75C21.0509 13.7501 18.5107 14.5196 18.5107 15.4687C18.5107 16.418 21.0509 17.1875 22.0001 17.1875H22.0001C20.8212 17.1875 20.8212 17.1875 22.0001 17.1875C25.7725 17.1875 29.3263 18.7799 32.007 21.6715C32.6524 22.3676 33.7397 22.4087 34.436 21.7633C35.132 21.1179 35.1732 20.0305 34.5279 19.3343Z" fill="#FF9696"/>
<path d="M21.9998 13.75C17.2596 13.75 12.8105 15.7333 9.47196 19.3343C8.82665 20.0305 8.86782 21.1179 9.56391 21.7633C9.89468 22.07 10.3139 22.2216 10.732 22.2216C11.1937 22.2216 11.6542 22.0368 11.9928 21.6715C14.6735 18.7799 18.2274 17.1875 21.9998 17.1875H21.9998C21.0506 17.1875 20.2811 16.418 20.2811 15.4688C20.2811 14.5195 21.0506 13.75 21.9998 13.75Z" fill="#FF636E"/>
<path d="M30.1256 24.1852C27.9611 21.8894 25.0754 20.625 22.0001 20.625C21.0509 20.6251 18.5107 21.3946 18.5107 22.3438C18.5107 23.293 21.0509 24.0625 22.0001 24.0625H22.0001C24.1188 24.0625 26.1162 24.9435 27.6245 26.5433C27.9627 26.902 28.4184 27.083 28.8754 27.0829C29.2983 27.0829 29.7221 26.9277 30.0541 26.6148C30.7448 25.9636 30.7769 24.8759 30.1256 24.1852Z" fill="#FF9696"/>
<path d="M22.0001 20.625C18.9246 20.625 16.0389 21.8894 13.8744 24.1852C13.2233 24.8759 13.2552 25.9636 13.946 26.6148C14.6365 27.2658 15.7244 27.2339 16.3756 26.5433C17.8838 24.9435 19.8813 24.0625 22 24.0625H22.0001C21.0508 24.0625 20.2813 23.293 20.2813 22.3438C20.2813 21.3945 21.0508 20.625 22.0001 20.625Z" fill="#FF636E"/>
<path d="M16.4712 36.2276C16.1152 36.2276 15.8267 35.9392 15.8267 35.5831V34.5208C15.8267 34.1647 16.1152 33.8762 16.4712 33.8762C16.8271 33.8762 17.1157 34.1647 17.1157 34.5208V35.5831C17.1157 35.9391 16.8272 36.2276 16.4712 36.2276Z" fill="#495560"/>
<path d="M27.5283 36.2276C27.1723 36.2276 26.8838 35.9392 26.8838 35.5831V34.5208C26.8838 34.1647 27.1723 33.8762 27.5283 33.8762C27.8844 33.8762 28.1729 34.1647 28.1729 34.5208V35.5831C28.1729 35.9391 27.8844 36.2276 27.5283 36.2276Z" fill="#495560"/>
<path d="M22.0001 36.8601C21.2553 36.8601 20.5469 36.5375 20.0566 35.9751C19.8227 35.7068 19.8507 35.2996 20.119 35.0658C20.3874 34.8317 20.7945 34.8597 21.0284 35.1282C21.2737 35.4096 21.628 35.5711 22.0001 35.5711C22.3723 35.5711 22.7264 35.4096 22.9719 35.1282C23.2057 34.8599 23.6128 34.8318 23.8812 35.0658C24.1496 35.2996 24.1774 35.7068 23.9436 35.9751C23.4533 36.5375 22.7449 36.8601 22.0001 36.8601Z" fill="#495560"/>
</g>
<defs>
<clipPath id="clip0_369_2354">
<rect width="44" height="44" fill="white"/>
</clipPath>
</defs>
</svg>
