<svg width="44" height="44" viewBox="0 0 44 44" fill="none" xmlns="http://www.w3.org/2000/svg">
<path d="M6.2335 19.7083C5.4085 20.5333 5.4085 21.9999 6.2335 22.8249C6.69183 23.2833 7.24183 23.4666 7.79183 23.4666C8.34183 23.4666 8.89183 23.2833 9.35016 22.8249C16.3168 15.8583 27.6835 15.8583 34.6502 22.8249C35.4752 23.6499 36.9418 23.6499 37.7668 22.8249C38.5918 21.9999 38.5918 20.5333 37.7668 19.7083C29.0585 10.9999 14.9418 10.9999 6.2335 19.7083Z" fill="#B0F0A8"/>
<path d="M42.9002 14.4834C37.3085 8.8917 29.8835 5.8667 22.0002 5.8667C14.1169 5.8667 6.69186 8.98337 1.1002 14.4834C0.275195 15.3084 0.275195 16.775 1.1002 17.6C1.55853 18.0584 2.10853 18.2417 2.65853 18.2417C3.20853 18.2417 3.75853 18.0584 4.21686 17.6C8.98353 12.8334 15.3085 10.2667 22.0002 10.2667C28.6919 10.2667 35.0169 12.925 39.7835 17.6C40.6085 18.425 42.0752 18.425 42.9002 17.6C43.7252 16.775 43.7252 15.4 42.9002 14.4834Z" fill="#FFD499"/>
<path d="M22.0003 20.4417C17.9669 20.4417 14.2086 22 11.4586 24.8417C10.6336 25.6667 10.6336 27.1333 11.4586 27.9583C12.2836 28.7833 13.7503 28.7833 14.5753 27.9583C16.5919 25.9417 19.2503 24.8417 22.0919 24.8417C24.9336 24.8417 27.5919 25.9417 29.6086 27.9583C30.0669 28.4167 30.6169 28.6 31.1669 28.6C31.7169 28.6 32.2669 28.4167 32.7253 27.9583C33.5503 27.1333 33.5503 25.6667 32.7253 24.8417C29.7919 22 26.0336 20.4417 22.0003 20.4417Z" fill="#95D6FF"/>
<path d="M18.242 29.15C16.2253 31.1666 16.2253 34.5583 18.242 36.575C19.2503 37.5833 20.6253 38.1333 22.0003 38.1333C23.3753 38.1333 24.6587 37.5833 25.7587 36.575C27.7753 34.5583 27.7753 31.1666 25.7587 29.15C23.6503 27.1333 20.3503 27.1333 18.242 29.15Z" fill="#FF99B0"/>
</svg>
